<svg width="43" height="41" viewBox="0 0 43 41" fill="none" xmlns="http://www.w3.org/2000/svg">
<g clip-path="url(#clip0)">
<path d="M12.9951 30.0423L10.9426 26.2767L17.6607 11.065L20.0742 14.0132L12.9951 30.0423ZM22.0607 15.1238L14.9049 31.3265L29.0738 35.7003L36.1921 19.5823L22.0607 15.1238ZM31.8615 9.65411C29.7251 8.61093 26.8805 9.833 25.8068 12.2531L25.0095 14.0555C24.8652 14.3823 25.0321 14.7698 25.3616 14.8708C25.6277 14.9525 25.9114 14.8176 26.0283 14.553L26.8236 12.7522C27.6357 10.9219 29.8123 9.95578 31.3884 10.7254C31.9355 10.9925 32.3312 11.4397 32.5316 12.018C32.7614 12.6811 32.7082 13.4521 32.3798 14.1929L31.5533 16.0644C31.409 16.3911 31.5759 16.7787 31.9054 16.8796C32.1705 16.9609 32.4527 16.8265 32.5691 16.563L33.3986 14.6904C34.3014 12.6517 33.6108 10.5083 31.8615 9.65411V9.65411ZM22.5151 12.8975C22.7822 12.9797 23.067 12.8453 23.1843 12.5796L24.2403 10.1886C25.0513 8.35773 27.229 7.39214 28.8051 8.16171L28.9631 8.25837C29.4698 8.13728 29.9851 8.08938 30.4965 8.1177C30.1818 7.69448 29.7795 7.33522 29.2782 7.09046C27.1428 6.04778 24.2972 7.26935 23.2235 9.68946L22.1661 12.0837C22.0213 12.4115 22.1886 12.7953 22.5151 12.8975V12.8975Z" fill="#F9F9F9"/>
</g>
<g clip-path="url(#clip1)">
<path d="M14.5887 10.5404H10.9596V6.72449H8.54023V10.5404H4.91113V13.0844H8.54023V16.9003H10.9596V13.0844H14.5887V10.5404Z" fill="#F9F9F9"/>
</g>
<rect x="0.5" y="0.5" width="39.923" height="39.923" stroke="#F9F9F9"/>
<defs>
<clipPath id="clip0">
<rect width="27.2104" height="28.1057" fill="white" transform="matrix(0.898598 0.438773 -0.403996 0.914761 18.1089 1.63672)"/>
</clipPath>
<clipPath id="clip1">
<rect width="9.67758" height="10.1758" fill="white" transform="translate(4.91113 6.72449)"/>
</clipPath>
</defs>
</svg>
