<svg width="42" height="42" viewBox="0 0 42 42" fill="none" xmlns="http://www.w3.org/2000/svg">
<rect x="0.5" y="0.638672" width="40.1413" height="40.1413" stroke="#F9F9F9"/>
<g clip-path="url(#clip0)">
<path d="M36.2044 8.98413L32.0419 24.2478L26.4021 19.2255L31.8139 13.5127L24.5599 18.5272L19.5532 17.3104L36.2044 8.98413ZM25.7975 20.5478V25.9206L28.0579 22.562L25.7975 20.5478ZM20.4091 27.953C19.5675 28.4806 18.6999 28.9496 17.8218 29.3457L18.4627 30.8882C19.3421 30.4935 20.2124 30.031 21.0579 29.5125L20.4091 27.953ZM24.4791 24.8158C23.7105 25.5728 22.7034 26.3414 21.8188 26.9915L22.4767 28.5731C23.1099 28.1224 23.8928 27.5856 24.4791 27.0801V24.8158ZM16.9124 31.5084C15.2266 32.1037 13.6293 32.4346 12.1663 32.4346C8.16797 32.4346 4.93701 30.1065 4.93701 26.1421C4.93701 24.3859 5.53239 22.8707 6.66453 21.723C7.96734 20.4202 9.68053 19.7831 11.8771 19.7831C15.1771 19.7831 17.5286 21.908 17.5286 24.8679C17.5286 26.1994 17.0479 27.4175 16.1828 28.2813C15.4481 29.0174 14.4827 29.4434 13.5355 29.4434C12.9818 29.4434 12.5298 29.231 12.3161 28.891C12.2458 28.7777 12.2314 28.706 12.1884 28.452C11.6504 29.0747 11.0837 29.3444 10.2902 29.3444C8.88842 29.3444 7.996 28.2969 7.996 26.6815C7.996 24.2882 9.56719 22.3053 11.451 22.3053C12.2445 22.3053 12.6405 22.5034 13.0235 23.0987L13.1642 22.6037H14.8383C14.7537 22.8864 14.4983 23.7501 14.428 24.0628C13.5082 27.4657 13.5225 27.325 13.5225 27.6325C13.5225 28.2149 14.325 27.9843 14.7823 27.6182C15.4767 27.0801 15.9301 26.0314 15.9301 24.9409C15.9301 23.6381 15.3204 22.5047 14.3016 21.8676C13.6645 21.4859 12.7708 21.2722 11.7663 21.2722C8.77769 21.2722 6.68147 23.2551 6.68147 26.06C6.68147 30.5495 11.4054 31.6126 16.2714 29.9632L16.9124 31.5084ZM12.4868 24.6269C12.4868 24.0459 12.1611 23.6498 11.6647 23.6498C11.1266 23.6498 10.6303 24.0029 10.2772 24.6699C9.93718 25.307 9.71049 26.1421 9.71049 26.7948C9.71049 27.5452 9.9932 27.9413 10.5326 27.9413C11.055 27.9413 11.5514 27.5309 11.9188 26.8078C12.2601 26.1421 12.4868 25.2783 12.4868 24.6269Z" fill="#F9F9F9"/>
</g>
<defs>
<clipPath id="clip0">
<rect width="31.2674" height="31.2674" fill="white" transform="translate(4.93701 5.07568)"/>
</clipPath>
</defs>
</svg>
