<svg width="42" height="42" viewBox="0 0 42 42" fill="none" xmlns="http://www.w3.org/2000/svg">
<rect x="0.5" y="0.779907" width="40.1413" height="40.1413" stroke="#F9F9F9"/>
<g clip-path="url(#clip0)">
<path d="M10.2294 26.8773C10.0144 26.2259 10.2789 25.6774 11.084 25.3855L15.3168 23.8808L15.1422 25.2201C15.0419 25.9874 15.008 26.6623 15.0263 27.2694C14.7006 27.371 13.5997 27.7111 12.4923 27.9886C11.3576 28.2726 10.4886 27.6628 10.2294 26.8773ZM12.5028 29.3734C11.9022 29.591 11.7054 29.9988 11.8657 30.486C12.0572 31.071 12.706 31.5257 13.5515 31.3133C14.341 31.1166 15.3859 30.7974 15.7676 30.6788C15.5031 30.0209 15.2751 29.3304 15.1435 28.5175L12.5028 29.3734ZM12.7542 15.6392H16.1975L16.3643 14.3364H12.7542V15.6392ZM33.5991 7.82241V19.5477C33.5991 20.986 32.4318 22.1533 30.9935 22.1533H28.4022L28.4217 22.1793C28.3814 22.7395 28.285 23.3597 28.1325 24.0775C27.545 26.8707 25.9998 30.7505 27.0512 35.0445C24.0391 35.5083 22.2946 35.7259 19.2448 36.4841C18.8891 31.1922 16.2926 30.0444 16.8945 25.4494C17.6006 20.0597 17.9941 17.0319 18.4527 13.3919C18.596 12.2467 19.405 11.6891 20.1945 11.6891C21.0166 11.6891 21.8178 12.2936 21.8256 13.4688C21.853 17.7719 21.9663 22.0582 22.2477 23.1004C22.438 23.8039 23.6639 23.9316 23.6639 22.4334L23.6613 19.5464H30.3421C30.7017 19.5464 30.9935 19.2545 30.9935 18.895V13.0336H23.7395C23.5349 11.1302 22.0849 9.73623 20.1945 9.73623H20.1932C18.3172 9.73623 16.8346 11.0885 16.5375 13.0336H10.1486V18.8963C10.1486 19.2558 10.4404 19.5477 10.8 19.5477H15.6946L15.3546 22.1533H10.1486C8.71028 22.1533 7.54297 20.986 7.54297 19.5477V7.82241C7.54297 6.38411 8.71028 5.2168 10.1486 5.2168H30.9935C32.4318 5.2168 33.5991 6.38411 33.5991 7.82241ZM30.9935 8.47381C30.9935 8.11424 30.7017 7.82241 30.3421 7.82241H10.8C10.4404 7.82241 10.1486 8.11424 10.1486 8.47381V9.12522H30.9935V8.47381ZM12.7542 18.2449H15.8627L16.0308 16.9421H12.7542V18.2449ZM28.3879 14.3364H24.4795V15.6392H28.3879V14.3364Z" fill="#F9F9F9"/>
</g>
<defs>
<clipPath id="clip0">
<rect width="31.2674" height="31.2674" fill="white" transform="translate(4.93701 5.2168)"/>
</clipPath>
</defs>
</svg>
