<svg width="40" height="40" viewBox="0 0 40 40" fill="none" xmlns="http://www.w3.org/2000/svg">
<g clip-path="url(#clip0)">
<path d="M22.7766 21.5832L26.0332 16.6094L25.4723 16.1078L20.9346 19.9363C20.1007 19.7659 19.2026 20.0204 18.5947 20.6998C17.6855 21.7166 17.7732 23.2794 18.7912 24.1887C19.8091 25.0979 21.3707 25.0102 22.28 23.9922C22.8878 23.3128 23.0398 22.3924 22.7766 21.5832ZM17.9461 8.43088V5.10266H22.8878V8.43088C21.11 8.13068 19.6856 8.13685 17.9461 8.43088ZM28.8808 10.9808L30.6191 9.24255L32.366 10.9894L30.734 12.6214C30.1632 12.0235 29.543 11.4762 28.8808 10.9808ZM5.59193 16.2214H15.4753V18.6923H5.59193V16.2214ZM3.12109 21.1631H13.0045V23.634H3.12109V21.1631ZM6.82735 26.1048H15.4753V28.5756H6.82735V26.1048ZM32.7712 22.3985C32.7712 29.2218 27.2402 34.7527 20.417 34.7527C16.9702 34.7527 13.8692 33.3258 11.6319 31.0465H15.6841C17.09 31.826 18.6973 32.2819 20.417 32.2819C25.8664 32.2819 30.3003 27.848 30.3003 22.3985C30.3003 16.9491 25.8664 12.5152 20.417 12.5152C18.6973 12.5152 17.09 12.9711 15.6841 13.7506H11.6319C13.8692 11.4713 16.9702 10.0443 20.417 10.0443C27.2402 10.0443 32.7712 15.5753 32.7712 22.3985Z" fill="#F9F9F9"/>
</g>
<rect x="0.5" y="0.921143" width="38.0133" height="38.0133" stroke="#F9F9F9"/>
<defs>
<clipPath id="clip0">
<rect width="29.6501" height="29.6501" fill="white" transform="translate(3.12109 5.10266)"/>
</clipPath>
</defs>
</svg>
