<svg width="40" height="40" viewBox="0 0 40 40" fill="none" xmlns="http://www.w3.org/2000/svg">
<rect x="0.5" y="0.5" width="38.0133" height="38.0133" stroke="#F9F9F9"/>
<g clip-path="url(#clip0)">
<path d="M26.109 26.6319L25.663 26.8855V24.6526L26.109 24.399V26.6319ZM29.7802 22.3092L29.3354 22.5628V24.7957L29.7802 24.5408V22.3092V22.3092ZM34.3317 12.4233V27.3874L21.6524 34.5919L8.32286 28.104V13.1398L21.0243 5.98218L34.3317 12.4233V12.4233ZM18.9267 10.1384L28.0584 14.2998L30.2691 13.1073L21.0191 8.95499L18.9267 10.1384V10.1384ZM20.0268 20.1557L10.9237 15.9423V26.5929L20.0268 30.6867V20.1557V20.1557ZM23.9555 16.5028L15.0891 12.2893L12.4297 13.8082L21.3494 17.9189L23.9555 16.5028ZM31.7308 15.2764L29.1299 16.6783V20.3013L25.2286 22.4965V18.7824L22.6277 20.1843V31.0586L31.7308 25.8763V15.2764V15.2764ZM25.3496 24.8321L24.8957 25.0909V27.3185L25.3496 27.0649V24.8321V24.8321ZM27.1767 23.7917L26.7293 24.0466V26.2795L27.1767 26.0246V23.7917V23.7917ZM27.9231 23.3665L27.4771 23.6201V25.8529L27.9231 25.5993V23.3665ZM28.6826 22.9347L28.2274 23.1935V25.4264L28.6826 25.1676V22.9347ZM7.02242 17.6862H4.42154V18.9866H7.02242V17.6862ZM7.02242 20.287H3.12109V21.5875H7.02242V20.287ZM7.02242 22.8879H4.42154V24.1884H7.02242V22.8879Z" fill="#F9F9F9"/>
</g>
<defs>
<clipPath id="clip0">
<rect width="31.2106" height="31.2106" fill="white" transform="translate(3.12109 4.6817)"/>
</clipPath>
</defs>
</svg>
