<svg width="54" height="54" viewBox="0 0 54 54" fill="none" xmlns="http://www.w3.org/2000/svg">
<g clip-path="url(#clip0)">
<path d="M11.5951 40.742L8.65129 35.3411L18.2871 13.5229L21.7487 17.7516L11.5951 40.742ZM24.5979 19.3445L14.3344 42.5839L34.6567 48.8573L44.8666 25.7393L24.5979 19.3445ZM38.6552 11.4993C35.5909 10.0031 31.511 11.7559 29.9708 15.2271L28.8273 17.8123C28.6204 18.2809 28.8598 18.8368 29.3323 18.9816C29.714 19.0988 30.121 18.9053 30.2886 18.5258L31.4293 15.9429C32.594 13.3177 35.716 11.932 37.9766 13.0358C38.7613 13.419 39.3289 14.0604 39.6162 14.8899C39.9459 15.8409 39.8696 16.9468 39.3985 18.0093L38.2131 20.6936C38.0061 21.1622 38.2456 21.7181 38.7181 21.8629C39.0983 21.9794 39.5031 21.7867 39.67 21.4087L40.8598 18.7229C42.1547 15.7988 41.1641 12.7244 38.6552 11.4993V11.4993ZM25.2497 16.1512C25.6328 16.2692 26.0412 16.0764 26.2095 15.6954L27.7241 12.2659C28.8874 9.63995 32.0108 8.255 34.2714 9.35881L34.4979 9.49744C35.2248 9.32376 35.9639 9.25506 36.6974 9.29567C36.246 8.68865 35.6689 8.17337 34.95 7.82232C31.8872 6.3268 27.8058 8.0789 26.2657 11.55L24.749 14.9841C24.5414 15.4543 24.7814 16.0048 25.2497 16.1512V16.1512Z" fill="#E7E7E7"/>
</g>
<g clip-path="url(#clip1)">
<path d="M13.8805 12.7705H8.67532V7.29736H5.20519V12.7705H0V16.4193H5.20519V21.8925H8.67532V16.4193H13.8805V12.7705Z" fill="#E7E7E7"/>
</g>
<defs>
<clipPath id="clip0">
<rect width="39.0277" height="40.3119" fill="white" transform="matrix(0.898598 0.438773 -0.403996 0.914761 18.9302 0)"/>
</clipPath>
<clipPath id="clip1">
<rect width="13.8805" height="14.5951" fill="white" transform="translate(0 7.29736)"/>
</clipPath>
</defs>
</svg>
