<svg width="12" height="14" viewBox="0 0 12 14" fill="none" xmlns="http://www.w3.org/2000/svg">
<path d="M11.9947 5.59534C11.9947 3.77301 11.5939 2.38888 10.7289 1.43229C9.86386 0.475696 8.12331 7.09905e-05 6.50934 7.09905e-05C4.88927 -0.00635331 3.2966 0.423357 1.89422 1.24525C1.85033 1.27155 1.81405 1.30911 1.78905 1.35414C1.76405 1.39918 1.7512 1.4501 1.75181 1.50176L1.87313 3.51115C1.8839 3.57366 1.91088 3.63214 1.9513 3.68061C1.99172 3.72909 2.04412 3.76581 2.10315 3.78701C2.16218 3.80822 2.22571 3.81314 2.28724 3.80129C2.34877 3.78944 2.40608 3.76124 2.45331 3.71956C4.43122 2.48508 6.8047 2.25528 8.01254 2.8752C8.34484 3.06924 8.61864 3.3514 8.80451 3.69132C8.99037 4.03124 9.08127 4.41607 9.06743 4.80442V5.09834H5.77092C4.3521 5.09834 0.00598364 5.63275 0.00598364 9.67824V9.72099C-0.0278355 10.3366 0.0820535 10.9516 0.326735 11.5162C0.571416 12.0807 0.943998 12.5789 1.41425 12.9702C2.44144 13.7034 3.68311 14.0631 4.93756 13.9909H11.6097C11.7132 13.9909 11.8125 13.9493 11.8857 13.8751C11.9589 13.8009 12 13.7003 12 13.5955V5.57931L11.9947 5.59534ZM9.06743 11.522H5.12744C4.62192 11.5073 4.13344 11.3336 3.72972 11.0249C3.52205 10.8772 3.35334 10.6801 3.23839 10.4509C3.12344 10.2217 3.06576 9.96736 3.07042 9.7103C3.07042 8.98885 3.55039 7.54594 5.95025 7.54594H9.06743V11.522Z" fill="#FF5A00"/>
</svg>
