<svg width="17" height="17" viewBox="0 0 17 17" fill="none" xmlns="http://www.w3.org/2000/svg">
<path d="M13.8074 7.00755C13.8074 5.07132 13.4169 3.60069 12.5745 2.58431C11.732 1.56793 10.0368 1.06258 8.46482 1.06258C6.88695 1.05575 5.33575 1.51232 3.96989 2.38557C3.92714 2.41352 3.89181 2.45343 3.86746 2.50128C3.84311 2.54913 3.8306 2.60323 3.83119 2.65812L3.94935 4.79309C3.95984 4.85951 3.98612 4.92165 4.02548 4.97315C4.06485 5.02466 4.11589 5.06367 4.17338 5.0862C4.23087 5.10873 4.29275 5.11397 4.35268 5.10137C4.4126 5.08878 4.46842 5.05881 4.51442 5.01454C6.44082 3.7029 8.7525 3.45874 9.92888 4.1174C10.2525 4.32357 10.5192 4.62336 10.7002 4.98453C10.8812 5.34569 10.9698 5.75457 10.9563 6.16719V6.47949H7.74563C6.36376 6.47949 2.13083 7.0473 2.13083 11.3456V11.3911C2.09789 12.0451 2.20492 12.6986 2.44323 13.2984C2.68154 13.8983 3.04442 14.4275 3.50242 14.8433C4.50286 15.6223 5.7122 16.0045 6.93398 15.9279H13.4324C13.5332 15.9279 13.6299 15.8836 13.7012 15.8048C13.7724 15.726 13.8125 15.6191 13.8125 15.5077V6.99052L13.8074 7.00755ZM10.9563 13.3046H7.11891C6.62656 13.289 6.1508 13.1044 5.75759 12.7765C5.55533 12.6195 5.39101 12.4101 5.27906 12.1665C5.1671 11.923 5.11093 11.6528 5.11546 11.3797C5.11546 10.6132 5.58293 9.08006 7.92029 9.08006H10.9563V13.3046Z" fill="#FF5A00"/>
</svg>
