<svg width="1490" height="281" viewBox="0 0 1490 281" fill="none" xmlns="http://www.w3.org/2000/svg">
<path d="M178.776 202.672C181.656 207.088 184.632 210.64 187.704 213.328C190.776 216.016 194.712 218.32 199.512 220.24V226C186.072 225.424 171.096 225.136 154.584 225.136C141.912 225.136 129.72 225.424 118.008 226V220.24C123.384 219.856 127.224 219.28 129.528 218.512C132.024 217.744 133.272 216.4 133.272 214.48C133.272 212.944 132.216 210.544 130.104 207.28L88.344 139.6C84.504 133.456 81.24 129.328 78.552 127.216C76.056 125.104 72.6 123.856 68.184 123.472V195.472C68.184 202.768 68.664 208.048 69.624 211.312C70.776 214.576 72.792 216.784 75.672 217.936C78.552 219.088 83.256 219.856 89.784 220.24V226C79.416 225.424 64.92 225.136 46.296 225.136C25.752 225.136 10.584 225.424 0.792001 226V220.24C7.128 219.856 11.736 219.088 14.616 217.936C17.688 216.784 19.704 214.576 20.664 211.312C21.816 208.048 22.392 202.768 22.392 195.472V52.624C22.392 45.328 21.816 40.048 20.664 36.784C19.704 33.52 17.688 31.312 14.616 30.16C11.736 29.008 7.128 28.24 0.792001 27.856V22.096C10.584 22.672 25.752 22.96 46.296 22.96C64.92 22.96 79.416 22.672 89.784 22.096V27.856C83.256 28.24 78.552 29.008 75.672 30.16C72.792 31.312 70.776 33.52 69.624 36.784C68.664 40.048 68.184 45.328 68.184 52.624V117.424C75.864 117.04 82.872 114.736 89.208 110.512C95.544 106.288 102.744 99.568 110.808 90.352L127.8 69.904C136.632 59.728 141.048 50.8 141.048 43.12C141.048 38.512 139.128 34.864 135.288 32.176C131.64 29.488 126.456 27.952 119.736 27.568V22.096C133.752 22.672 147.96 22.96 162.36 22.96C173.496 22.96 182.52 22.672 189.432 22.096V27.568C174.072 31.216 160.152 40.432 147.672 55.216L111.672 98.128L178.776 202.672ZM344.117 194.608C344.117 203.44 345.461 209.872 348.149 213.904C351.029 217.936 355.829 219.952 362.549 219.952V226C356.597 225.424 350.645 225.136 344.693 225.136C327.989 225.136 313.973 226.48 302.645 229.168V203.248C293.813 221.104 278.357 230.032 256.277 230.032C241.877 230.032 231.413 226.288 224.885 218.8C221.813 215.152 219.509 210.448 217.973 204.688C216.629 198.736 215.957 190.96 215.957 181.36V108.496C215.957 99.664 214.517 93.232 211.637 89.2C208.949 85.168 204.245 83.152 197.525 83.152V77.104C203.477 77.68 209.429 77.968 215.381 77.968C232.085 77.968 246.101 76.624 257.429 73.936V193.168C257.429 201.232 258.581 207.28 260.885 211.312C263.381 215.344 267.989 217.36 274.709 217.36C282.389 217.36 288.917 214.192 294.293 207.856C299.861 201.328 302.645 193.36 302.645 183.952V108.496C302.645 99.664 301.205 93.232 298.325 89.2C295.637 85.168 290.933 83.152 284.213 83.152V77.104C290.357 77.68 296.309 77.968 302.069 77.968C318.773 77.968 332.789 76.624 344.117 73.936V194.608ZM478.742 73.072C488.726 73.072 497.558 75.76 505.238 81.136C513.11 86.512 519.254 94.576 523.67 105.328C528.086 116.08 530.294 129.232 530.294 144.784C530.294 172.24 524.246 193.36 512.15 208.144C500.246 222.736 484.022 230.032 463.478 230.032C457.718 230.032 452.246 229.264 447.062 227.728C442.07 226.192 437.75 223.888 434.102 220.816V249.616C434.102 258.064 436.214 263.92 440.438 267.184C444.662 270.448 451.19 272.08 460.022 272.08V278.128L452.246 277.84C430.934 277.264 417.398 276.976 411.638 276.976C405.878 276.976 393.782 277.36 375.35 278.128V272.08C381.686 272.08 386.102 270.64 388.598 267.76C391.286 265.072 392.63 259.984 392.63 252.496V108.496C392.63 99.664 391.19 93.232 388.31 89.2C385.622 85.168 380.918 83.152 374.198 83.152V77.104C380.342 77.68 386.294 77.968 392.054 77.968C408.758 77.968 422.774 76.624 434.102 73.936V100.432C438.134 91.6 443.99 84.88 451.67 80.272C459.35 75.472 468.374 73.072 478.742 73.072ZM452.246 222.256C464.534 222.256 473.366 216.208 478.742 204.112C484.118 191.824 486.806 173.968 486.806 150.544C486.806 127.12 484.598 110.416 480.182 100.432C475.958 90.448 469.814 85.456 461.75 85.456C455.222 85.456 449.366 87.664 444.182 92.08C439.19 96.496 435.83 102.64 434.102 110.512V214.48C438.71 219.664 444.758 222.256 452.246 222.256ZM691.461 194.608C691.461 203.44 692.805 209.872 695.493 213.904C698.373 217.936 703.173 219.952 709.893 219.952V226C703.941 225.424 697.989 225.136 692.037 225.136C675.333 225.136 661.317 226.48 649.989 229.168V203.248C641.157 221.104 625.701 230.032 603.621 230.032C589.221 230.032 578.757 226.288 572.229 218.8C569.157 215.152 566.853 210.448 565.317 204.688C563.973 198.736 563.301 190.96 563.301 181.36V108.496C563.301 99.664 561.861 93.232 558.981 89.2C556.293 85.168 551.589 83.152 544.869 83.152V77.104C550.821 77.68 556.773 77.968 562.725 77.968C579.429 77.968 593.445 76.624 604.773 73.936V193.168C604.773 201.232 605.925 207.28 608.229 211.312C610.725 215.344 615.333 217.36 622.053 217.36C629.733 217.36 636.261 214.192 641.637 207.856C647.205 201.328 649.989 193.36 649.989 183.952V108.496C649.989 99.664 648.549 93.232 645.669 89.2C642.981 85.168 638.277 83.152 631.557 83.152V77.104C637.701 77.68 643.653 77.968 649.413 77.968C666.117 77.968 680.133 76.624 691.461 73.936V194.608ZM709.157 274.96C718.757 274.576 726.245 270.736 731.621 263.44C737.189 256.144 739.973 245.392 739.973 231.184V108.496C739.973 99.664 738.533 93.232 735.653 89.2C732.965 85.168 728.261 83.152 721.541 83.152V77.104C727.685 77.68 733.637 77.968 739.397 77.968C756.101 77.968 770.117 76.624 781.445 73.936V198.928C781.445 215.056 779.813 228.304 776.549 238.672C773.477 249.04 768.197 257.68 760.709 264.592C749.381 274.96 732.197 280.144 709.157 280.144V274.96ZM757.541 2.79999C765.605 2.79999 771.941 4.81599 776.549 8.848C781.349 12.688 783.749 18.064 783.749 24.976C783.749 31.888 781.349 37.36 776.549 41.392C771.941 45.232 765.605 47.152 757.541 47.152C749.477 47.152 743.045 45.232 738.245 41.392C733.637 37.36 731.333 31.888 731.333 24.976C731.333 18.064 733.637 12.688 738.245 8.848C743.045 4.81599 749.477 2.79999 757.541 2.79999ZM892.865 206.416C908.609 206.416 921.281 198.736 930.881 183.376L936.065 185.104C932.225 197.584 925.313 208.24 915.329 217.072C905.537 225.712 893.249 230.032 878.465 230.032C858.113 230.032 841.889 223.6 829.793 210.736C817.889 197.68 811.937 178.48 811.937 153.136C811.937 127.216 818.369 107.44 831.233 93.808C844.097 79.984 861.185 73.072 882.497 73.072C918.593 73.072 936.641 94.384 936.641 137.008H855.713C855.521 139.888 855.425 144.4 855.425 150.544C855.425 163.216 857.153 173.776 860.609 182.224C864.257 190.672 868.865 196.816 874.433 200.656C880.193 204.496 886.337 206.416 892.865 206.416ZM880.769 79.12C873.857 79.12 868.097 83.44 863.489 92.08C859.073 100.528 856.289 113.68 855.137 131.536H900.353C900.737 116.368 899.201 103.888 895.745 94.096C892.481 84.112 887.489 79.12 880.769 79.12ZM1183.18 199.216C1183.18 207.088 1184.53 212.56 1187.21 215.632C1190.09 218.512 1194.89 219.952 1201.61 219.952V226C1182.41 225.232 1169.74 224.848 1163.6 224.848C1158.22 224.848 1146.32 225.232 1127.89 226V219.952C1133.07 219.952 1136.62 218.512 1138.54 215.632C1140.65 212.752 1141.71 207.28 1141.71 199.216V109.648C1141.71 101.584 1140.46 95.632 1137.97 91.792C1135.66 87.76 1131.15 85.744 1124.43 85.744C1117.33 85.744 1111.09 88.72 1105.71 94.672C1100.53 100.624 1097.45 107.92 1096.49 116.56V121.744V199.216C1096.49 207.088 1097.65 212.56 1099.95 215.632C1102.45 218.512 1106.86 219.952 1113.2 219.952V226C1094.77 225.232 1082.67 224.848 1076.91 224.848C1071.53 224.848 1059.63 225.232 1041.2 226V219.952C1046.38 219.952 1049.93 218.512 1051.85 215.632C1053.97 212.56 1055.02 207.088 1055.02 199.216V109.648C1055.02 101.584 1053.97 95.632 1051.85 91.792C1049.74 87.76 1045.61 85.744 1039.47 85.744C1031.79 85.744 1025.17 89.008 1019.6 95.536C1014.22 101.872 1011.53 109.744 1011.53 119.152V199.216C1011.53 207.088 1012.49 212.56 1014.41 215.632C1016.53 218.512 1020.17 219.952 1025.36 219.952V226C1008.46 225.232 997.135 224.848 991.375 224.848C985.615 224.848 972.367 225.232 951.631 226V219.952C958.543 219.952 963.343 218.512 966.031 215.632C968.719 212.56 970.063 207.088 970.063 199.216V108.496C970.063 99.664 968.719 93.232 966.031 89.2C963.343 85.168 958.543 83.152 951.631 83.152V77.104C957.775 77.68 963.727 77.968 969.487 77.968C986.575 77.968 1000.59 76.624 1011.53 73.936V99.856C1019.98 82 1034.86 73.072 1056.17 73.072C1070.77 73.072 1081.33 76.816 1087.85 84.304C1091.5 88.144 1093.9 93.904 1095.05 101.584C1100.05 91.216 1106.57 83.92 1114.64 79.696C1122.7 75.28 1132.11 73.072 1142.86 73.072C1157.45 73.072 1168.01 76.816 1174.54 84.304C1177.61 87.76 1179.82 92.464 1181.17 98.416C1182.51 104.368 1183.18 112.144 1183.18 121.744V199.216ZM1327.91 77.968C1337.51 77.968 1344.9 77.68 1350.09 77.104V82.864C1346.06 84.016 1342.41 86.512 1339.14 90.352C1336.07 94 1333.1 99.76 1330.22 107.632L1278.66 252.496C1274.82 262.48 1270.6 269.296 1265.99 272.944C1260.42 277.744 1252.07 280.144 1240.94 280.144C1232.87 280.144 1225.58 278.128 1219.05 274.096C1212.71 270.256 1209.54 264.592 1209.54 257.104C1209.54 251.152 1211.66 246.352 1215.88 242.704C1220.1 239.248 1225.67 237.52 1232.58 237.52C1239.11 237.52 1244.3 239.056 1248.14 242.128C1252.17 245.392 1254.18 249.904 1254.18 255.664C1254.18 259.696 1252.94 263.344 1250.44 266.608C1247.94 270.064 1244.39 272.656 1239.78 274.384C1241.13 274.576 1243.34 274.672 1246.41 274.672C1258.31 274.672 1267.05 267.088 1272.62 251.92L1277.22 238.096L1216.17 99.28C1213.1 92.752 1210.12 88.432 1207.24 86.32C1204.36 84.208 1201.38 83.152 1198.31 83.152V77.104C1210.98 78.256 1224.14 78.832 1237.77 78.832C1249.1 78.832 1262.44 78.256 1277.8 77.104V83.152C1271.66 83.152 1267.05 83.632 1263.98 84.592C1261.1 85.36 1259.66 87.568 1259.66 91.216C1259.66 93.328 1260.33 96.016 1261.67 99.28L1296.81 184.24L1316.68 128.944C1319.75 119.92 1321.29 112.24 1321.29 105.904C1321.29 91.888 1314.18 84.208 1299.98 82.864V77.104C1309 77.68 1318.31 77.968 1327.91 77.968ZM1419.94 0.783981C1440.68 0.783981 1457.38 5.48798 1470.06 14.896C1482.73 24.112 1489.06 36.688 1489.06 52.624C1489.06 68.368 1482.44 81.712 1469.19 92.656C1456.14 103.6 1438.28 111.568 1415.62 116.56V158.608H1409.86V113.968C1424.84 107.44 1434.92 99.76 1440.1 90.928C1445.29 81.904 1447.88 70.96 1447.88 58.096C1447.88 40.624 1444.71 27.664 1438.38 19.216C1432.04 10.768 1423.4 6.54399 1412.46 6.54399C1407.08 6.54399 1402.09 7.21599 1397.48 8.55998C1393.06 9.71199 1389.7 11.536 1387.4 14.032C1398.15 17.296 1403.53 24.304 1403.53 35.056C1403.53 41.008 1401.42 46 1397.19 50.032C1392.97 53.872 1387.5 55.792 1380.78 55.792C1374.82 55.792 1369.93 53.872 1366.09 50.032C1362.25 46.192 1360.33 41.488 1360.33 35.92C1360.33 30.352 1361.77 25.648 1364.65 21.808C1367.53 17.776 1371.56 14.128 1376.74 10.864C1388.07 4.14398 1402.47 0.783981 1419.94 0.783981ZM1413.03 185.68C1420.52 185.68 1426.47 187.696 1430.89 191.728C1435.3 195.568 1437.51 200.944 1437.51 207.856C1437.51 214.768 1435.3 220.24 1430.89 224.272C1426.47 228.112 1420.52 230.032 1413.03 230.032C1405.54 230.032 1399.59 228.112 1395.18 224.272C1390.76 220.24 1388.55 214.768 1388.55 207.856C1388.55 200.944 1390.76 195.568 1395.18 191.728C1399.59 187.696 1405.54 185.68 1413.03 185.68Z" fill="#E7E7E7"/>
</svg>
