<svg width="26" height="26" viewBox="0 0 26 26" fill="none" xmlns="http://www.w3.org/2000/svg">
<g clip-path="url(#clip0)">
<path d="M6.5 25.7075L3.25 23.4087V8.02533L6.5 9.49758V25.7075ZM8.66667 9.61458V26L22.75 23.8832V7.58333L8.66667 9.61458ZM15.1266 1.08333C12.8548 1.08333 10.8388 3.25542 10.8344 5.70483L10.8333 7.52808C10.8333 7.8585 11.1291 8.11308 11.4563 8.06325C11.7206 8.02317 11.9167 7.79567 11.9167 7.52808V5.707C11.9199 3.8545 13.4507 2.16667 15.1266 2.16667C15.7083 2.16667 16.2273 2.37792 16.6259 2.77767C17.0831 3.23592 17.3344 3.89892 17.3333 4.64858V6.54117C17.3333 6.87158 17.6291 7.12617 17.9563 7.07633C18.2195 7.03625 18.4145 6.80983 18.4145 6.54333L18.4167 4.64858C18.4188 2.58592 16.9867 1.08333 15.1266 1.08333V1.08333ZM8.20408 7.57792C8.4695 7.53783 8.66667 7.31033 8.66667 7.04167V4.62367C8.66883 2.77117 10.2007 1.08333 11.8766 1.08333L12.0521 1.09958C12.4486 0.793 12.8808 0.543833 13.3391 0.359667C12.9003 0.135417 12.4096 0 11.8766 0C9.60592 0 7.58875 2.17208 7.58442 4.6215V7.04275C7.58442 7.37425 7.87908 7.62558 8.20408 7.57792V7.57792Z" fill="#E7E7E7"/>
</g>
<defs>
<clipPath id="clip0">
<rect width="26" height="26" fill="white"/>
</clipPath>
</defs>
</svg>
