<svg width="15" height="15" viewBox="0 0 15 15" fill="none" xmlns="http://www.w3.org/2000/svg">
<path d="M10 3.75V2.5C10 1.11937 8.88063 0 7.5 0C6.11937 0 5 1.11937 5 2.5V3.75H1.875V15H13.125V3.75H10ZM5.625 2.5C5.625 1.46625 6.46625 0.625 7.5 0.625C8.53375 0.625 9.375 1.46625 9.375 2.5V3.75H5.625V2.5ZM11.875 13.75H3.125V5H5V5.9375C5 6.11 5.14 6.25 5.3125 6.25C5.485 6.25 5.625 6.11 5.625 5.9375V5H9.375V5.9375C9.375 6.11 9.515 6.25 9.6875 6.25C9.86 6.25 10 6.11 10 5.9375V5H11.875V13.75Z" fill="#2D2D2D"/>
</svg>
