<svg width="26" height="26" viewBox="0 0 26 26" fill="none" xmlns="http://www.w3.org/2000/svg">
<path d="M13 0C5.82075 0 0 5.82075 0 13C0 20.1793 5.82075 26 13 26C20.1793 26 26 20.1793 26 13C26 5.82075 20.1793 0 13 0ZM12.9989 6.22917C13.7464 6.22917 14.3542 6.83583 14.3542 7.58333C14.3542 8.33083 13.7464 8.9375 12.9989 8.9375C12.2514 8.9375 11.6458 8.33083 11.6458 7.58333C11.6458 6.83583 12.2514 6.22917 12.9989 6.22917ZM15.1667 19.5H10.8333V18.4167C11.3577 18.2228 11.9167 18.1989 11.9167 17.6204V12.7812C11.9167 12.2027 11.3577 12.1117 10.8333 11.9178V10.8344H14.0833V17.6215C14.0833 18.2011 14.6434 18.226 15.1667 18.4178V19.5Z" fill="#2D2D2D"/>
</svg>
