<svg width="26" height="26" viewBox="0 0 26 26" fill="none" xmlns="http://www.w3.org/2000/svg">
<path d="M13.0455 25.6187C4.58142 25.6187 0 20.3363 0 13.5168C0 6.22918 5.15883 0.381348 14.3823 0.381348C21.1142 0.381348 26 4.75585 26 10.7824C26 20.2204 14.8092 22.7121 15.3703 17.3279C14.6012 18.5283 13.3618 19.8781 10.9796 19.8781C8.25392 19.8781 6.55958 17.8826 6.55958 14.6705C6.55958 9.85618 9.724 5.78826 13.4702 5.78826C15.2674 5.78826 16.5035 6.73726 17.0203 8.19435L17.5229 6.42635H20.0558C19.7914 7.32768 17.5413 15.6639 17.5413 15.6639C16.8393 18.5521 19.0038 18.603 20.9235 17.069C24.5299 14.274 24.7163 6.96476 19.8423 3.91626C14.6196 0.784348 2.73108 2.72243 2.73108 13.3337C2.73108 19.4123 7.01025 23.4964 13.3792 23.4964C17.1015 23.4964 19.383 22.4889 21.2821 21.3861L22.5572 23.2256C20.7036 24.2721 17.7244 25.6187 13.0455 25.6187ZM10.5062 10.1216C9.73158 11.5733 9.23108 13.4539 9.23108 14.9143C9.23108 18.8251 13.0466 18.85 14.9208 15.1732C15.6921 13.663 16.1893 11.7379 16.1893 10.2668C16.1893 7.10668 12.4031 6.5466 10.5062 10.1216V10.1216Z" fill="#2D2D2D"/>
</svg>
