<svg width="23" height="23" viewBox="0 0 23 23" fill="none" xmlns="http://www.w3.org/2000/svg">
<g clip-path="url(#clip0)">
<path d="M4.93833 17.353L3.68447 15.0526L7.7886 5.7597L9.26298 7.56078L4.93833 17.353ZM10.4765 8.23927L6.10507 18.1375L14.7609 20.8095L19.1095 10.9629L10.4765 8.23927ZM16.4639 4.8978C15.1588 4.26052 13.421 5.00709 12.765 6.48554L12.278 7.58664C12.1898 7.78624 12.2918 8.023 12.4931 8.08467C12.6556 8.13461 12.829 8.05219 12.9004 7.89054L13.3862 6.79044C13.8823 5.67228 15.212 5.08209 16.1749 5.55223C16.5091 5.71543 16.7509 5.98861 16.8733 6.34193C17.0136 6.747 16.9812 7.21802 16.7805 7.67058L16.2756 8.81387C16.1875 9.01347 16.2894 9.25023 16.4907 9.3119C16.6526 9.36154 16.8251 9.27947 16.8962 9.11848L17.4029 7.97448C17.9545 6.72906 17.5325 5.4196 16.4639 4.8978V4.8978ZM10.7541 6.87917C10.9173 6.92941 11.0913 6.84729 11.163 6.68499L11.8081 5.22431C12.3035 4.10584 13.6339 3.51595 14.5967 3.98609L14.6932 4.04514C15.0028 3.97117 15.3176 3.9419 15.63 3.9592C15.4378 3.70065 15.192 3.48118 14.8858 3.33166C13.5812 2.69468 11.8429 3.44095 11.1869 4.9194L10.5409 6.38205C10.4525 6.5823 10.5547 6.81679 10.7541 6.87917V6.87917Z" fill="#2D2D2D"/>
</g>
<g clip-path="url(#clip1)">
<path d="M5.91207 5.43929H3.69504V3.10812H2.21702V5.43929H0V6.9934H2.21702V9.32456H3.69504V6.9934H5.91207V5.43929Z" fill="#2D2D2D"/>
</g>
<defs>
<clipPath id="clip0">
<rect width="16.6229" height="17.1699" fill="white" transform="matrix(0.898598 0.438773 -0.403996 0.914761 8.0625 -9.15527e-05)"/>
</clipPath>
<clipPath id="clip1">
<rect width="5.91207" height="6.21644" fill="white" transform="translate(0 3.10812)"/>
</clipPath>
</defs>
</svg>
