<svg width="19" height="19" viewBox="0 0 19 19" fill="none" xmlns="http://www.w3.org/2000/svg">
<path d="M3.21591 13.1622C3.08529 12.7664 3.246 12.4331 3.73525 12.2558L6.30737 11.3414L6.20129 12.1553C6.14033 12.6215 6.11975 13.0316 6.13083 13.4005C5.93291 13.4623 5.26395 13.6689 4.59104 13.8375C3.9015 14.0101 3.37345 13.6396 3.21591 13.1622V13.1622ZM4.59737 14.6791C4.23241 14.8113 4.11287 15.0591 4.21025 15.3552C4.32662 15.7106 4.72087 15.9869 5.23466 15.8579C5.71441 15.7383 6.34933 15.5444 6.58129 15.4723C6.42058 15.0725 6.28204 14.653 6.20208 14.159L4.59737 14.6791V14.6791ZM4.75016 6.33333H6.84254L6.94387 5.54167H4.75016V6.33333V6.33333ZM17.4168 1.58333V8.70833C17.4168 9.58233 16.7075 10.2917 15.8335 10.2917H14.2589L14.2707 10.3075C14.2462 10.6479 14.1876 11.0248 14.095 11.461C13.738 13.1583 12.799 15.5159 13.4379 18.1252C11.6076 18.407 10.5475 18.5393 8.69425 19C8.47812 15.7843 6.90033 15.0868 7.26608 12.2946C7.69516 9.01946 7.93425 7.17963 8.21291 4.96771C8.3 4.27183 8.79162 3.933 9.27137 3.933C9.77091 3.933 10.2578 4.30033 10.2625 5.01442C10.2792 7.62929 10.348 10.2339 10.519 10.8672C10.6346 11.2947 11.3796 11.3723 11.3796 10.4619L11.378 8.70754H15.4377C15.6562 8.70754 15.8335 8.53021 15.8335 8.31171V4.75H11.4255C11.3012 3.59338 10.4201 2.74629 9.27137 2.74629H9.27058C8.13058 2.74629 7.22966 3.56804 7.04916 4.75H3.16683V8.3125C3.16683 8.531 3.34416 8.70833 3.56266 8.70833H6.53695L6.33033 10.2917H3.16683C2.29283 10.2917 1.5835 9.58233 1.5835 8.70833V1.58333C1.5835 0.709333 2.29283 0 3.16683 0H15.8335C16.7075 0 17.4168 0.709333 17.4168 1.58333V1.58333ZM15.8335 1.97917C15.8335 1.76067 15.6562 1.58333 15.4377 1.58333H3.56266C3.34416 1.58333 3.16683 1.76067 3.16683 1.97917V2.375H15.8335V1.97917ZM4.75016 7.91667H6.63908L6.74121 7.125H4.75016V7.91667V7.91667ZM14.2502 5.54167H11.8752V6.33333H14.2502V5.54167Z" fill="#2D2D2D"/>
</svg>
