<svg width="266" height="80" viewBox="0 0 266 80" fill="none" xmlns="http://www.w3.org/2000/svg">
<path d="M29.04 42.792V45H5.856V11.4H28.32V13.608H8.304V26.856H26.208V29.016H8.304V42.792H29.04ZM51.1174 45.24C46.8614 45.24 43.5494 44.008 41.1814 41.544C38.8454 39.08 37.6774 35.48 37.6774 30.744V11.4H40.1254V30.648C40.1254 34.776 41.0694 37.864 42.9574 39.912C44.8454 41.96 47.5814 42.984 51.1654 42.984C54.7174 42.984 57.4374 41.96 59.3254 39.912C61.2134 37.864 62.1574 34.776 62.1574 30.648V11.4H64.6054V30.744C64.6054 35.48 63.4214 39.08 61.0534 41.544C58.6854 44.008 55.3734 45.24 51.1174 45.24ZM88.0759 11.4C92.2999 11.4 95.6119 12.408 98.0119 14.424C100.412 16.408 101.612 19.176 101.612 22.728C101.612 26.248 100.412 29.016 98.0119 31.032C95.6119 33.016 92.2999 34.008 88.0759 34.008H78.4759V45H76.0279V11.4H88.0759ZM88.0759 31.8C91.6599 31.8 94.3959 31.016 96.2839 29.448C98.1719 27.88 99.1159 25.64 99.1159 22.728C99.1159 19.816 98.1719 17.576 96.2839 16.008C94.3959 14.408 91.6599 13.608 88.0759 13.608H78.4759V31.8H88.0759ZM137.232 11.4V45H134.784V29.016H112.32V45H109.872V11.4H112.32V26.856H134.784V11.4H137.232ZM163.221 45.24C159.925 45.24 156.949 44.504 154.293 43.032C151.637 41.528 149.541 39.48 148.005 36.888C146.501 34.296 145.749 31.4 145.749 28.2C145.749 25 146.501 22.104 148.005 19.512C149.541 16.92 151.637 14.888 154.293 13.416C156.949 11.912 159.925 11.16 163.221 11.16C166.517 11.16 169.493 11.896 172.149 13.368C174.805 14.84 176.885 16.872 178.389 19.464C179.925 22.056 180.693 24.968 180.693 28.2C180.693 31.432 179.925 34.344 178.389 36.936C176.885 39.528 174.805 41.56 172.149 43.032C169.493 44.504 166.517 45.24 163.221 45.24ZM163.221 42.984C166.037 42.984 168.581 42.344 170.853 41.064C173.125 39.784 174.917 38.024 176.229 35.784C177.541 33.512 178.197 30.984 178.197 28.2C178.197 25.416 177.541 22.904 176.229 20.664C174.917 18.392 173.125 16.616 170.853 15.336C168.581 14.056 166.037 13.416 163.221 13.416C160.405 13.416 157.845 14.056 155.541 15.336C153.269 16.616 151.477 18.392 150.165 20.664C148.853 22.904 148.197 25.416 148.197 28.2C148.197 30.984 148.853 33.512 150.165 35.784C151.477 38.024 153.269 39.784 155.541 41.064C157.845 42.344 160.405 42.984 163.221 42.984ZM212.512 45L204.496 33.768C203.312 33.928 202.224 34.008 201.232 34.008H191.632V45H189.184V11.4H201.232C205.456 11.4 208.768 12.408 211.168 14.424C213.568 16.408 214.768 19.176 214.768 22.728C214.768 25.384 214.08 27.624 212.704 29.448C211.36 31.24 209.424 32.504 206.896 33.24L215.296 45H212.512ZM201.232 31.848C204.816 31.848 207.552 31.064 209.44 29.496C211.328 27.896 212.272 25.64 212.272 22.728C212.272 19.816 211.328 17.576 209.44 16.008C207.552 14.408 204.816 13.608 201.232 13.608H191.632V31.848H201.232ZM223.731 11.4H226.179V45H223.731V11.4ZM258.671 35.544H239.183L234.911 45H232.271L247.727 11.4H250.175L265.631 45H262.991L258.671 35.544ZM257.759 33.48L248.927 14.088L240.143 33.48H257.759Z" fill="#2D2D2D"/>
<path d="M15.688 67.2V77H15.1L8.422 68.488V77H7.708V67.2H8.31L14.974 75.712V67.2H15.688ZM21.7423 77.056C21.0517 77.056 20.4263 76.8973 19.8663 76.58C19.3157 76.2627 18.8817 75.824 18.5643 75.264C18.247 74.6947 18.0883 74.0553 18.0883 73.346C18.0883 72.6367 18.247 72.002 18.5643 71.442C18.8817 70.8727 19.3157 70.4293 19.8663 70.112C20.4263 69.7947 21.0517 69.636 21.7423 69.636C22.433 69.636 23.0537 69.7947 23.6043 70.112C24.1643 70.4293 24.603 70.8727 24.9203 71.442C25.2377 72.002 25.3963 72.6367 25.3963 73.346C25.3963 74.0553 25.2377 74.6947 24.9203 75.264C24.603 75.824 24.1643 76.2627 23.6043 76.58C23.0537 76.8973 22.433 77.056 21.7423 77.056ZM21.7423 76.426C22.3023 76.426 22.8017 76.2953 23.2403 76.034C23.6883 75.7727 24.0383 75.4087 24.2903 74.942C24.5517 74.4753 24.6823 73.9433 24.6823 73.346C24.6823 72.7487 24.5517 72.2167 24.2903 71.75C24.0383 71.2833 23.6883 70.9193 23.2403 70.658C22.8017 70.3967 22.3023 70.266 21.7423 70.266C21.1823 70.266 20.6783 70.3967 20.2303 70.658C19.7917 70.9193 19.4417 71.2833 19.1803 71.75C18.9283 72.2167 18.8023 72.7487 18.8023 73.346C18.8023 73.9433 18.9283 74.4753 19.1803 74.942C19.4417 75.4087 19.7917 75.7727 20.2303 76.034C20.6783 76.2953 21.1823 76.426 21.7423 76.426ZM29.416 77.056C28.828 77.056 28.268 76.9673 27.736 76.79C27.204 76.6127 26.7887 76.3887 26.49 76.118L26.812 75.558C27.1107 75.81 27.4933 76.02 27.96 76.188C28.436 76.356 28.9307 76.44 29.444 76.44C30.1813 76.44 30.7227 76.3187 31.068 76.076C31.4227 75.8333 31.6 75.4973 31.6 75.068C31.6 74.76 31.502 74.5173 31.306 74.34C31.1193 74.1627 30.886 74.032 30.606 73.948C30.326 73.864 29.9387 73.7753 29.444 73.682C28.8653 73.5793 28.3987 73.4673 28.044 73.346C27.6893 73.2247 27.386 73.0287 27.134 72.758C26.882 72.4873 26.756 72.114 26.756 71.638C26.756 71.0593 26.994 70.5833 27.47 70.21C27.9553 69.8273 28.6413 69.636 29.528 69.636C29.9947 69.636 30.4567 69.7013 30.914 69.832C31.3713 69.9627 31.7447 70.1353 32.034 70.35L31.712 70.91C31.4133 70.6953 31.0727 70.532 30.69 70.42C30.3073 70.308 29.9153 70.252 29.514 70.252C28.8327 70.252 28.3193 70.378 27.974 70.63C27.6287 70.882 27.456 71.2133 27.456 71.624C27.456 71.9507 27.554 72.2073 27.75 72.394C27.946 72.5713 28.184 72.7067 28.464 72.8C28.7533 72.884 29.1547 72.9773 29.668 73.08C30.2373 73.1827 30.6947 73.2947 31.04 73.416C31.3947 73.528 31.6933 73.7147 31.936 73.976C32.1787 74.2373 32.3 74.5967 32.3 75.054C32.3 75.6607 32.048 76.146 31.544 76.51C31.04 76.874 30.3307 77.056 29.416 77.056ZM39.1955 76.398V77H33.3855V76.524L38.2015 70.294H33.4555V69.692H39.1115V70.168L34.2815 76.398H39.1955ZM44.0275 77.056C43.3368 77.056 42.7115 76.8973 42.1515 76.58C41.6008 76.2627 41.1668 75.824 40.8495 75.264C40.5322 74.6947 40.3735 74.0553 40.3735 73.346C40.3735 72.6367 40.5322 72.002 40.8495 71.442C41.1668 70.8727 41.6008 70.4293 42.1515 70.112C42.7115 69.7947 43.3368 69.636 44.0275 69.636C44.7182 69.636 45.3388 69.7947 45.8895 70.112C46.4495 70.4293 46.8882 70.8727 47.2055 71.442C47.5228 72.002 47.6815 72.6367 47.6815 73.346C47.6815 74.0553 47.5228 74.6947 47.2055 75.264C46.8882 75.824 46.4495 76.2627 45.8895 76.58C45.3388 76.8973 44.7182 77.056 44.0275 77.056ZM44.0275 76.426C44.5875 76.426 45.0868 76.2953 45.5255 76.034C45.9735 75.7727 46.3235 75.4087 46.5755 74.942C46.8368 74.4753 46.9675 73.9433 46.9675 73.346C46.9675 72.7487 46.8368 72.2167 46.5755 71.75C46.3235 71.2833 45.9735 70.9193 45.5255 70.658C45.0868 70.3967 44.5875 70.266 44.0275 70.266C43.4675 70.266 42.9635 70.3967 42.5155 70.658C42.0768 70.9193 41.7268 71.2833 41.4655 71.75C41.2135 72.2167 41.0875 72.7487 41.0875 73.346C41.0875 73.9433 41.2135 74.4753 41.4655 74.942C41.7268 75.4087 42.0768 75.7727 42.5155 76.034C42.9635 76.2953 43.4675 76.426 44.0275 76.426ZM53.4231 69.636C54.3378 69.636 55.0611 69.902 55.5931 70.434C56.1251 70.966 56.3911 71.7313 56.3911 72.73V77H55.6911V72.786C55.6911 71.9647 55.4811 71.3393 55.0611 70.91C54.6505 70.4807 54.0718 70.266 53.3251 70.266C52.4665 70.266 51.7898 70.5227 51.2951 71.036C50.8005 71.5493 50.5531 72.24 50.5531 73.108V77H49.8531V69.692H50.5251V71.274C50.7771 70.7607 51.1505 70.3593 51.6451 70.07C52.1491 69.7807 52.7418 69.636 53.4231 69.636ZM61.7371 69.636C62.6424 69.636 63.3377 69.8693 63.8231 70.336C64.3084 70.7933 64.5511 71.47 64.5511 72.366V77H63.8791V75.698C63.6457 76.1273 63.3051 76.4633 62.8571 76.706C62.4091 76.9393 61.8724 77.056 61.2471 77.056C60.4351 77.056 59.7911 76.8647 59.3151 76.482C58.8484 76.0993 58.6151 75.5953 58.6151 74.97C58.6151 74.3633 58.8297 73.8733 59.2591 73.5C59.6977 73.1173 60.3931 72.926 61.3451 72.926H63.8511V72.338C63.8511 71.6567 63.6644 71.1387 63.2911 70.784C62.9271 70.4293 62.3904 70.252 61.6811 70.252C61.1957 70.252 60.7291 70.336 60.2811 70.504C59.8424 70.672 59.4691 70.896 59.1611 71.176L58.8111 70.672C59.1751 70.3453 59.6137 70.0933 60.1271 69.916C60.6404 69.7293 61.1771 69.636 61.7371 69.636ZM61.3451 76.482C61.9517 76.482 62.4651 76.342 62.8851 76.062C63.3144 75.782 63.6364 75.376 63.8511 74.844V73.472H61.3591C60.6404 73.472 60.1177 73.6027 59.7911 73.864C59.4737 74.1253 59.3151 74.4847 59.3151 74.942C59.3151 75.418 59.4924 75.796 59.8471 76.076C60.2017 76.3467 60.7011 76.482 61.3451 76.482ZM74.6989 69.636C75.3802 69.636 75.9962 69.7947 76.5469 70.112C77.0975 70.42 77.5269 70.8587 77.8349 71.428C78.1522 71.988 78.3109 72.6273 78.3109 73.346C78.3109 74.0647 78.1522 74.704 77.8349 75.264C77.5269 75.824 77.0975 76.2627 76.5469 76.58C75.9962 76.8973 75.3802 77.056 74.6989 77.056C74.0455 77.056 73.4529 76.902 72.9209 76.594C72.3982 76.2767 71.9922 75.838 71.7029 75.278V77H71.0309V66.612H71.7309V71.358C72.0202 70.8167 72.4262 70.3967 72.9489 70.098C73.4715 69.79 74.0549 69.636 74.6989 69.636ZM74.6569 76.426C75.2169 76.426 75.7209 76.2953 76.1689 76.034C76.6169 75.7727 76.9669 75.4087 77.2189 74.942C77.4802 74.4753 77.6109 73.9433 77.6109 73.346C77.6109 72.7487 77.4802 72.2167 77.2189 71.75C76.9669 71.2833 76.6169 70.9193 76.1689 70.658C75.7209 70.3967 75.2169 70.266 74.6569 70.266C74.0969 70.266 73.5929 70.3967 73.1449 70.658C72.7062 70.9193 72.3562 71.2833 72.0949 71.75C71.8429 72.2167 71.7169 72.7487 71.7169 73.346C71.7169 73.9433 71.8429 74.4753 72.0949 74.942C72.3562 75.4087 72.7062 75.7727 73.1449 76.034C73.5929 76.2953 74.0969 76.426 74.6569 76.426ZM80.4781 69.692H81.1781V77H80.4781V69.692ZM80.8281 67.914C80.6695 67.914 80.5341 67.8627 80.4221 67.76C80.3101 67.648 80.2541 67.5127 80.2541 67.354C80.2541 67.1953 80.3101 67.06 80.4221 66.948C80.5341 66.836 80.6695 66.78 80.8281 66.78C80.9868 66.78 81.1221 66.836 81.2341 66.948C81.3461 67.0507 81.4021 67.1813 81.4021 67.34C81.4021 67.4987 81.3461 67.634 81.2341 67.746C81.1221 67.858 80.9868 67.914 80.8281 67.914ZM90.3025 73.514H84.0165C84.0352 74.0833 84.1799 74.592 84.4505 75.04C84.7212 75.4787 85.0852 75.8193 85.5425 76.062C86.0092 76.3047 86.5319 76.426 87.1105 76.426C87.5865 76.426 88.0252 76.342 88.4265 76.174C88.8372 75.9967 89.1779 75.74 89.4485 75.404L89.8545 75.866C89.5372 76.2487 89.1359 76.5427 88.6505 76.748C88.1745 76.9533 87.6565 77.056 87.0965 77.056C86.3685 77.056 85.7199 76.8973 85.1505 76.58C84.5812 76.2627 84.1332 75.824 83.8065 75.264C83.4892 74.704 83.3305 74.0647 83.3305 73.346C83.3305 72.6367 83.4799 72.002 83.7785 71.442C84.0865 70.8727 84.5065 70.4293 85.0385 70.112C85.5705 69.7947 86.1679 69.636 86.8305 69.636C87.4932 69.636 88.0859 69.7947 88.6085 70.112C89.1405 70.42 89.5559 70.854 89.8545 71.414C90.1625 71.974 90.3165 72.6087 90.3165 73.318L90.3025 73.514ZM86.8305 70.252C86.3172 70.252 85.8552 70.3687 85.4445 70.602C85.0339 70.826 84.7025 71.148 84.4505 71.568C84.2079 71.9787 84.0679 72.4453 84.0305 72.968H89.6305C89.6025 72.4453 89.4625 71.9787 89.2105 71.568C88.9585 71.1573 88.6272 70.8353 88.2165 70.602C87.8059 70.3687 87.3439 70.252 86.8305 70.252ZM92.482 66.612H93.182V77H92.482V66.612ZM96.1324 69.692H96.8324V77H96.1324V69.692ZM96.4824 67.914C96.3238 67.914 96.1884 67.8627 96.0764 67.76C95.9644 67.648 95.9084 67.5127 95.9084 67.354C95.9084 67.1953 95.9644 67.06 96.0764 66.948C96.1884 66.836 96.3238 66.78 96.4824 66.78C96.6411 66.78 96.7764 66.836 96.8884 66.948C97.0004 67.0507 97.0564 67.1813 97.0564 67.34C97.0564 67.4987 97.0004 67.634 96.8884 67.746C96.7764 67.858 96.6411 67.914 96.4824 67.914ZM104.725 76.398V77H98.9148V76.524L103.731 70.294H98.9848V69.692H104.641V70.168L99.8108 76.398H104.725ZM110.394 69.636C111.309 69.636 112.032 69.902 112.564 70.434C113.096 70.966 113.362 71.7313 113.362 72.73V77H112.662V72.786C112.662 71.9647 112.452 71.3393 112.032 70.91C111.621 70.4807 111.043 70.266 110.296 70.266C109.437 70.266 108.761 70.5227 108.266 71.036C107.771 71.5493 107.524 72.24 107.524 73.108V77H106.824V69.692H107.496V71.274C107.748 70.7607 108.121 70.3593 108.616 70.07C109.12 69.7807 109.713 69.636 110.394 69.636ZM118.708 69.636C119.613 69.636 120.308 69.8693 120.794 70.336C121.279 70.7933 121.522 71.47 121.522 72.366V77H120.85V75.698C120.616 76.1273 120.276 76.4633 119.828 76.706C119.38 76.9393 118.843 77.056 118.218 77.056C117.406 77.056 116.762 76.8647 116.286 76.482C115.819 76.0993 115.586 75.5953 115.586 74.97C115.586 74.3633 115.8 73.8733 116.23 73.5C116.668 73.1173 117.364 72.926 118.316 72.926H120.822V72.338C120.822 71.6567 120.635 71.1387 120.262 70.784C119.898 70.4293 119.361 70.252 118.652 70.252C118.166 70.252 117.7 70.336 117.252 70.504C116.813 70.672 116.44 70.896 116.132 71.176L115.782 70.672C116.146 70.3453 116.584 70.0933 117.098 69.916C117.611 69.7293 118.148 69.636 118.708 69.636ZM118.316 76.482C118.922 76.482 119.436 76.342 119.856 76.062C120.285 75.782 120.607 75.376 120.822 74.844V73.472H118.33C117.611 73.472 117.088 73.6027 116.762 73.864C116.444 74.1253 116.286 74.4847 116.286 74.942C116.286 75.418 116.463 75.796 116.818 76.076C117.172 76.3467 117.672 76.482 118.316 76.482ZM134.498 66.612V77H133.812V75.278C133.522 75.8473 133.116 76.286 132.594 76.594C132.071 76.902 131.478 77.056 130.816 77.056C130.134 77.056 129.518 76.8973 128.968 76.58C128.417 76.2627 127.983 75.824 127.666 75.264C127.358 74.704 127.204 74.0647 127.204 73.346C127.204 72.6273 127.358 71.988 127.666 71.428C127.983 70.8587 128.417 70.42 128.968 70.112C129.518 69.7947 130.134 69.636 130.816 69.636C131.469 69.636 132.052 69.79 132.566 70.098C133.088 70.406 133.499 70.8353 133.798 71.386V66.612H134.498ZM130.858 76.426C131.418 76.426 131.917 76.2953 132.356 76.034C132.804 75.7727 133.154 75.4087 133.406 74.942C133.667 74.4753 133.798 73.9433 133.798 73.346C133.798 72.7487 133.667 72.2167 133.406 71.75C133.154 71.2833 132.804 70.9193 132.356 70.658C131.917 70.3967 131.418 70.266 130.858 70.266C130.298 70.266 129.794 70.3967 129.346 70.658C128.907 70.9193 128.557 71.2833 128.296 71.75C128.044 72.2167 127.918 72.7487 127.918 73.346C127.918 73.9433 128.044 74.4753 128.296 74.942C128.557 75.4087 128.907 75.7727 129.346 76.034C129.794 76.2953 130.298 76.426 130.858 76.426ZM137.449 66.612H138.149V77H137.449V66.612ZM143.563 69.636C144.469 69.636 145.164 69.8693 145.649 70.336C146.135 70.7933 146.377 71.47 146.377 72.366V77H145.705V75.698C145.472 76.1273 145.131 76.4633 144.683 76.706C144.235 76.9393 143.699 77.056 143.073 77.056C142.261 77.056 141.617 76.8647 141.141 76.482C140.675 76.0993 140.441 75.5953 140.441 74.97C140.441 74.3633 140.656 73.8733 141.085 73.5C141.524 73.1173 142.219 72.926 143.171 72.926H145.677V72.338C145.677 71.6567 145.491 71.1387 145.117 70.784C144.753 70.4293 144.217 70.252 143.507 70.252C143.022 70.252 142.555 70.336 142.107 70.504C141.669 70.672 141.295 70.896 140.987 71.176L140.637 70.672C141.001 70.3453 141.44 70.0933 141.953 69.916C142.467 69.7293 143.003 69.636 143.563 69.636ZM143.171 76.482C143.778 76.482 144.291 76.342 144.711 76.062C145.141 75.782 145.463 75.376 145.677 74.844V73.472H143.185C142.467 73.472 141.944 73.6027 141.617 73.864C141.3 74.1253 141.141 74.4847 141.141 74.942C141.141 75.418 141.319 75.796 141.673 76.076C142.028 76.3467 142.527 76.482 143.171 76.482ZM155.055 67.158C154.14 67.158 153.683 67.648 153.683 68.628V69.692H156.021V70.294H153.697V77H152.997V70.294H151.653V69.692H152.997V68.572C152.997 67.956 153.174 67.466 153.529 67.102C153.884 66.738 154.383 66.556 155.027 66.556C155.307 66.556 155.573 66.598 155.825 66.682C156.086 66.7567 156.301 66.8733 156.469 67.032L156.189 67.564C155.89 67.2933 155.512 67.158 155.055 67.158ZM163.502 73.514H157.216C157.234 74.0833 157.379 74.592 157.65 75.04C157.92 75.4787 158.284 75.8193 158.742 76.062C159.208 76.3047 159.731 76.426 160.31 76.426C160.786 76.426 161.224 76.342 161.626 76.174C162.036 75.9967 162.377 75.74 162.648 75.404L163.054 75.866C162.736 76.2487 162.335 76.5427 161.85 76.748C161.374 76.9533 160.856 77.056 160.296 77.056C159.568 77.056 158.919 76.8973 158.35 76.58C157.78 76.2627 157.332 75.824 157.006 75.264C156.688 74.704 156.53 74.0647 156.53 73.346C156.53 72.6367 156.679 72.002 156.978 71.442C157.286 70.8727 157.706 70.4293 158.238 70.112C158.77 69.7947 159.367 69.636 160.03 69.636C160.692 69.636 161.285 69.7947 161.808 70.112C162.34 70.42 162.755 70.854 163.054 71.414C163.362 71.974 163.516 72.6087 163.516 73.318L163.502 73.514ZM160.03 70.252C159.516 70.252 159.054 70.3687 158.644 70.602C158.233 70.826 157.902 71.148 157.65 71.568C157.407 71.9787 157.267 72.4453 157.23 72.968H162.83C162.802 72.4453 162.662 71.9787 162.41 71.568C162.158 71.1573 161.826 70.8353 161.416 70.602C161.005 70.3687 160.543 70.252 160.03 70.252ZM169.307 76.538C169.13 76.706 168.906 76.8367 168.635 76.93C168.374 77.014 168.099 77.056 167.809 77.056C167.175 77.056 166.685 76.8833 166.339 76.538C165.994 76.1833 165.821 75.6933 165.821 75.068V70.294H164.477V69.692H165.821V68.096H166.521V69.692H168.845V70.294H166.521V74.998C166.521 75.474 166.633 75.838 166.857 76.09C167.091 76.3327 167.431 76.454 167.879 76.454C168.337 76.454 168.715 76.3187 169.013 76.048L169.307 76.538ZM176.989 69.692L173.237 77.994C172.957 78.638 172.63 79.0953 172.257 79.366C171.893 79.6367 171.459 79.772 170.955 79.772C170.619 79.772 170.301 79.716 170.003 79.604C169.713 79.492 169.466 79.3287 169.261 79.114L169.611 78.582C169.984 78.9647 170.437 79.156 170.969 79.156C171.323 79.156 171.627 79.058 171.879 78.862C172.131 78.666 172.364 78.33 172.579 77.854L172.971 76.972L169.681 69.692H170.423L173.349 76.23L176.275 69.692H176.989ZM180.285 77.056C179.697 77.056 179.137 76.9673 178.605 76.79C178.073 76.6127 177.658 76.3887 177.359 76.118L177.681 75.558C177.98 75.81 178.362 76.02 178.829 76.188C179.305 76.356 179.8 76.44 180.313 76.44C181.05 76.44 181.592 76.3187 181.937 76.076C182.292 75.8333 182.469 75.4973 182.469 75.068C182.469 74.76 182.371 74.5173 182.175 74.34C181.988 74.1627 181.755 74.032 181.475 73.948C181.195 73.864 180.808 73.7753 180.313 73.682C179.734 73.5793 179.268 73.4673 178.913 73.346C178.558 73.2247 178.255 73.0287 178.003 72.758C177.751 72.4873 177.625 72.114 177.625 71.638C177.625 71.0593 177.863 70.5833 178.339 70.21C178.824 69.8273 179.51 69.636 180.397 69.636C180.864 69.636 181.326 69.7013 181.783 69.832C182.24 69.9627 182.614 70.1353 182.903 70.35L182.581 70.91C182.282 70.6953 181.942 70.532 181.559 70.42C181.176 70.308 180.784 70.252 180.383 70.252C179.702 70.252 179.188 70.378 178.843 70.63C178.498 70.882 178.325 71.2133 178.325 71.624C178.325 71.9507 178.423 72.2073 178.619 72.394C178.815 72.5713 179.053 72.7067 179.333 72.8C179.622 72.884 180.024 72.9773 180.537 73.08C181.106 73.1827 181.564 73.2947 181.909 73.416C182.264 73.528 182.562 73.7147 182.805 73.976C183.048 74.2373 183.169 74.5967 183.169 75.054C183.169 75.6607 182.917 76.146 182.413 76.51C181.909 76.874 181.2 77.056 180.285 77.056ZM190.065 76.398V77H184.255V76.524L189.071 70.294H184.325V69.692H189.981V70.168L185.151 76.398H190.065ZM197.893 69.692L194.141 77.994C193.861 78.638 193.534 79.0953 193.161 79.366C192.797 79.6367 192.363 79.772 191.859 79.772C191.523 79.772 191.206 79.716 190.907 79.604C190.618 79.492 190.37 79.3287 190.165 79.114L190.515 78.582C190.888 78.9647 191.341 79.156 191.873 79.156C192.228 79.156 192.531 79.058 192.783 78.862C193.035 78.666 193.268 78.33 193.483 77.854L193.875 76.972L190.585 69.692H191.327L194.253 76.23L197.179 69.692H197.893ZM201.189 77.056C200.601 77.056 200.041 76.9673 199.509 76.79C198.977 76.6127 198.562 76.3887 198.263 76.118L198.585 75.558C198.884 75.81 199.267 76.02 199.733 76.188C200.209 76.356 200.704 76.44 201.217 76.44C201.955 76.44 202.496 76.3187 202.841 76.076C203.196 75.8333 203.373 75.4973 203.373 75.068C203.373 74.76 203.275 74.5173 203.079 74.34C202.893 74.1627 202.659 74.032 202.379 73.948C202.099 73.864 201.712 73.7753 201.217 73.682C200.639 73.5793 200.172 73.4673 199.817 73.346C199.463 73.2247 199.159 73.0287 198.907 72.758C198.655 72.4873 198.529 72.114 198.529 71.638C198.529 71.0593 198.767 70.5833 199.243 70.21C199.729 69.8273 200.415 69.636 201.301 69.636C201.768 69.636 202.23 69.7013 202.687 69.832C203.145 69.9627 203.518 70.1353 203.807 70.35L203.485 70.91C203.187 70.6953 202.846 70.532 202.463 70.42C202.081 70.308 201.689 70.252 201.287 70.252C200.606 70.252 200.093 70.378 199.747 70.63C199.402 70.882 199.229 71.2133 199.229 71.624C199.229 71.9507 199.327 72.2073 199.523 72.394C199.719 72.5713 199.957 72.7067 200.237 72.8C200.527 72.884 200.928 72.9773 201.441 73.08C202.011 73.1827 202.468 73.2947 202.813 73.416C203.168 73.528 203.467 73.7147 203.709 73.976C203.952 74.2373 204.073 74.5967 204.073 75.054C204.073 75.6607 203.821 76.146 203.317 76.51C202.813 76.874 202.104 77.056 201.189 77.056ZM209.653 76.538C209.476 76.706 209.252 76.8367 208.981 76.93C208.72 77.014 208.444 77.056 208.155 77.056C207.52 77.056 207.03 76.8833 206.685 76.538C206.34 76.1833 206.167 75.6933 206.167 75.068V70.294H204.823V69.692H206.167V68.096H206.867V69.692H209.191V70.294H206.867V74.998C206.867 75.474 206.979 75.838 207.203 76.09C207.436 76.3327 207.777 76.454 208.225 76.454C208.682 76.454 209.06 76.3187 209.359 76.048L209.653 76.538ZM214.201 77.056C213.511 77.056 212.885 76.8973 212.325 76.58C211.775 76.2627 211.341 75.824 211.023 75.264C210.706 74.6947 210.547 74.0553 210.547 73.346C210.547 72.6367 210.706 72.002 211.023 71.442C211.341 70.8727 211.775 70.4293 212.325 70.112C212.885 69.7947 213.511 69.636 214.201 69.636C214.892 69.636 215.513 69.7947 216.063 70.112C216.623 70.4293 217.062 70.8727 217.379 71.442C217.697 72.002 217.855 72.6367 217.855 73.346C217.855 74.0553 217.697 74.6947 217.379 75.264C217.062 75.824 216.623 76.2627 216.063 76.58C215.513 76.8973 214.892 77.056 214.201 77.056ZM214.201 76.426C214.761 76.426 215.261 76.2953 215.699 76.034C216.147 75.7727 216.497 75.4087 216.749 74.942C217.011 74.4753 217.141 73.9433 217.141 73.346C217.141 72.7487 217.011 72.2167 216.749 71.75C216.497 71.2833 216.147 70.9193 215.699 70.658C215.261 70.3967 214.761 70.266 214.201 70.266C213.641 70.266 213.137 70.3967 212.689 70.658C212.251 70.9193 211.901 71.2833 211.639 71.75C211.387 72.2167 211.261 72.7487 211.261 73.346C211.261 73.9433 211.387 74.4753 211.639 74.942C211.901 75.4087 212.251 75.7727 212.689 76.034C213.137 76.2953 213.641 76.426 214.201 76.426ZM215.349 66.85H216.357L214.159 68.502H213.403L215.349 66.85ZM230.266 69.692L227.494 77H226.836L224.372 70.658L221.894 77H221.25L218.478 69.692H219.15L221.586 76.216L224.078 69.692H224.68L227.158 76.202L229.622 69.692H230.266Z" fill="#2D2D2D"/>
<rect x="6" y="54" width="260" height="1" fill="#2D2D2D"/>
<path d="M147.78 0C146.097 8.27547 147.049 12.2557 151.497 15.4009C153.223 15.6173 153.779 15.2289 153.887 13.5422C149.381 11.1488 148.263 7.8835 147.78 0Z" fill="#B80202"/>
<path d="M178.126 0C179.682 8.24623 178.801 12.2124 174.686 15.3465C173.089 15.5621 172.574 15.1751 172.474 13.4943C176.644 11.1094 177.678 7.85564 178.126 0Z" fill="#B80202"/>
</svg>
