<svg width="19" height="19" viewBox="0 0 19 19" fill="none" xmlns="http://www.w3.org/2000/svg">
<path d="M19 2.375L16.4706 11.6502L13.0435 8.59829L16.3321 5.12683L11.9241 8.17396L8.88171 7.43454L19 2.375ZM12.6762 9.40183V12.6667L14.0497 10.6258L12.6762 9.40183V9.40183ZM9.40183 13.9017C8.89042 14.2223 8.36317 14.5073 7.82958 14.748L8.21908 15.6853C8.75346 15.4454 9.28229 15.1644 9.79608 14.8493L9.40183 13.9017V13.9017ZM11.875 11.9953C11.4079 12.4553 10.796 12.9224 10.2584 13.3174L10.6582 14.2785C11.043 14.0046 11.5188 13.6784 11.875 13.3712V11.9953V11.9953ZM7.277 16.0621C6.25258 16.4239 5.282 16.625 4.39296 16.625C1.96333 16.625 0 15.2103 0 12.8013C0 11.7341 0.361792 10.8134 1.04975 10.1159C1.84142 9.32425 2.88246 8.93712 4.21721 8.93712C6.2225 8.93712 7.65146 10.2283 7.65146 12.027C7.65146 12.8361 7.35933 13.5763 6.83367 14.1012C6.38717 14.5485 5.80054 14.8073 5.225 14.8073C4.88854 14.8073 4.61383 14.6783 4.484 14.4717C4.44125 14.4028 4.43254 14.3593 4.40642 14.2049C4.07946 14.5833 3.73508 14.7472 3.25296 14.7472C2.40113 14.7472 1.85883 14.1107 1.85883 13.129C1.85883 11.6747 2.81358 10.4698 3.95833 10.4698C4.44046 10.4698 4.68112 10.5901 4.91387 10.9519L4.99938 10.6511H6.01667C5.96521 10.8229 5.81004 11.3478 5.76729 11.5378C5.20838 13.6056 5.21708 13.5201 5.21708 13.7069C5.21708 14.0608 5.70475 13.9207 5.98263 13.6982C6.40458 13.3712 6.68008 12.734 6.68008 12.0713C6.68008 11.2797 6.30958 10.5909 5.6905 10.2038C5.30338 9.97183 4.76029 9.842 4.14992 9.842C2.33383 9.842 1.06004 11.0469 1.06004 12.7514C1.06004 15.4795 3.93063 16.1255 6.8875 15.1232L7.277 16.0621V16.0621ZM4.58771 11.8805C4.58771 11.5275 4.38979 11.2868 4.08817 11.2868C3.76121 11.2868 3.45958 11.5013 3.24504 11.9067C3.03842 12.2938 2.90067 12.8012 2.90067 13.1979C2.90067 13.6539 3.07246 13.8945 3.40021 13.8945C3.71767 13.8945 4.01929 13.6452 4.24254 13.2058C4.44996 12.8013 4.58771 12.2764 4.58771 11.8805V11.8805Z" fill="#2D2D2D"/>
</svg>
