<svg width="15" height="15" viewBox="0 0 15 15" fill="none" xmlns="http://www.w3.org/2000/svg">
<path d="M11.875 4.20875C11.875 6.81125 9.53125 8.57125 9.53125 10.625H8.28625C8.28688 9.32563 8.90937 8.23375 9.51625 7.17938C10.0862 6.18875 10.625 5.2525 10.625 4.20875C10.625 2.26625 9.05188 1.25 7.4975 1.25C5.94563 1.25 4.375 2.26625 4.375 4.20875C4.375 5.2525 4.91375 6.18875 5.48375 7.17938C6.09063 8.23375 6.7125 9.32563 6.71313 10.625H5.46875C5.46875 8.57125 3.125 6.81063 3.125 4.20875C3.125 1.49438 5.31125 0 7.4975 0C9.68625 0 11.875 1.49625 11.875 4.20875ZM9.375 11.5625C9.375 11.735 9.235 11.875 9.0625 11.875H5.9375C5.765 11.875 5.625 11.735 5.625 11.5625C5.625 11.39 5.765 11.25 5.9375 11.25H9.0625C9.235 11.25 9.375 11.39 9.375 11.5625ZM9.375 12.8125C9.375 12.985 9.235 13.125 9.0625 13.125H5.9375C5.765 13.125 5.625 12.985 5.625 12.8125C5.625 12.64 5.765 12.5 5.9375 12.5H9.0625C9.235 12.5 9.375 12.64 9.375 12.8125ZM8.31187 14.7869C8.19312 14.9219 8.02125 15 7.84125 15H7.15812C6.97813 15 6.80688 14.9219 6.68813 14.7869L5.78125 13.75H9.21875L8.31187 14.7869Z" fill="#2D2D2D"/>
</svg>
