<svg width="26" height="26" viewBox="0 0 26 26" fill="none" xmlns="http://www.w3.org/2000/svg">
<path d="M6.50017 3.33992C6.50017 2.88383 6.82192 2.47217 7.29533 2.36817C12.0707 1.31733 12.2516 1.45383 12.7131 0.550333C12.8929 0.2015 13.2515 0 13.6253 0C15.1885 0 14.8473 2.71267 12.4152 3.28467C11.7229 3.44717 7.74167 4.31275 7.74167 4.31275C7.10683 4.4525 6.50017 3.98017 6.50017 3.33992V3.33992ZM7.74167 7.73717L18.7039 5.32567C19.1795 5.22167 19.5002 4.81 19.5002 4.355C19.5002 3.71908 18.8946 3.24133 18.2587 3.38217L7.29533 5.79258C6.74608 5.91392 6.40158 6.44692 6.52508 6.98425C6.64858 7.52158 7.1935 7.8585 7.74167 7.73717V7.73717ZM9.92133 14.6283V15.1667H7.5835V18.0256C7.5835 19.9528 9.35042 20.8206 9.75017 22.75H16.2502C16.6564 20.8509 18.4168 19.9496 18.4168 18.0256V15.1667H16.0801V14.1288C16.0801 13.3337 16.6434 12.6425 17.4364 12.4659L18.5869 12.1507C19.0614 12.0467 19.3821 11.635 19.3821 11.18C19.3821 10.5441 18.7765 10.0663 18.1406 10.2072L16.7767 10.5798C15.1993 10.9406 14.0835 12.3153 14.0835 13.9003V15.1667H11.9168V14.4203C11.9168 12.6577 10.9798 11.9383 9.66675 10.7434L18.705 8.7555C19.1795 8.65042 19.5002 8.23983 19.5002 7.78375C19.5002 7.14458 18.8946 6.67008 18.2587 6.81092L7.29533 9.22242C6.82192 9.32642 6.50017 9.73808 6.50017 10.1931C6.50017 10.5094 6.64208 10.7283 6.87283 10.959C7.78608 11.8723 9.92133 12.779 9.92133 14.6283V14.6283ZM14.4074 25.6306C14.2016 25.8646 13.9037 26 13.5917 26H12.4076C12.0956 26 11.7988 25.8646 11.5929 25.6306L10.021 23.8333H15.9793L14.4074 25.6306V25.6306Z" fill="#2D2D2D"/>
</svg>
