<svg width="31" height="31" viewBox="0 0 31 31" fill="none" xmlns="http://www.w3.org/2000/svg">
<path d="M7.7502 3.98221C7.7502 3.43842 8.13382 2.94758 8.69828 2.82358C14.392 1.57067 14.6077 1.73342 15.1579 0.656167C15.3723 0.24025 15.7999 0 16.2455 0C18.1094 0 17.7025 3.23433 14.8027 3.91633C13.9773 4.11008 9.23045 5.14212 9.23045 5.14212C8.47353 5.30875 7.7502 4.74558 7.7502 3.98221ZM9.23045 9.22508L22.3008 6.34983C22.8679 6.22583 23.2502 5.735 23.2502 5.1925C23.2502 4.43429 22.5282 3.86467 21.77 4.03258L8.69828 6.90654C8.04341 7.05121 7.63266 7.68671 7.77991 8.32737C7.92716 8.96804 8.57687 9.36975 9.23045 9.22508ZM11.8293 17.4414V18.0833H9.04187V21.492C9.04187 23.7899 11.1486 24.8245 11.6252 27.125H19.3752C19.8596 24.8607 21.9585 23.786 21.9585 21.492V18.0833H19.1724V16.8459C19.1724 15.8978 19.8441 15.0737 20.7896 14.8632L22.1613 14.4873C22.7271 14.3633 23.1094 13.8725 23.1094 13.33C23.1094 12.5718 22.3874 12.0022 21.6292 12.1701L20.003 12.6144C18.1223 13.0445 16.7919 14.6837 16.7919 16.5734V18.0833H14.2085V17.1934C14.2085 15.0918 13.0912 14.2342 11.5257 12.8095L22.3021 10.4392C22.8679 10.314 23.2502 9.82442 23.2502 9.28062C23.2502 8.51854 22.5282 7.95279 21.77 8.12071L8.69828 10.996C8.13382 11.12 7.7502 11.6108 7.7502 12.1533C7.7502 12.5305 7.91941 12.7914 8.19453 13.0665C9.28341 14.1554 11.8293 15.2365 11.8293 17.4414ZM17.1781 30.5595C16.9327 30.8385 16.5775 31 16.2055 31H14.7937C14.4217 31 14.0677 30.8385 13.8223 30.5595L11.9481 28.4167H19.0523L17.1781 30.5595Z" fill="#E7E7E7"/>
</svg>
