<svg width="26" height="26" viewBox="0 0 26 26" fill="none" xmlns="http://www.w3.org/2000/svg">
<path fill-rule="evenodd" clip-rule="evenodd" d="M0 13C0 5.82074 5.8208 0 13 0C20.1792 0 26 5.82074 26 13C26 20.1793 20.1792 26 13 26C5.8208 26 0 20.1793 0 13ZM13 15.875C14.3094 15.875 15.375 14.8094 15.375 13.5C15.375 12.1906 14.3094 11.125 13 11.125C11.6906 11.125 10.625 12.1906 10.625 13.5C10.625 14.8094 11.6906 15.875 13 15.875ZM13.0118 19.0417C19.1338 19.0417 22.5 13.1445 22.5 13.1445C22.5 13.1445 19.1029 7.95834 13.0118 7.95834C7.01978 7.95834 3.5 13.1445 3.5 13.1445C3.5 13.1445 7.32776 19.0417 13.0118 19.0417ZM13 9.54166C15.1865 9.54166 16.9584 11.3142 16.9584 13.5C16.9584 15.6866 15.1865 17.4583 13 17.4583C10.8142 17.4583 9.04163 15.6866 9.04163 13.5C9.04163 11.3142 10.8142 9.54166 13 9.54166Z" fill="#2D2D2D"/>
</svg>
