<svg width="26" height="26" viewBox="0 0 26 26" fill="none" xmlns="http://www.w3.org/2000/svg">
<path d="M0.0615234 26L1.88911 19.3234C0.761357 17.3691 0.168773 15.1537 0.169857 12.8819C0.173107 5.77958 5.95269 0 13.0539 0C16.5 0.00108333 19.7349 1.34333 22.168 3.77867C24.6001 6.214 25.9391 9.451 25.938 12.8938C25.9348 19.9973 20.1552 25.7768 13.0539 25.7768C10.8981 25.7758 8.77369 25.2352 6.89194 24.2082L0.0615234 26V26ZM7.20827 21.8758C9.02394 22.9537 10.7573 23.5993 13.0496 23.6004C18.9516 23.6004 23.7594 18.7969 23.7627 12.8917C23.7649 6.9745 18.9798 2.1775 13.0583 2.17533C7.15194 2.17533 2.34736 6.97883 2.34519 12.883C2.34411 15.2934 3.05044 17.0982 4.23669 18.9865L3.15444 22.9385L7.20827 21.8758V21.8758ZM19.5442 15.9564C19.464 15.8221 19.2495 15.7419 18.9267 15.5805C18.6049 15.4191 17.0222 14.6402 16.7264 14.5329C16.4318 14.4257 16.2173 14.3715 16.0017 14.6943C15.7872 15.0161 15.1697 15.7419 14.9823 15.9564C14.7949 16.1709 14.6064 16.198 14.2846 16.0366C13.9629 15.8752 12.925 15.5361 11.6954 14.4387C10.7389 13.585 10.0921 12.5309 9.90469 12.2081C9.71727 11.8863 9.88519 11.7119 10.0455 11.5516C10.1907 11.4075 10.3673 11.1757 10.5287 10.9872C10.6923 10.8008 10.7454 10.6665 10.8537 10.4509C10.9609 10.2364 10.9079 10.0479 10.8266 9.8865C10.7454 9.72617 10.1019 8.14125 9.83427 7.49667C9.57211 6.86942 9.30669 6.95392 9.10952 6.94417L8.49202 6.93333C8.27752 6.93333 7.92869 7.0135 7.63402 7.33633C7.33936 7.65917 6.50736 8.437 6.50736 10.0219C6.50736 11.6068 7.66111 13.1376 7.82144 13.3521C7.98286 13.5666 10.091 16.8188 13.3204 18.213C14.0885 18.5445 14.6887 18.7428 15.1556 18.8912C15.9269 19.136 16.6289 19.1013 17.1836 19.019C17.8022 18.9269 19.0881 18.2401 19.3568 17.4883C19.6254 16.7353 19.6254 16.0908 19.5442 15.9564V15.9564Z" fill="#2D2D2D"/>
</svg>
