<svg width="19" height="19" viewBox="0 0 19 19" fill="none" xmlns="http://www.w3.org/2000/svg">
<g clip-path="url(#clip0)">
<path d="M12.5954 10.5608L14.6822 7.37358L14.3228 7.05217L11.415 9.50554C10.8807 9.39629 10.3051 9.55938 9.91562 9.99479C9.33296 10.6463 9.38917 11.6478 10.0415 12.2305C10.6938 12.8131 11.6945 12.7569 12.2772 12.1046C12.6667 11.6692 12.764 11.0794 12.5954 10.5608V10.5608ZM9.5 2.13275V0H12.6667V2.13275C11.5275 1.94038 10.6147 1.94433 9.5 2.13275ZM16.507 3.76675L17.6209 2.65288L18.7403 3.77229L17.6945 4.81808C17.3288 4.43492 16.9314 4.08421 16.507 3.76675V3.76675ZM1.58333 7.125H7.91667V8.70833H1.58333V7.125ZM0 10.2917H6.33333V11.875H0V10.2917ZM2.375 13.4583H7.91667V15.0417H2.375V13.4583ZM19 11.0833C19 15.4557 15.4557 19 11.0833 19C8.87458 19 6.8875 18.0856 5.45379 16.625H8.05046C8.95137 17.1245 9.98133 17.4167 11.0833 17.4167C14.5754 17.4167 17.4167 14.5754 17.4167 11.0833C17.4167 7.59129 14.5754 4.75 11.0833 4.75C9.98133 4.75 8.95137 5.04213 8.05046 5.54167H5.45379C6.8875 4.08104 8.87458 3.16667 11.0833 3.16667C15.4557 3.16667 19 6.71096 19 11.0833Z" fill="#2D2D2D"/>
</g>
<defs>
<clipPath id="clip0">
<rect width="19" height="19" fill="white"/>
</clipPath>
</defs>
</svg>
