<svg width="24" height="24" viewBox="0 0 24 24" fill="none" xmlns="http://www.w3.org/2000/svg">
<path d="M19 6.734C19 10.898 15.25 13.714 15.25 17H8.75C8.75 13.714 5 10.897 5 6.734C5 2.391 8.498 0 11.996 0C15.498 0 19 2.394 19 6.734ZM14.5 18H9.5C9.224 18 9 18.224 9 18.5C9 18.776 9.224 19 9.5 19H14.5C14.776 19 15 18.776 15 18.5C15 18.224 14.776 18 14.5 18ZM14.5 20H9.5C9.224 20 9 20.224 9 20.5C9 20.776 9.224 21 9.5 21H14.5C14.776 21 15 20.776 15 20.5C15 20.224 14.776 20 14.5 20ZM14.75 22H9.25L10.701 23.659C10.891 23.875 11.166 24 11.454 24H12.547C12.835 24 13.109 23.875 13.299 23.659L14.75 22V22Z" fill="#2D2D2D"/>
</svg>
