<svg width="123" height="214" viewBox="0 0 123 214" fill="none" xmlns="http://www.w3.org/2000/svg">
<path d="M84.7562 191.708C84.7562 204.013 74.7785 214 62.4138 214C50.0938 214 40.0714 204.013 40.0714 191.708C40.0714 179.403 50.0938 169.417 62.4138 169.417C74.7785 169.417 84.7562 179.394 84.7562 191.708ZM63.1201 0C27.0987 0 0 24.0126 0 71.3333H35.3598C35.3598 50.7893 43.4599 33.9814 62.3959 33.9814C73.5447 33.9814 85.3731 41.3644 86.3923 55.4795C87.492 70.3347 79.5349 77.8693 69.4768 87.419C43.3347 112.207 44.3003 123.523 44.3003 151.583H79.5528C79.5528 138.636 78.1491 129.22 95.9855 110.041C107.885 97.2363 122.682 81.3111 122.995 57.0488C123.415 21.7121 98.3994 0 63.1201 0V0Z" fill="#2D2D2D"/>
</svg>
