<svg width="450" height="1080" viewBox="0 0 450 1080" fill="none" xmlns="http://www.w3.org/2000/svg">
<g clip-path="url(#clip0)">
<rect width="450" height="1080" fill="#B80202"/>
<path d="M0 -1H452C452 -1 656.5 1155.5 386.5 1155.5C363.729 1155.5 345.301 1153.75 330.576 1150.53C230.208 1141.17 36.8521 1120.91 114 1110C139.189 1106.44 149.975 1106.59 154.104 1107.57C157.132 1102.59 172.49 1089.18 228 1057C258.346 1039.41 282.914 1033.23 302.798 1034.5C339.275 967.992 399.753 896.135 339 882C220.799 854.5 51.5 657.5 277.799 688C504.098 718.5 298.288 493.808 371.5 500.63C537.857 516.13 271 302.5 396 216.088C521 129.676 292 218.151 146 128C0 37.8491 347 453.5 146 347.5C-55 241.5 115 626.5 42.5 649.5C-30 672.5 67.5477 932.75 209 967C350.452 1001.25 124.084 1079.86 0 1084.5V-1Z" fill="#202020"/>
</g>
<defs>
<clipPath id="clip0">
<rect width="450" height="1080" fill="white"/>
</clipPath>
</defs>
</svg>
