<svg width="21" height="21" viewBox="0 0 21 21" fill="none" xmlns="http://www.w3.org/2000/svg">
<path d="M10.5367 20.6919C3.70037 20.6919 0 16.4254 0 10.9172C0 5.03111 4.16675 0.307861 11.6165 0.307861C17.0538 0.307861 21 3.84111 21 8.70874C21 16.3317 11.9612 18.3442 12.4145 13.9955C11.7932 14.965 10.7923 16.0552 8.86813 16.0552C6.66663 16.0552 5.29812 14.4435 5.29812 11.8491C5.29812 7.96061 7.854 4.67499 10.8798 4.67499C12.3314 4.67499 13.3298 5.44149 13.7471 6.61836L14.1531 5.19036H16.1989C15.9854 5.91836 14.168 12.6515 14.168 12.6515C13.601 14.9842 15.3492 15.0254 16.8997 13.7864C19.8126 11.5289 19.9631 5.62524 16.0265 3.16299C11.8081 0.633361 2.20587 2.19874 2.20587 10.7694C2.20587 15.679 5.66213 18.9777 10.8063 18.9777C13.8128 18.9777 15.6555 18.164 17.1894 17.2732L18.2193 18.759C16.7221 19.6042 14.3159 20.6919 10.5367 20.6919ZM8.48575 8.17499C7.86012 9.34749 7.45587 10.8665 7.45587 12.046C7.45587 15.2047 10.5376 15.2249 12.0514 12.2551C12.6744 11.0354 13.076 9.48049 13.076 8.29224C13.076 5.73986 10.0179 5.28749 8.48575 8.17499V8.17499Z" fill="#E7E7E7"/>
</svg>
