<svg width="16" height="16" viewBox="0 0 16 16" fill="none" xmlns="http://www.w3.org/2000/svg">
<g clip-path="url(#clip0)">
<path d="M7.54906 14.7861C2.66381 14.7861 0.0195312 11.7372 0.0195312 7.80115C0.0195312 3.59494 2.99708 0.219727 8.32064 0.219727C12.2061 0.219727 15.0261 2.74457 15.0261 6.22296C15.0261 11.6703 8.567 13.1085 8.89089 10.0009C8.44695 10.6937 7.73164 11.4727 6.35666 11.4727C4.78348 11.4727 3.80555 10.321 3.80555 8.46706C3.80555 5.68835 5.63197 3.34046 7.79416 3.34046C8.83149 3.34046 9.54492 3.8882 9.84318 4.72919L10.1333 3.70874H11.5952C11.4426 4.22897 10.1439 9.04044 10.1439 9.04044C9.73876 10.7074 10.9881 10.7368 12.096 9.85142C14.1776 8.23821 14.2851 4.0195 11.472 2.25999C8.45758 0.452328 1.59584 1.57094 1.59584 7.69548C1.59584 11.2039 4.06567 13.5612 7.74164 13.5612C9.89007 13.5612 11.2069 12.9797 12.303 12.3431L13.0389 13.4048C11.9691 14.0088 10.2496 14.7861 7.54906 14.7861ZM6.08342 5.84155C5.63635 6.67941 5.34747 7.76488 5.34747 8.60775C5.34747 10.865 7.54968 10.8794 8.6314 8.75719C9.0766 7.88556 9.3636 6.77445 9.3636 5.92533C9.3636 4.10141 7.17827 3.77815 6.08342 5.84155Z" fill="#2D2D2D"/>
</g>
<defs>
<clipPath id="clip0">
<rect width="15.0065" height="15.0065" fill="white" transform="translate(0.0195312)"/>
</clipPath>
</defs>
</svg>
