<svg width="16" height="16" viewBox="0 0 16 16" fill="none" xmlns="http://www.w3.org/2000/svg">
<g clip-path="url(#clip0)">
<path d="M7.52953 14.7861C2.64427 14.7861 0 11.7372 0 7.80115C0 3.59494 2.97755 0.219727 8.30111 0.219727C12.1866 0.219727 15.0065 2.74457 15.0065 6.22296C15.0065 11.6703 8.54747 13.1085 8.87136 10.0009C8.42742 10.6937 7.7121 11.4727 6.33713 11.4727C4.76395 11.4727 3.78602 10.321 3.78602 8.46706C3.78602 5.68836 5.61244 3.34046 7.77463 3.34046C8.81196 3.34046 9.52539 3.8882 9.82365 4.72919L10.1138 3.70874H11.5757C11.4231 4.22897 10.1244 9.04044 10.1244 9.04044C9.71923 10.7074 10.9685 10.7368 12.0765 9.85142C14.158 8.23821 14.2656 4.0195 11.4525 2.25999C8.43805 0.452328 1.57631 1.57094 1.57631 7.69548C1.57631 11.2039 4.04614 13.5612 7.72211 13.5612C9.87054 13.5612 11.1874 12.9797 12.2835 12.3431L13.0194 13.4048C11.9496 14.0088 10.2301 14.7861 7.52953 14.7861ZM6.06389 5.84155C5.61682 6.67941 5.32794 7.76488 5.32794 8.60775C5.32794 10.865 7.53015 10.8794 8.61187 8.75719C9.05706 7.88556 9.34406 6.77445 9.34406 5.92533C9.34406 4.10141 7.15874 3.77815 6.06389 5.84155V5.84155Z" fill="#F9F9F9"/>
</g>
<defs>
<clipPath id="clip0">
<rect width="15.0065" height="15.0065" fill="white"/>
</clipPath>
</defs>
</svg>
