<svg width="213" height="100" viewBox="0 0 213 100" fill="none" xmlns="http://www.w3.org/2000/svg">
<path d="M63.3473 13.3483L79.7362 67.1901L24.9134 54.4624L63.3473 13.3483Z" fill="#2D2D2D"/>
<path d="M91.7234 18.1421L133.419 27.5156L104.454 58.9386L91.7234 18.1421Z" fill="#2D2D2D"/>
<path d="M186.37 16.3504L184.075 69.014L139.615 40.6942L186.37 16.3504Z" fill="#2D2D2D"/>
<path d="M58.3483 28.3483L74.7372 82.1901L19.9144 69.4624L58.3483 28.3483Z" fill="#282828"/>
<path d="M86.7243 33.1421L128.42 42.5156L99.4546 73.9386L86.7243 33.1421Z" fill="#282828"/>
<path d="M181.371 31.3504L179.076 84.014L134.615 55.6942L181.371 31.3504Z" fill="#282828"/>
<path d="M46.3267 14.3421L62.708 68.1589L7.91069 55.4371L46.3267 14.3421Z" fill="#B80202"/>
<path d="M74.6892 19.1336L116.366 28.5028L87.4136 59.9112L74.6892 19.1336Z" fill="#B80202"/>
<path d="M169.293 17.3428L166.998 69.9819L122.559 41.6753L169.293 17.3428Z" fill="#B80202"/>
</svg>
