<svg width="24" height="24" viewBox="0 0 24 24" fill="none" xmlns="http://www.w3.org/2000/svg">
<path fill-rule="evenodd" clip-rule="evenodd" d="M12 0C18.623 0 24 5.377 24 12C24 18.623 18.623 24 12 24C5.377 24 0 18.623 0 12C0 5.377 5.377 0 12 0ZM12 1C18.071 1 23 5.929 23 12C23 18.071 18.071 23 12 23C5.929 23 1 18.071 1 12C1 5.929 5.929 1 12 1ZM12.5 18H11.5V9H12.5V18ZM12 6C12.466 6 12.845 6.378 12.845 6.845C12.845 7.311 12.466 7.689 12 7.689C11.534 7.689 11.155 7.311 11.155 6.845C11.155 6.378 11.534 6 12 6Z" fill="#F9F9F9"/>
</svg>
