<svg width="20" height="20" viewBox="0 0 20 20" fill="none" xmlns="http://www.w3.org/2000/svg">
<path d="M10 0C4.4775 0 0 4.4775 0 10C0 15.5225 4.4775 20 10 20C15.5225 20 20 15.5225 20 10C20 4.4775 15.5225 0 10 0ZM9.99917 4.79167C10.5742 4.79167 11.0417 5.25833 11.0417 5.83333C11.0417 6.40833 10.5742 6.875 9.99917 6.875C9.42417 6.875 8.95833 6.40833 8.95833 5.83333C8.95833 5.25833 9.42417 4.79167 9.99917 4.79167ZM11.6667 15H8.33333V14.1667C8.73667 14.0175 9.16667 13.9992 9.16667 13.5542V9.83167C9.16667 9.38667 8.73667 9.31667 8.33333 9.1675V8.33417H10.8333V13.555C10.8333 14.0008 11.2642 14.02 11.6667 14.1675V15Z" fill="#E7E7E7"/>
</svg>
