<svg width="54" height="54" viewBox="0 0 54 54" fill="none" xmlns="http://www.w3.org/2000/svg">
<g clip-path="url(#clip0)">
<path d="M35.7975 30.015L41.7285 20.9565L40.707 20.043L32.4427 27.0157C30.924 26.7052 29.2882 27.1687 28.1812 28.4062C26.5252 30.258 26.685 33.1043 28.539 34.7603C30.393 36.4163 33.237 36.2565 34.893 34.4025C36 33.165 36.2767 31.4888 35.7975 30.015V30.015ZM27 6.0615V0H36V6.0615C32.7622 5.51475 30.168 5.526 27 6.0615ZM46.9147 10.7055L50.0805 7.53975L53.262 10.7212L50.2897 13.6935C49.2502 12.6045 48.1207 11.6077 46.9147 10.7055V10.7055ZM4.5 20.25H22.5V24.75H4.5V20.25ZM0 29.25H18V33.75H0V29.25ZM6.75 38.25H22.5V42.75H6.75V38.25ZM54 31.5C54 43.9267 43.9267 54 31.5 54C25.2225 54 19.575 51.4013 15.5002 47.25H22.8802C25.4407 48.6697 28.368 49.5 31.5 49.5C41.4247 49.5 49.5 41.4247 49.5 31.5C49.5 21.5753 41.4247 13.5 31.5 13.5C28.368 13.5 25.4407 14.3303 22.8802 15.75H15.5002C19.575 11.5987 25.2225 9 31.5 9C43.9267 9 54 19.0733 54 31.5Z" fill="#E7E7E7"/>
</g>
<defs>
<clipPath id="clip0">
<rect width="54" height="54" fill="white"/>
</clipPath>
</defs>
</svg>
