<svg width="16" height="16" viewBox="0 0 16 16" fill="none" xmlns="http://www.w3.org/2000/svg">
<path d="M7.50326 1.35246C9.50663 1.35246 9.74424 1.35997 10.5358 1.39623C12.5692 1.48877 13.519 2.45357 13.6115 4.47195C13.6478 5.26291 13.6547 5.50052 13.6547 7.50389C13.6547 9.50789 13.6472 9.74486 13.6115 10.5358C13.5184 12.5523 12.5711 13.519 10.5358 13.6115C9.74424 13.6478 9.50789 13.6553 7.50326 13.6553C5.49989 13.6553 5.26229 13.6478 4.47132 13.6115C2.43293 13.5184 1.48815 12.5492 1.39561 10.5352C1.35934 9.74424 1.35184 9.50726 1.35184 7.50326C1.35184 5.49989 1.35997 5.26291 1.39561 4.47132C1.48877 2.45357 2.43606 1.48815 4.47132 1.39561C5.26291 1.35997 5.49989 1.35246 7.50326 1.35246ZM7.50326 0C5.4655 0 5.21039 0.00875381 4.41004 0.0450196C1.68511 0.170074 0.170699 1.68198 0.0456449 4.40942C0.00875381 5.21039 0 5.4655 0 7.50326C0 9.54103 0.00875381 9.79676 0.0450196 10.5971C0.170074 13.322 1.68198 14.8365 4.40942 14.9615C5.21039 14.9978 5.4655 15.0065 7.50326 15.0065C9.54103 15.0065 9.79676 14.9978 10.5971 14.9615C13.3195 14.8365 14.8377 13.3245 14.9609 10.5971C14.9978 9.79676 15.0065 9.54103 15.0065 7.50326C15.0065 5.4655 14.9978 5.21039 14.9615 4.41004C14.839 1.68761 13.3252 0.170699 10.5977 0.0456449C9.79676 0.00875381 9.54103 0 7.50326 0V0ZM7.50326 3.65034C5.37546 3.65034 3.65034 5.37546 3.65034 7.50326C3.65034 9.63106 5.37546 11.3568 7.50326 11.3568C9.63106 11.3568 11.3562 9.63169 11.3562 7.50326C11.3562 5.37546 9.63106 3.65034 7.50326 3.65034ZM7.50326 10.0044C6.12204 10.0044 5.00218 8.88511 5.00218 7.50326C5.00218 6.12204 6.12204 5.00218 7.50326 5.00218C8.88449 5.00218 10.0044 6.12204 10.0044 7.50326C10.0044 8.88511 8.88449 10.0044 7.50326 10.0044ZM11.5088 2.59801C11.011 2.59801 10.6077 3.00131 10.6077 3.4984C10.6077 3.99549 11.011 4.39879 11.5088 4.39879C12.0058 4.39879 12.4085 3.99549 12.4085 3.4984C12.4085 3.00131 12.0058 2.59801 11.5088 2.59801Z" fill="#2D2D2D"/>
</svg>
