<svg width="266" height="69" viewBox="0 0 266 69" fill="none" xmlns="http://www.w3.org/2000/svg">
<path d="M29.04 31.792V34H5.856V0.399998H28.32V2.608H8.304V15.856H26.208V18.016H8.304V31.792H29.04ZM51.1174 34.24C46.8614 34.24 43.5494 33.008 41.1814 30.544C38.8454 28.08 37.6774 24.48 37.6774 19.744V0.399998H40.1254V19.648C40.1254 23.776 41.0694 26.864 42.9574 28.912C44.8454 30.96 47.5814 31.984 51.1654 31.984C54.7174 31.984 57.4374 30.96 59.3254 28.912C61.2134 26.864 62.1574 23.776 62.1574 19.648V0.399998H64.6054V19.744C64.6054 24.48 63.4214 28.08 61.0534 30.544C58.6854 33.008 55.3734 34.24 51.1174 34.24ZM88.0759 0.399998C92.2999 0.399998 95.6119 1.408 98.0119 3.424C100.412 5.408 101.612 8.176 101.612 11.728C101.612 15.248 100.412 18.016 98.0119 20.032C95.6119 22.016 92.2999 23.008 88.0759 23.008H78.4759V34H76.0279V0.399998H88.0759ZM88.0759 20.8C91.6599 20.8 94.3959 20.016 96.2839 18.448C98.1719 16.88 99.1159 14.64 99.1159 11.728C99.1159 8.816 98.1719 6.576 96.2839 5.008C94.3959 3.408 91.6599 2.608 88.0759 2.608H78.4759V20.8H88.0759ZM137.232 0.399998V34H134.784V18.016H112.32V34H109.872V0.399998H112.32V15.856H134.784V0.399998H137.232ZM163.221 34.24C159.925 34.24 156.949 33.504 154.293 32.032C151.637 30.528 149.541 28.48 148.005 25.888C146.501 23.296 145.749 20.4 145.749 17.2C145.749 14 146.501 11.104 148.005 8.512C149.541 5.92 151.637 3.888 154.293 2.416C156.949 0.911998 159.925 0.159998 163.221 0.159998C166.517 0.159998 169.493 0.895998 172.149 2.368C174.805 3.84 176.885 5.872 178.389 8.464C179.925 11.056 180.693 13.968 180.693 17.2C180.693 20.432 179.925 23.344 178.389 25.936C176.885 28.528 174.805 30.56 172.149 32.032C169.493 33.504 166.517 34.24 163.221 34.24ZM163.221 31.984C166.037 31.984 168.581 31.344 170.853 30.064C173.125 28.784 174.917 27.024 176.229 24.784C177.541 22.512 178.197 19.984 178.197 17.2C178.197 14.416 177.541 11.904 176.229 9.664C174.917 7.392 173.125 5.616 170.853 4.336C168.581 3.056 166.037 2.416 163.221 2.416C160.405 2.416 157.845 3.056 155.541 4.336C153.269 5.616 151.477 7.392 150.165 9.664C148.853 11.904 148.197 14.416 148.197 17.2C148.197 19.984 148.853 22.512 150.165 24.784C151.477 27.024 153.269 28.784 155.541 30.064C157.845 31.344 160.405 31.984 163.221 31.984ZM212.512 34L204.496 22.768C203.312 22.928 202.224 23.008 201.232 23.008H191.632V34H189.184V0.399998H201.232C205.456 0.399998 208.768 1.408 211.168 3.424C213.568 5.408 214.768 8.176 214.768 11.728C214.768 14.384 214.08 16.624 212.704 18.448C211.36 20.24 209.424 21.504 206.896 22.24L215.296 34H212.512ZM201.232 20.848C204.816 20.848 207.552 20.064 209.44 18.496C211.328 16.896 212.272 14.64 212.272 11.728C212.272 8.816 211.328 6.576 209.44 5.008C207.552 3.408 204.816 2.608 201.232 2.608H191.632V20.848H201.232ZM223.731 0.399998H226.179V34H223.731V0.399998ZM258.671 24.544H239.183L234.911 34H232.271L247.727 0.399998H250.175L265.631 34H262.991L258.671 24.544ZM257.759 22.48L248.927 3.088L240.143 22.48H257.759Z" fill="#E7E7E7"/>
<path d="M15.688 56.2V66H15.1L8.422 57.488V66H7.708V56.2H8.31L14.974 64.712V56.2H15.688ZM21.7423 66.056C21.0517 66.056 20.4263 65.8973 19.8663 65.58C19.3157 65.2627 18.8817 64.824 18.5643 64.264C18.247 63.6947 18.0883 63.0553 18.0883 62.346C18.0883 61.6367 18.247 61.002 18.5643 60.442C18.8817 59.8727 19.3157 59.4293 19.8663 59.112C20.4263 58.7947 21.0517 58.636 21.7423 58.636C22.433 58.636 23.0537 58.7947 23.6043 59.112C24.1643 59.4293 24.603 59.8727 24.9203 60.442C25.2377 61.002 25.3963 61.6367 25.3963 62.346C25.3963 63.0553 25.2377 63.6947 24.9203 64.264C24.603 64.824 24.1643 65.2627 23.6043 65.58C23.0537 65.8973 22.433 66.056 21.7423 66.056ZM21.7423 65.426C22.3023 65.426 22.8017 65.2953 23.2403 65.034C23.6883 64.7727 24.0383 64.4087 24.2903 63.942C24.5517 63.4753 24.6823 62.9433 24.6823 62.346C24.6823 61.7487 24.5517 61.2167 24.2903 60.75C24.0383 60.2833 23.6883 59.9193 23.2403 59.658C22.8017 59.3967 22.3023 59.266 21.7423 59.266C21.1823 59.266 20.6783 59.3967 20.2303 59.658C19.7917 59.9193 19.4417 60.2833 19.1803 60.75C18.9283 61.2167 18.8023 61.7487 18.8023 62.346C18.8023 62.9433 18.9283 63.4753 19.1803 63.942C19.4417 64.4087 19.7917 64.7727 20.2303 65.034C20.6783 65.2953 21.1823 65.426 21.7423 65.426ZM29.416 66.056C28.828 66.056 28.268 65.9673 27.736 65.79C27.204 65.6127 26.7887 65.3887 26.49 65.118L26.812 64.558C27.1107 64.81 27.4933 65.02 27.96 65.188C28.436 65.356 28.9307 65.44 29.444 65.44C30.1813 65.44 30.7227 65.3187 31.068 65.076C31.4227 64.8333 31.6 64.4973 31.6 64.068C31.6 63.76 31.502 63.5173 31.306 63.34C31.1193 63.1627 30.886 63.032 30.606 62.948C30.326 62.864 29.9387 62.7753 29.444 62.682C28.8653 62.5793 28.3987 62.4673 28.044 62.346C27.6893 62.2247 27.386 62.0287 27.134 61.758C26.882 61.4873 26.756 61.114 26.756 60.638C26.756 60.0593 26.994 59.5833 27.47 59.21C27.9553 58.8273 28.6413 58.636 29.528 58.636C29.9947 58.636 30.4567 58.7013 30.914 58.832C31.3713 58.9627 31.7447 59.1353 32.034 59.35L31.712 59.91C31.4133 59.6953 31.0727 59.532 30.69 59.42C30.3073 59.308 29.9153 59.252 29.514 59.252C28.8327 59.252 28.3193 59.378 27.974 59.63C27.6287 59.882 27.456 60.2133 27.456 60.624C27.456 60.9507 27.554 61.2073 27.75 61.394C27.946 61.5713 28.184 61.7067 28.464 61.8C28.7533 61.884 29.1547 61.9773 29.668 62.08C30.2373 62.1827 30.6947 62.2947 31.04 62.416C31.3947 62.528 31.6933 62.7147 31.936 62.976C32.1787 63.2373 32.3 63.5967 32.3 64.054C32.3 64.6607 32.048 65.146 31.544 65.51C31.04 65.874 30.3307 66.056 29.416 66.056ZM39.1955 65.398V66H33.3855V65.524L38.2015 59.294H33.4555V58.692H39.1115V59.168L34.2815 65.398H39.1955ZM44.0275 66.056C43.3368 66.056 42.7115 65.8973 42.1515 65.58C41.6008 65.2627 41.1668 64.824 40.8495 64.264C40.5322 63.6947 40.3735 63.0553 40.3735 62.346C40.3735 61.6367 40.5322 61.002 40.8495 60.442C41.1668 59.8727 41.6008 59.4293 42.1515 59.112C42.7115 58.7947 43.3368 58.636 44.0275 58.636C44.7182 58.636 45.3388 58.7947 45.8895 59.112C46.4495 59.4293 46.8882 59.8727 47.2055 60.442C47.5228 61.002 47.6815 61.6367 47.6815 62.346C47.6815 63.0553 47.5228 63.6947 47.2055 64.264C46.8882 64.824 46.4495 65.2627 45.8895 65.58C45.3388 65.8973 44.7182 66.056 44.0275 66.056ZM44.0275 65.426C44.5875 65.426 45.0868 65.2953 45.5255 65.034C45.9735 64.7727 46.3235 64.4087 46.5755 63.942C46.8368 63.4753 46.9675 62.9433 46.9675 62.346C46.9675 61.7487 46.8368 61.2167 46.5755 60.75C46.3235 60.2833 45.9735 59.9193 45.5255 59.658C45.0868 59.3967 44.5875 59.266 44.0275 59.266C43.4675 59.266 42.9635 59.3967 42.5155 59.658C42.0768 59.9193 41.7268 60.2833 41.4655 60.75C41.2135 61.2167 41.0875 61.7487 41.0875 62.346C41.0875 62.9433 41.2135 63.4753 41.4655 63.942C41.7268 64.4087 42.0768 64.7727 42.5155 65.034C42.9635 65.2953 43.4675 65.426 44.0275 65.426ZM53.4231 58.636C54.3378 58.636 55.0611 58.902 55.5931 59.434C56.1251 59.966 56.3911 60.7313 56.3911 61.73V66H55.6911V61.786C55.6911 60.9647 55.4811 60.3393 55.0611 59.91C54.6505 59.4807 54.0718 59.266 53.3251 59.266C52.4665 59.266 51.7898 59.5227 51.2951 60.036C50.8005 60.5493 50.5531 61.24 50.5531 62.108V66H49.8531V58.692H50.5251V60.274C50.7771 59.7607 51.1505 59.3593 51.6451 59.07C52.1491 58.7807 52.7418 58.636 53.4231 58.636ZM61.7371 58.636C62.6424 58.636 63.3377 58.8693 63.8231 59.336C64.3084 59.7933 64.5511 60.47 64.5511 61.366V66H63.8791V64.698C63.6457 65.1273 63.3051 65.4633 62.8571 65.706C62.4091 65.9393 61.8724 66.056 61.2471 66.056C60.4351 66.056 59.7911 65.8647 59.3151 65.482C58.8484 65.0993 58.6151 64.5953 58.6151 63.97C58.6151 63.3633 58.8297 62.8733 59.2591 62.5C59.6977 62.1173 60.3931 61.926 61.3451 61.926H63.8511V61.338C63.8511 60.6567 63.6644 60.1387 63.2911 59.784C62.9271 59.4293 62.3904 59.252 61.6811 59.252C61.1957 59.252 60.7291 59.336 60.2811 59.504C59.8424 59.672 59.4691 59.896 59.1611 60.176L58.8111 59.672C59.1751 59.3453 59.6137 59.0933 60.1271 58.916C60.6404 58.7293 61.1771 58.636 61.7371 58.636ZM61.3451 65.482C61.9517 65.482 62.4651 65.342 62.8851 65.062C63.3144 64.782 63.6364 64.376 63.8511 63.844V62.472H61.3591C60.6404 62.472 60.1177 62.6027 59.7911 62.864C59.4737 63.1253 59.3151 63.4847 59.3151 63.942C59.3151 64.418 59.4924 64.796 59.8471 65.076C60.2017 65.3467 60.7011 65.482 61.3451 65.482ZM74.6989 58.636C75.3802 58.636 75.9962 58.7947 76.5469 59.112C77.0975 59.42 77.5269 59.8587 77.8349 60.428C78.1522 60.988 78.3109 61.6273 78.3109 62.346C78.3109 63.0647 78.1522 63.704 77.8349 64.264C77.5269 64.824 77.0975 65.2627 76.5469 65.58C75.9962 65.8973 75.3802 66.056 74.6989 66.056C74.0455 66.056 73.4529 65.902 72.9209 65.594C72.3982 65.2767 71.9922 64.838 71.7029 64.278V66H71.0309V55.612H71.7309V60.358C72.0202 59.8167 72.4262 59.3967 72.9489 59.098C73.4715 58.79 74.0549 58.636 74.6989 58.636ZM74.6569 65.426C75.2169 65.426 75.7209 65.2953 76.1689 65.034C76.6169 64.7727 76.9669 64.4087 77.2189 63.942C77.4802 63.4753 77.6109 62.9433 77.6109 62.346C77.6109 61.7487 77.4802 61.2167 77.2189 60.75C76.9669 60.2833 76.6169 59.9193 76.1689 59.658C75.7209 59.3967 75.2169 59.266 74.6569 59.266C74.0969 59.266 73.5929 59.3967 73.1449 59.658C72.7062 59.9193 72.3562 60.2833 72.0949 60.75C71.8429 61.2167 71.7169 61.7487 71.7169 62.346C71.7169 62.9433 71.8429 63.4753 72.0949 63.942C72.3562 64.4087 72.7062 64.7727 73.1449 65.034C73.5929 65.2953 74.0969 65.426 74.6569 65.426ZM80.4781 58.692H81.1781V66H80.4781V58.692ZM80.8281 56.914C80.6695 56.914 80.5341 56.8627 80.4221 56.76C80.3101 56.648 80.2541 56.5127 80.2541 56.354C80.2541 56.1953 80.3101 56.06 80.4221 55.948C80.5341 55.836 80.6695 55.78 80.8281 55.78C80.9868 55.78 81.1221 55.836 81.2341 55.948C81.3461 56.0507 81.4021 56.1813 81.4021 56.34C81.4021 56.4987 81.3461 56.634 81.2341 56.746C81.1221 56.858 80.9868 56.914 80.8281 56.914ZM90.3025 62.514H84.0165C84.0352 63.0833 84.1799 63.592 84.4505 64.04C84.7212 64.4787 85.0852 64.8193 85.5425 65.062C86.0092 65.3047 86.5319 65.426 87.1105 65.426C87.5865 65.426 88.0252 65.342 88.4265 65.174C88.8372 64.9967 89.1779 64.74 89.4485 64.404L89.8545 64.866C89.5372 65.2487 89.1359 65.5427 88.6505 65.748C88.1745 65.9533 87.6565 66.056 87.0965 66.056C86.3685 66.056 85.7199 65.8973 85.1505 65.58C84.5812 65.2627 84.1332 64.824 83.8065 64.264C83.4892 63.704 83.3305 63.0647 83.3305 62.346C83.3305 61.6367 83.4799 61.002 83.7785 60.442C84.0865 59.8727 84.5065 59.4293 85.0385 59.112C85.5705 58.7947 86.1679 58.636 86.8305 58.636C87.4932 58.636 88.0859 58.7947 88.6085 59.112C89.1405 59.42 89.5559 59.854 89.8545 60.414C90.1625 60.974 90.3165 61.6087 90.3165 62.318L90.3025 62.514ZM86.8305 59.252C86.3172 59.252 85.8552 59.3687 85.4445 59.602C85.0339 59.826 84.7025 60.148 84.4505 60.568C84.2079 60.9787 84.0679 61.4453 84.0305 61.968H89.6305C89.6025 61.4453 89.4625 60.9787 89.2105 60.568C88.9585 60.1573 88.6272 59.8353 88.2165 59.602C87.8059 59.3687 87.3439 59.252 86.8305 59.252ZM92.482 55.612H93.182V66H92.482V55.612ZM96.1324 58.692H96.8324V66H96.1324V58.692ZM96.4824 56.914C96.3238 56.914 96.1884 56.8627 96.0764 56.76C95.9644 56.648 95.9084 56.5127 95.9084 56.354C95.9084 56.1953 95.9644 56.06 96.0764 55.948C96.1884 55.836 96.3238 55.78 96.4824 55.78C96.6411 55.78 96.7764 55.836 96.8884 55.948C97.0004 56.0507 97.0564 56.1813 97.0564 56.34C97.0564 56.4987 97.0004 56.634 96.8884 56.746C96.7764 56.858 96.6411 56.914 96.4824 56.914ZM104.725 65.398V66H98.9148V65.524L103.731 59.294H98.9848V58.692H104.641V59.168L99.8108 65.398H104.725ZM110.394 58.636C111.309 58.636 112.032 58.902 112.564 59.434C113.096 59.966 113.362 60.7313 113.362 61.73V66H112.662V61.786C112.662 60.9647 112.452 60.3393 112.032 59.91C111.621 59.4807 111.043 59.266 110.296 59.266C109.437 59.266 108.761 59.5227 108.266 60.036C107.771 60.5493 107.524 61.24 107.524 62.108V66H106.824V58.692H107.496V60.274C107.748 59.7607 108.121 59.3593 108.616 59.07C109.12 58.7807 109.713 58.636 110.394 58.636ZM118.708 58.636C119.613 58.636 120.308 58.8693 120.794 59.336C121.279 59.7933 121.522 60.47 121.522 61.366V66H120.85V64.698C120.616 65.1273 120.276 65.4633 119.828 65.706C119.38 65.9393 118.843 66.056 118.218 66.056C117.406 66.056 116.762 65.8647 116.286 65.482C115.819 65.0993 115.586 64.5953 115.586 63.97C115.586 63.3633 115.8 62.8733 116.23 62.5C116.668 62.1173 117.364 61.926 118.316 61.926H120.822V61.338C120.822 60.6567 120.635 60.1387 120.262 59.784C119.898 59.4293 119.361 59.252 118.652 59.252C118.166 59.252 117.7 59.336 117.252 59.504C116.813 59.672 116.44 59.896 116.132 60.176L115.782 59.672C116.146 59.3453 116.584 59.0933 117.098 58.916C117.611 58.7293 118.148 58.636 118.708 58.636ZM118.316 65.482C118.922 65.482 119.436 65.342 119.856 65.062C120.285 64.782 120.607 64.376 120.822 63.844V62.472H118.33C117.611 62.472 117.088 62.6027 116.762 62.864C116.444 63.1253 116.286 63.4847 116.286 63.942C116.286 64.418 116.463 64.796 116.818 65.076C117.172 65.3467 117.672 65.482 118.316 65.482ZM134.498 55.612V66H133.812V64.278C133.522 64.8473 133.116 65.286 132.594 65.594C132.071 65.902 131.478 66.056 130.816 66.056C130.134 66.056 129.518 65.8973 128.968 65.58C128.417 65.2627 127.983 64.824 127.666 64.264C127.358 63.704 127.204 63.0647 127.204 62.346C127.204 61.6273 127.358 60.988 127.666 60.428C127.983 59.8587 128.417 59.42 128.968 59.112C129.518 58.7947 130.134 58.636 130.816 58.636C131.469 58.636 132.052 58.79 132.566 59.098C133.088 59.406 133.499 59.8353 133.798 60.386V55.612H134.498ZM130.858 65.426C131.418 65.426 131.917 65.2953 132.356 65.034C132.804 64.7727 133.154 64.4087 133.406 63.942C133.667 63.4753 133.798 62.9433 133.798 62.346C133.798 61.7487 133.667 61.2167 133.406 60.75C133.154 60.2833 132.804 59.9193 132.356 59.658C131.917 59.3967 131.418 59.266 130.858 59.266C130.298 59.266 129.794 59.3967 129.346 59.658C128.907 59.9193 128.557 60.2833 128.296 60.75C128.044 61.2167 127.918 61.7487 127.918 62.346C127.918 62.9433 128.044 63.4753 128.296 63.942C128.557 64.4087 128.907 64.7727 129.346 65.034C129.794 65.2953 130.298 65.426 130.858 65.426ZM137.449 55.612H138.149V66H137.449V55.612ZM143.563 58.636C144.469 58.636 145.164 58.8693 145.649 59.336C146.135 59.7933 146.377 60.47 146.377 61.366V66H145.705V64.698C145.472 65.1273 145.131 65.4633 144.683 65.706C144.235 65.9393 143.699 66.056 143.073 66.056C142.261 66.056 141.617 65.8647 141.141 65.482C140.675 65.0993 140.441 64.5953 140.441 63.97C140.441 63.3633 140.656 62.8733 141.085 62.5C141.524 62.1173 142.219 61.926 143.171 61.926H145.677V61.338C145.677 60.6567 145.491 60.1387 145.117 59.784C144.753 59.4293 144.217 59.252 143.507 59.252C143.022 59.252 142.555 59.336 142.107 59.504C141.669 59.672 141.295 59.896 140.987 60.176L140.637 59.672C141.001 59.3453 141.44 59.0933 141.953 58.916C142.467 58.7293 143.003 58.636 143.563 58.636ZM143.171 65.482C143.778 65.482 144.291 65.342 144.711 65.062C145.141 64.782 145.463 64.376 145.677 63.844V62.472H143.185C142.467 62.472 141.944 62.6027 141.617 62.864C141.3 63.1253 141.141 63.4847 141.141 63.942C141.141 64.418 141.319 64.796 141.673 65.076C142.028 65.3467 142.527 65.482 143.171 65.482ZM155.055 56.158C154.14 56.158 153.683 56.648 153.683 57.628V58.692H156.021V59.294H153.697V66H152.997V59.294H151.653V58.692H152.997V57.572C152.997 56.956 153.174 56.466 153.529 56.102C153.884 55.738 154.383 55.556 155.027 55.556C155.307 55.556 155.573 55.598 155.825 55.682C156.086 55.7567 156.301 55.8733 156.469 56.032L156.189 56.564C155.89 56.2933 155.512 56.158 155.055 56.158ZM163.502 62.514H157.216C157.234 63.0833 157.379 63.592 157.65 64.04C157.92 64.4787 158.284 64.8193 158.742 65.062C159.208 65.3047 159.731 65.426 160.31 65.426C160.786 65.426 161.224 65.342 161.626 65.174C162.036 64.9967 162.377 64.74 162.648 64.404L163.054 64.866C162.736 65.2487 162.335 65.5427 161.85 65.748C161.374 65.9533 160.856 66.056 160.296 66.056C159.568 66.056 158.919 65.8973 158.35 65.58C157.78 65.2627 157.332 64.824 157.006 64.264C156.688 63.704 156.53 63.0647 156.53 62.346C156.53 61.6367 156.679 61.002 156.978 60.442C157.286 59.8727 157.706 59.4293 158.238 59.112C158.77 58.7947 159.367 58.636 160.03 58.636C160.692 58.636 161.285 58.7947 161.808 59.112C162.34 59.42 162.755 59.854 163.054 60.414C163.362 60.974 163.516 61.6087 163.516 62.318L163.502 62.514ZM160.03 59.252C159.516 59.252 159.054 59.3687 158.644 59.602C158.233 59.826 157.902 60.148 157.65 60.568C157.407 60.9787 157.267 61.4453 157.23 61.968H162.83C162.802 61.4453 162.662 60.9787 162.41 60.568C162.158 60.1573 161.826 59.8353 161.416 59.602C161.005 59.3687 160.543 59.252 160.03 59.252ZM169.307 65.538C169.13 65.706 168.906 65.8367 168.635 65.93C168.374 66.014 168.099 66.056 167.809 66.056C167.175 66.056 166.685 65.8833 166.339 65.538C165.994 65.1833 165.821 64.6933 165.821 64.068V59.294H164.477V58.692H165.821V57.096H166.521V58.692H168.845V59.294H166.521V63.998C166.521 64.474 166.633 64.838 166.857 65.09C167.091 65.3327 167.431 65.454 167.879 65.454C168.337 65.454 168.715 65.3187 169.013 65.048L169.307 65.538ZM176.989 58.692L173.237 66.994C172.957 67.638 172.63 68.0953 172.257 68.366C171.893 68.6367 171.459 68.772 170.955 68.772C170.619 68.772 170.301 68.716 170.003 68.604C169.713 68.492 169.466 68.3287 169.261 68.114L169.611 67.582C169.984 67.9647 170.437 68.156 170.969 68.156C171.323 68.156 171.627 68.058 171.879 67.862C172.131 67.666 172.364 67.33 172.579 66.854L172.971 65.972L169.681 58.692H170.423L173.349 65.23L176.275 58.692H176.989ZM180.285 66.056C179.697 66.056 179.137 65.9673 178.605 65.79C178.073 65.6127 177.658 65.3887 177.359 65.118L177.681 64.558C177.98 64.81 178.362 65.02 178.829 65.188C179.305 65.356 179.8 65.44 180.313 65.44C181.05 65.44 181.592 65.3187 181.937 65.076C182.292 64.8333 182.469 64.4973 182.469 64.068C182.469 63.76 182.371 63.5173 182.175 63.34C181.988 63.1627 181.755 63.032 181.475 62.948C181.195 62.864 180.808 62.7753 180.313 62.682C179.734 62.5793 179.268 62.4673 178.913 62.346C178.558 62.2247 178.255 62.0287 178.003 61.758C177.751 61.4873 177.625 61.114 177.625 60.638C177.625 60.0593 177.863 59.5833 178.339 59.21C178.824 58.8273 179.51 58.636 180.397 58.636C180.864 58.636 181.326 58.7013 181.783 58.832C182.24 58.9627 182.614 59.1353 182.903 59.35L182.581 59.91C182.282 59.6953 181.942 59.532 181.559 59.42C181.176 59.308 180.784 59.252 180.383 59.252C179.702 59.252 179.188 59.378 178.843 59.63C178.498 59.882 178.325 60.2133 178.325 60.624C178.325 60.9507 178.423 61.2073 178.619 61.394C178.815 61.5713 179.053 61.7067 179.333 61.8C179.622 61.884 180.024 61.9773 180.537 62.08C181.106 62.1827 181.564 62.2947 181.909 62.416C182.264 62.528 182.562 62.7147 182.805 62.976C183.048 63.2373 183.169 63.5967 183.169 64.054C183.169 64.6607 182.917 65.146 182.413 65.51C181.909 65.874 181.2 66.056 180.285 66.056ZM190.065 65.398V66H184.255V65.524L189.071 59.294H184.325V58.692H189.981V59.168L185.151 65.398H190.065ZM197.893 58.692L194.141 66.994C193.861 67.638 193.534 68.0953 193.161 68.366C192.797 68.6367 192.363 68.772 191.859 68.772C191.523 68.772 191.206 68.716 190.907 68.604C190.618 68.492 190.37 68.3287 190.165 68.114L190.515 67.582C190.888 67.9647 191.341 68.156 191.873 68.156C192.228 68.156 192.531 68.058 192.783 67.862C193.035 67.666 193.268 67.33 193.483 66.854L193.875 65.972L190.585 58.692H191.327L194.253 65.23L197.179 58.692H197.893ZM201.189 66.056C200.601 66.056 200.041 65.9673 199.509 65.79C198.977 65.6127 198.562 65.3887 198.263 65.118L198.585 64.558C198.884 64.81 199.267 65.02 199.733 65.188C200.209 65.356 200.704 65.44 201.217 65.44C201.955 65.44 202.496 65.3187 202.841 65.076C203.196 64.8333 203.373 64.4973 203.373 64.068C203.373 63.76 203.275 63.5173 203.079 63.34C202.893 63.1627 202.659 63.032 202.379 62.948C202.099 62.864 201.712 62.7753 201.217 62.682C200.639 62.5793 200.172 62.4673 199.817 62.346C199.463 62.2247 199.159 62.0287 198.907 61.758C198.655 61.4873 198.529 61.114 198.529 60.638C198.529 60.0593 198.767 59.5833 199.243 59.21C199.729 58.8273 200.415 58.636 201.301 58.636C201.768 58.636 202.23 58.7013 202.687 58.832C203.145 58.9627 203.518 59.1353 203.807 59.35L203.485 59.91C203.187 59.6953 202.846 59.532 202.463 59.42C202.081 59.308 201.689 59.252 201.287 59.252C200.606 59.252 200.093 59.378 199.747 59.63C199.402 59.882 199.229 60.2133 199.229 60.624C199.229 60.9507 199.327 61.2073 199.523 61.394C199.719 61.5713 199.957 61.7067 200.237 61.8C200.527 61.884 200.928 61.9773 201.441 62.08C202.011 62.1827 202.468 62.2947 202.813 62.416C203.168 62.528 203.467 62.7147 203.709 62.976C203.952 63.2373 204.073 63.5967 204.073 64.054C204.073 64.6607 203.821 65.146 203.317 65.51C202.813 65.874 202.104 66.056 201.189 66.056ZM209.653 65.538C209.476 65.706 209.252 65.8367 208.981 65.93C208.72 66.014 208.444 66.056 208.155 66.056C207.52 66.056 207.03 65.8833 206.685 65.538C206.34 65.1833 206.167 64.6933 206.167 64.068V59.294H204.823V58.692H206.167V57.096H206.867V58.692H209.191V59.294H206.867V63.998C206.867 64.474 206.979 64.838 207.203 65.09C207.436 65.3327 207.777 65.454 208.225 65.454C208.682 65.454 209.06 65.3187 209.359 65.048L209.653 65.538ZM214.201 66.056C213.511 66.056 212.885 65.8973 212.325 65.58C211.775 65.2627 211.341 64.824 211.023 64.264C210.706 63.6947 210.547 63.0553 210.547 62.346C210.547 61.6367 210.706 61.002 211.023 60.442C211.341 59.8727 211.775 59.4293 212.325 59.112C212.885 58.7947 213.511 58.636 214.201 58.636C214.892 58.636 215.513 58.7947 216.063 59.112C216.623 59.4293 217.062 59.8727 217.379 60.442C217.697 61.002 217.855 61.6367 217.855 62.346C217.855 63.0553 217.697 63.6947 217.379 64.264C217.062 64.824 216.623 65.2627 216.063 65.58C215.513 65.8973 214.892 66.056 214.201 66.056ZM214.201 65.426C214.761 65.426 215.261 65.2953 215.699 65.034C216.147 64.7727 216.497 64.4087 216.749 63.942C217.011 63.4753 217.141 62.9433 217.141 62.346C217.141 61.7487 217.011 61.2167 216.749 60.75C216.497 60.2833 216.147 59.9193 215.699 59.658C215.261 59.3967 214.761 59.266 214.201 59.266C213.641 59.266 213.137 59.3967 212.689 59.658C212.251 59.9193 211.901 60.2833 211.639 60.75C211.387 61.2167 211.261 61.7487 211.261 62.346C211.261 62.9433 211.387 63.4753 211.639 63.942C211.901 64.4087 212.251 64.7727 212.689 65.034C213.137 65.2953 213.641 65.426 214.201 65.426ZM215.349 55.85H216.357L214.159 57.502H213.403L215.349 55.85ZM230.266 58.692L227.494 66H226.836L224.372 59.658L221.894 66H221.25L218.478 58.692H219.15L221.586 65.216L224.078 58.692H224.68L227.158 65.202L229.622 58.692H230.266Z" fill="#E7E7E7"/>
<rect x="6" y="43" width="260" height="1" fill="#E7E7E7"/>
</svg>
