<svg width="266" height="46" viewBox="0 0 266 46" fill="none" xmlns="http://www.w3.org/2000/svg">
<path d="M29.04 42.792V45H5.856V11.4H28.32V13.608H8.304V26.856H26.208V29.016H8.304V42.792H29.04ZM51.1174 45.24C46.8614 45.24 43.5494 44.008 41.1814 41.544C38.8454 39.08 37.6774 35.48 37.6774 30.744V11.4H40.1254V30.648C40.1254 34.776 41.0694 37.864 42.9574 39.912C44.8454 41.96 47.5814 42.984 51.1654 42.984C54.7174 42.984 57.4374 41.96 59.3254 39.912C61.2134 37.864 62.1574 34.776 62.1574 30.648V11.4H64.6054V30.744C64.6054 35.48 63.4214 39.08 61.0534 41.544C58.6854 44.008 55.3734 45.24 51.1174 45.24ZM88.0759 11.4C92.2999 11.4 95.6119 12.408 98.0119 14.424C100.412 16.408 101.612 19.176 101.612 22.728C101.612 26.248 100.412 29.016 98.0119 31.032C95.6119 33.016 92.2999 34.008 88.0759 34.008H78.4759V45H76.0279V11.4H88.0759ZM88.0759 31.8C91.6599 31.8 94.3959 31.016 96.2839 29.448C98.1719 27.88 99.1159 25.64 99.1159 22.728C99.1159 19.816 98.1719 17.576 96.2839 16.008C94.3959 14.408 91.6599 13.608 88.0759 13.608H78.4759V31.8H88.0759ZM137.232 11.4V45H134.784V29.016H112.32V45H109.872V11.4H112.32V26.856H134.784V11.4H137.232ZM163.221 45.24C159.925 45.24 156.949 44.504 154.293 43.032C151.637 41.528 149.541 39.48 148.005 36.888C146.501 34.296 145.749 31.4 145.749 28.2C145.749 25 146.501 22.104 148.005 19.512C149.541 16.92 151.637 14.888 154.293 13.416C156.949 11.912 159.925 11.16 163.221 11.16C166.517 11.16 169.493 11.896 172.149 13.368C174.805 14.84 176.885 16.872 178.389 19.464C179.925 22.056 180.693 24.968 180.693 28.2C180.693 31.432 179.925 34.344 178.389 36.936C176.885 39.528 174.805 41.56 172.149 43.032C169.493 44.504 166.517 45.24 163.221 45.24ZM163.221 42.984C166.037 42.984 168.581 42.344 170.853 41.064C173.125 39.784 174.917 38.024 176.229 35.784C177.541 33.512 178.197 30.984 178.197 28.2C178.197 25.416 177.541 22.904 176.229 20.664C174.917 18.392 173.125 16.616 170.853 15.336C168.581 14.056 166.037 13.416 163.221 13.416C160.405 13.416 157.845 14.056 155.541 15.336C153.269 16.616 151.477 18.392 150.165 20.664C148.853 22.904 148.197 25.416 148.197 28.2C148.197 30.984 148.853 33.512 150.165 35.784C151.477 38.024 153.269 39.784 155.541 41.064C157.845 42.344 160.405 42.984 163.221 42.984ZM212.512 45L204.496 33.768C203.312 33.928 202.224 34.008 201.232 34.008H191.632V45H189.184V11.4H201.232C205.456 11.4 208.768 12.408 211.168 14.424C213.568 16.408 214.768 19.176 214.768 22.728C214.768 25.384 214.08 27.624 212.704 29.448C211.36 31.24 209.424 32.504 206.896 33.24L215.296 45H212.512ZM201.232 31.848C204.816 31.848 207.552 31.064 209.44 29.496C211.328 27.896 212.272 25.64 212.272 22.728C212.272 19.816 211.328 17.576 209.44 16.008C207.552 14.408 204.816 13.608 201.232 13.608H191.632V31.848H201.232ZM223.731 11.4H226.179V45H223.731V11.4ZM258.671 35.544H239.183L234.911 45H232.271L247.727 11.4H250.175L265.631 45H262.991L258.671 35.544ZM257.759 33.48L248.927 14.088L240.143 33.48H257.759Z" fill="#2D2D2D"/>
<path d="M147.78 0C146.097 8.27547 147.049 12.2557 151.497 15.4009C153.223 15.6173 153.779 15.2289 153.887 13.5422C149.381 11.1488 148.263 7.8835 147.78 0Z" fill="#B80202"/>
<path d="M178.125 0C179.682 8.24623 178.801 12.2124 174.685 15.3465C173.088 15.5621 172.573 15.1751 172.474 13.4943C176.643 11.1094 177.678 7.85564 178.125 0Z" fill="#B80202"/>
</svg>
