<svg width="257" height="410" viewBox="0 0 257 410" fill="none" xmlns="http://www.w3.org/2000/svg">
<path d="M80.8009 85.76C80.8009 93.12 81.0809 99.2 81.6409 104C76.2009 103.76 67.0409 103.64 54.1609 103.64C36.7209 103.64 23.6809 103.76 15.0409 104V101.6C17.6809 101.44 19.6009 101.12 20.8009 100.64C22.0809 100.16 22.9209 99.24 23.3209 97.88C23.8009 96.52 24.0409 94.32 24.0409 91.28V31.76C24.0409 28.72 23.8009 26.52 23.3209 25.16C22.9209 23.8 22.0809 22.88 20.8009 22.4C19.6009 21.92 17.6809 21.6 15.0409 21.44V19.04C23.6809 19.28 36.7209 19.4 54.1609 19.4C65.9209 19.4 74.2809 19.28 79.2409 19.04C78.6809 25.68 78.4009 31.6 78.4009 36.8C78.4009 40.32 78.5209 43.04 78.7609 44.96H76.0009C74.8009 36.4 72.6409 30.4 69.5209 26.96C66.4009 23.52 62.0009 21.8 56.3209 21.8H51.4009C48.9209 21.8 47.1209 22 46.0009 22.4C44.8809 22.8 44.1209 23.6 43.7209 24.8C43.3209 25.92 43.1209 27.76 43.1209 30.32V60.08H46.9609C51.2009 60.08 54.4009 58.52 56.5609 55.4C58.8009 52.28 60.3609 48.56 61.2409 44.24H64.0009C63.7609 47.6 63.6409 51.36 63.6409 55.52V61.28C63.6409 65.36 63.8809 71.04 64.3609 78.32H61.6009C59.9209 67.76 55.0409 62.48 46.9609 62.48H43.1209V92.72C43.1209 95.28 43.3209 97.16 43.7209 98.36C44.1209 99.48 44.8809 100.24 46.0009 100.64C47.1209 101.04 48.9209 101.24 51.4009 101.24H57.2809C62.9609 101.24 67.5209 99.32 70.9609 95.48C74.4809 91.56 76.9609 84.96 78.4009 75.68H81.1609C80.9209 78.32 80.8009 81.68 80.8009 85.76ZM167.536 21.44C164.896 21.84 162.936 22.52 161.656 23.48C160.456 24.44 159.616 25.96 159.136 28.04C158.736 30.12 158.536 33.2 158.536 37.28V69.08C158.536 80.52 156.896 89 153.616 94.52C151.456 98.04 148.336 100.8 144.256 102.8C140.176 104.72 135.176 105.68 129.256 105.68C119.976 105.68 112.776 103.68 107.656 99.68C103.976 96.72 101.496 93 100.216 88.52C98.9356 83.96 98.2956 77.6 98.2956 69.44V31.76C98.2956 28.72 98.0556 26.52 97.5756 25.16C97.1756 23.8 96.3356 22.88 95.0556 22.4C93.8556 21.92 91.9356 21.6 89.2956 21.44V19.04C93.3756 19.28 99.6156 19.4 108.016 19.4C116.336 19.4 122.696 19.28 127.096 19.04V21.44C124.216 21.6 122.096 21.92 120.736 22.4C119.456 22.88 118.576 23.8 118.096 25.16C117.616 26.52 117.376 28.72 117.376 31.76V77C117.376 85.4 118.576 91.6 120.976 95.6C123.456 99.52 127.776 101.48 133.936 101.48C141.936 101.48 147.576 98.8 150.856 93.44C154.136 88 155.776 80.32 155.776 70.4V38.72C155.776 34.08 155.496 30.64 154.936 28.4C154.376 26.16 153.296 24.56 151.696 23.6C150.096 22.56 147.576 21.84 144.136 21.44V19.04C147.176 19.28 151.496 19.4 157.096 19.4C161.576 19.4 165.056 19.28 167.536 19.04V21.44ZM201.91 69.68V90.56C201.91 93.76 202.23 96.12 202.87 97.64C203.59 99.08 204.79 100.04 206.47 100.52C208.23 101 210.99 101.28 214.75 101.36V104C204.91 103.76 197.59 103.64 192.79 103.64C188.79 103.64 183.75 103.72 177.67 103.88L173.83 104V101.6C176.47 101.44 178.39 101.12 179.59 100.64C180.87 100.16 181.71 99.24 182.11 97.88C182.59 96.52 182.83 94.32 182.83 91.28V31.76C182.83 28.72 182.59 26.52 182.11 25.16C181.71 23.8 180.87 22.88 179.59 22.4C178.39 21.92 176.47 21.6 173.83 21.44V19.04C177.91 19.28 183.99 19.4 192.07 19.4L205.39 19.28C206.99 19.2 208.83 19.16 210.91 19.16C221.71 19.16 229.95 21.32 235.63 25.64C241.31 29.88 244.15 35.6 244.15 42.8C244.15 47.2 243.03 51.44 240.79 55.52C238.55 59.52 234.75 62.88 229.39 65.6C224.11 68.32 217.07 69.68 208.27 69.68H201.91ZM209.35 21.44C207.19 21.44 205.59 21.72 204.55 22.28C203.59 22.84 202.91 23.84 202.51 25.28C202.11 26.72 201.91 28.88 201.91 31.76V67.28H207.07C213.55 67.28 218.03 65.2 220.51 61.04C222.99 56.88 224.23 51.24 224.23 44.12C224.23 36.36 223.07 30.64 220.75 26.96C218.51 23.28 214.71 21.44 209.35 21.44ZM124.974 129.44C122.254 129.6 120.294 129.92 119.094 130.4C117.894 130.88 117.054 131.8 116.574 133.16C116.174 134.52 115.974 136.72 115.974 139.76V199.28C115.974 202.32 116.174 204.52 116.574 205.88C117.054 207.24 117.894 208.16 119.094 208.64C120.294 209.12 122.254 209.44 124.974 209.6V212C121.054 211.76 114.974 211.64 106.734 211.64C98.6536 211.64 92.3736 211.76 87.8936 212V209.6C90.5336 209.44 92.4536 209.12 93.6536 208.64C94.9336 208.16 95.7736 207.24 96.1736 205.88C96.6536 204.52 96.8936 202.32 96.8936 199.28V170.48H65.0936V199.28C65.0936 202.32 65.2936 204.52 65.6936 205.88C66.1736 207.24 67.0136 208.16 68.2136 208.64C69.4136 209.12 71.3736 209.44 74.0936 209.6V212C69.7736 211.76 63.7336 211.64 55.9736 211.64C47.4136 211.64 41.0936 211.76 37.0136 212V209.6C39.6536 209.44 41.5736 209.12 42.7736 208.64C44.0536 208.16 44.8936 207.24 45.2936 205.88C45.7736 204.52 46.0136 202.32 46.0136 199.28V139.76C46.0136 136.72 45.7736 134.52 45.2936 133.16C44.8936 131.8 44.0536 130.88 42.7736 130.4C41.5736 129.92 39.6536 129.6 37.0136 129.44V127.04C41.0936 127.28 47.4136 127.4 55.9736 127.4C63.7336 127.4 69.7736 127.28 74.0936 127.04V129.44C71.3736 129.6 69.4136 129.92 68.2136 130.4C67.0136 130.88 66.1736 131.8 65.6936 133.16C65.2936 134.52 65.0936 136.72 65.0936 139.76V168.08H96.8936V139.76C96.8936 136.72 96.6536 134.52 96.1736 133.16C95.7736 131.8 94.9336 130.88 93.6536 130.4C92.4536 129.92 90.5336 129.6 87.8936 129.44V127.04C92.3736 127.28 98.6536 127.4 106.734 127.4C114.974 127.4 121.054 127.28 124.974 127.04V129.44ZM109.819 314.72C107.659 317.2 105.339 318.96 102.859 320C100.379 321.12 97.3789 321.68 93.8589 321.68C89.2189 321.68 85.5389 320.72 82.8189 318.8C80.1789 316.8 78.4589 313.44 77.6589 308.72L75.4989 296.72C74.4589 290.88 73.1789 286.6 71.6589 283.88C70.2189 281.08 67.7789 279.68 64.3389 279.68H56.5389V307.28C56.5389 310.32 56.7389 312.52 57.1389 313.88C57.6189 315.24 58.4589 316.16 59.6589 316.64C60.8589 317.12 62.8189 317.44 65.5389 317.6V320C61.2189 319.76 55.1789 319.64 47.4189 319.64C38.8589 319.64 32.5389 319.76 28.4589 320V317.6C31.0989 317.44 33.0189 317.12 34.2189 316.64C35.4989 316.16 36.3389 315.24 36.7389 313.88C37.2189 312.52 37.4589 310.32 37.4589 307.28V247.76C37.4589 244.72 37.2189 242.52 36.7389 241.16C36.3389 239.8 35.4989 238.88 34.2189 238.4C33.0189 237.92 31.0989 237.6 28.4589 237.44V235.04C32.5389 235.28 38.6189 235.4 46.6989 235.4L60.0189 235.28C61.6189 235.2 63.4589 235.16 65.5389 235.16C76.5789 235.16 84.8589 236.96 90.3789 240.56C95.9789 244.16 98.7789 249.32 98.7789 256.04C98.7789 261.72 96.6989 266.72 92.5389 271.04C88.3789 275.36 81.4989 278.08 71.8989 279.2C79.0989 279.84 84.4589 281.4 87.9789 283.88C91.4989 286.36 93.7789 290.08 94.8189 295.04L97.5789 307.4C98.2189 310.6 98.9389 312.84 99.7389 314.12C100.619 315.4 101.819 316.04 103.339 316.04C104.299 315.96 105.099 315.72 105.739 315.32C106.459 314.92 107.259 314.24 108.139 313.28L109.819 314.72ZM63.9789 237.44C61.8189 237.44 60.2189 237.72 59.1789 238.28C58.2189 238.84 57.5389 239.84 57.1389 241.28C56.7389 242.72 56.5389 244.88 56.5389 247.76V277.28H61.6989C68.2589 277.28 72.7389 275.56 75.1389 272.12C77.6189 268.6 78.8589 263.68 78.8589 257.36C78.8589 250.8 77.6989 245.84 75.3789 242.48C73.0589 239.12 69.2589 237.44 63.9789 237.44ZM148.625 237.44C145.905 237.6 143.945 237.92 142.745 238.4C141.545 238.88 140.705 239.8 140.225 241.16C139.825 242.52 139.625 244.72 139.625 247.76V307.28C139.625 310.32 139.825 312.52 140.225 313.88C140.705 315.24 141.545 316.16 142.745 316.64C143.945 317.12 145.905 317.44 148.625 317.6V320C144.305 319.76 138.265 319.64 130.505 319.64C121.945 319.64 115.625 319.76 111.545 320V317.6C114.185 317.44 116.105 317.12 117.305 316.64C118.585 316.16 119.425 315.24 119.825 313.88C120.305 312.52 120.545 310.32 120.545 307.28V247.76C120.545 244.72 120.305 242.52 119.825 241.16C119.425 239.8 118.585 238.88 117.305 238.4C116.105 237.92 114.185 237.6 111.545 237.44V235.04C115.625 235.28 121.945 235.4 130.505 235.4C138.265 235.4 144.305 235.28 148.625 235.04V237.44ZM225.902 309.92C226.942 312.56 228.142 314.48 229.502 315.68C230.862 316.88 232.182 317.52 233.462 317.6V320C228.662 319.76 222.582 319.64 215.222 319.64C207.062 319.64 200.982 319.76 196.982 320V317.6C200.022 317.44 202.182 317.08 203.462 316.52C204.742 315.88 205.382 314.8 205.382 313.28C205.382 311.84 204.902 309.92 203.942 307.52L196.742 287.84H170.582L167.462 296.12C165.222 301.88 164.102 306.32 164.102 309.44C164.102 312.4 164.982 314.48 166.742 315.68C168.582 316.8 171.262 317.44 174.782 317.6V320C169.342 319.76 164.382 319.64 159.902 319.64C156.222 319.64 153.182 319.76 150.782 320V317.6C154.702 316.88 158.142 312.68 161.102 305L188.462 234.8C189.342 234.88 190.742 234.92 192.662 234.92C194.582 234.92 195.942 234.88 196.742 234.8L225.902 309.92ZM195.902 285.44L184.022 253.04L171.542 285.44H195.902Z" fill="#E7E7E7"/>
<path d="M176.55 125.36C185.03 125.36 192.43 127.08 198.75 130.52C205.15 133.96 210.11 138.96 213.63 145.52C217.15 152 218.91 159.76 218.91 168.8C218.91 177.6 217.11 185.4 213.51 192.2C209.91 199 204.87 204.28 198.39 208.04C191.99 211.8 184.67 213.68 176.43 213.68C167.95 213.68 160.51 211.96 154.11 208.52C147.79 205.08 142.87 200.12 139.35 193.64C135.83 187.08 134.07 179.28 134.07 170.24C134.07 161.44 135.87 153.64 139.47 146.84C143.07 140.04 148.07 134.76 154.47 131C160.95 127.24 168.31 125.36 176.55 125.36ZM176.07 127.52C171.67 127.52 167.79 129.32 164.43 132.92C161.07 136.44 158.47 141.4 156.63 147.8C154.87 154.2 153.99 161.52 153.99 169.76C153.99 178.08 154.99 185.4 156.99 191.72C159.07 198.04 161.83 202.92 165.27 206.36C168.79 209.8 172.67 211.52 176.91 211.52C181.31 211.52 185.19 209.76 188.55 206.24C191.91 202.64 194.47 197.64 196.23 191.24C198.07 184.84 198.99 177.52 198.99 169.28C198.99 160.96 197.95 153.64 195.87 147.32C193.87 141 191.11 136.12 187.59 132.68C184.15 129.24 180.31 127.52 176.07 127.52Z" fill="#B80202"/>
<path d="M207.689 141C204.217 139.708 202.992 138.254 202 134.453C213.991 131.602 213.638 126.002 207.689 113C219.788 124.69 220.416 130.86 207.689 141Z" fill="#DA0000"/>
<path d="M145.553 142C149.202 140.359 150.656 138.916 152 134.985C138.41 131.931 138.81 125.93 145.553 112C131.84 124.525 131.129 131.136 145.553 142Z" fill="#DA0000"/>
<path d="M34.146 333.004C34.866 333.004 35.478 333.106 35.982 333.31C36.486 333.514 36.978 333.802 37.458 334.174C37.59 334.282 37.704 334.336 37.8 334.336C38.04 334.336 38.196 333.976 38.268 333.256H38.682C38.634 334.072 38.61 335.524 38.61 337.612H38.196C38.088 336.724 37.944 336.046 37.764 335.578C37.584 335.11 37.278 334.702 36.846 334.354C36.546 334.066 36.198 333.85 35.802 333.706C35.406 333.55 34.992 333.472 34.56 333.472C33.348 333.472 32.448 334.066 31.86 335.254C31.272 336.43 30.978 337.9 30.978 339.664C30.978 341.416 31.284 342.88 31.896 344.056C32.508 345.232 33.42 345.82 34.632 345.82C35.04 345.82 35.442 345.748 35.838 345.604C36.246 345.448 36.588 345.226 36.864 344.938C37.308 344.602 37.614 344.182 37.782 343.678C37.962 343.174 38.1 342.436 38.196 341.464H38.61C38.61 343.636 38.634 345.148 38.682 346H38.268C38.232 345.616 38.178 345.346 38.106 345.19C38.046 345.022 37.956 344.938 37.836 344.938C37.74 344.938 37.614 344.986 37.458 345.082C36.918 345.466 36.402 345.76 35.91 345.964C35.418 346.156 34.824 346.252 34.128 346.252C32.856 346.252 31.74 345.994 30.78 345.478C29.832 344.962 29.094 344.218 28.566 343.246C28.038 342.262 27.774 341.092 27.774 339.736C27.774 338.416 28.044 337.246 28.584 336.226C29.124 335.206 29.874 334.414 30.834 333.85C31.806 333.286 32.91 333.004 34.146 333.004ZM43.1834 345.73H44.1194C44.8874 345.73 45.5354 345.478 46.0634 344.974C46.5914 344.458 46.9034 343.636 46.9994 342.508H47.3774C47.3774 344.212 47.4014 345.4 47.4494 346.072C46.4774 346.024 45.3254 346 43.9934 346C42.8174 346 41.5694 346.03 40.2494 346.09L44.7494 336.964H43.7414C42.0254 336.964 41.0894 338.038 40.9334 340.186H40.5554C40.5554 338.482 40.5314 337.294 40.4834 336.622C41.4554 336.67 42.6074 336.694 43.9394 336.694C45.1154 336.694 46.3634 336.664 47.6834 336.604L43.1834 345.73ZM56.0648 336.748C56.6648 336.748 57.1268 336.73 57.4508 336.694V337.054C57.1988 337.126 56.9708 337.282 56.7668 337.522C56.5748 337.75 56.3888 338.11 56.2088 338.602L52.9868 347.656C52.7468 348.28 52.4828 348.706 52.1948 348.934C51.8468 349.234 51.3248 349.384 50.6288 349.384C50.1248 349.384 49.6688 349.258 49.2608 349.006C48.8648 348.766 48.6668 348.412 48.6668 347.944C48.6668 347.572 48.7988 347.272 49.0628 347.044C49.3268 346.828 49.6748 346.72 50.1068 346.72C50.5148 346.72 50.8388 346.816 51.0788 347.008C51.3308 347.212 51.4568 347.494 51.4568 347.854C51.4568 348.106 51.3788 348.334 51.2228 348.538C51.0668 348.754 50.8448 348.916 50.5568 349.024C50.6408 349.036 50.7788 349.042 50.9708 349.042C51.7148 349.042 52.2608 348.568 52.6088 347.62L52.8968 346.756L49.0808 338.08C48.8888 337.672 48.7028 337.402 48.5228 337.27C48.3428 337.138 48.1568 337.072 47.9648 337.072V336.694C48.7568 336.766 49.5788 336.802 50.4308 336.802C51.1388 336.802 51.9728 336.766 52.9328 336.694V337.072C52.5488 337.072 52.2608 337.102 52.0688 337.162C51.8888 337.21 51.7988 337.348 51.7988 337.576C51.7988 337.708 51.8408 337.876 51.9248 338.08L54.1208 343.39L55.3628 339.934C55.5548 339.37 55.6508 338.89 55.6508 338.494C55.6508 337.618 55.2068 337.138 54.3188 337.054V336.694C54.8828 336.73 55.4648 336.748 56.0648 336.748ZM61.1274 344.326C61.1274 344.818 61.2114 345.16 61.3794 345.352C61.5474 345.532 61.8474 345.622 62.2794 345.622V346C61.0314 345.952 60.2274 345.928 59.8674 345.928C59.4594 345.928 58.6314 345.952 57.3834 346V345.622C57.8034 345.622 58.0974 345.532 58.2654 345.352C58.4454 345.16 58.5354 344.818 58.5354 344.326V334.066C58.5354 333.514 58.4454 333.112 58.2654 332.86C58.0974 332.608 57.8034 332.482 57.3834 332.482V332.104C57.7674 332.14 58.1394 332.158 58.4994 332.158C59.5434 332.158 60.4194 332.074 61.1274 331.906V344.326ZM65.3853 332.05C65.8893 332.05 66.2853 332.176 66.5733 332.428C66.8733 332.668 67.0233 333.004 67.0233 333.436C67.0233 333.868 66.8733 334.21 66.5733 334.462C66.2853 334.702 65.8893 334.822 65.3853 334.822C64.8813 334.822 64.4793 334.702 64.1793 334.462C63.8913 334.21 63.7473 333.868 63.7473 333.436C63.7473 333.004 63.8913 332.668 64.1793 332.428C64.4793 332.176 64.8813 332.05 65.3853 332.05ZM66.7893 344.326C66.7893 344.818 66.8733 345.16 67.0413 345.352C67.2213 345.532 67.5213 345.622 67.9413 345.622V346C66.7413 345.952 65.9433 345.928 65.5473 345.928C65.1753 345.928 64.3413 345.952 63.0453 346V345.622C63.4773 345.622 63.7773 345.532 63.9453 345.352C64.1133 345.16 64.1973 344.818 64.1973 344.326V338.656C64.1973 338.104 64.1133 337.702 63.9453 337.45C63.7773 337.198 63.4773 337.072 63.0453 337.072V336.694C63.4293 336.73 63.8013 336.748 64.1613 336.748C65.2293 336.748 66.1053 336.664 66.7893 336.496V344.326ZM159.976 344.326C159.976 344.818 160.06 345.16 160.228 345.352C160.408 345.532 160.708 345.622 161.128 345.622V346C159.928 345.952 159.136 345.928 158.752 345.928C158.416 345.928 157.672 345.952 156.52 346V345.622C156.844 345.622 157.066 345.532 157.186 345.352C157.318 345.172 157.384 344.83 157.384 344.326V338.728C157.384 338.224 157.306 337.852 157.15 337.612C157.006 337.36 156.724 337.234 156.304 337.234C155.86 337.234 155.47 337.42 155.134 337.792C154.81 338.164 154.618 338.62 154.558 339.16V339.484V344.326C154.558 344.818 154.63 345.16 154.774 345.352C154.93 345.532 155.206 345.622 155.602 345.622V346C154.45 345.952 153.694 345.928 153.334 345.928C152.998 345.928 152.254 345.952 151.102 346V345.622C151.426 345.622 151.648 345.532 151.768 345.352C151.9 345.16 151.966 344.818 151.966 344.326V338.728C151.966 338.224 151.9 337.852 151.768 337.612C151.636 337.36 151.378 337.234 150.994 337.234C150.514 337.234 150.1 337.438 149.752 337.846C149.416 338.242 149.248 338.734 149.248 339.322V344.326C149.248 344.818 149.308 345.16 149.428 345.352C149.56 345.532 149.788 345.622 150.112 345.622V346C149.056 345.952 148.348 345.928 147.988 345.928C147.628 345.928 146.8 345.952 145.504 346V345.622C145.936 345.622 146.236 345.532 146.404 345.352C146.572 345.16 146.656 344.818 146.656 344.326V338.656C146.656 338.104 146.572 337.702 146.404 337.45C146.236 337.198 145.936 337.072 145.504 337.072V336.694C145.888 336.73 146.26 336.748 146.62 336.748C147.688 336.748 148.564 336.664 149.248 336.496V338.116C149.776 337 150.706 336.442 152.038 336.442C152.95 336.442 153.61 336.676 154.018 337.144C154.246 337.384 154.396 337.744 154.468 338.224C154.78 337.576 155.188 337.12 155.692 336.856C156.196 336.58 156.784 336.442 157.456 336.442C158.368 336.442 159.028 336.676 159.436 337.144C159.628 337.36 159.766 337.654 159.85 338.026C159.934 338.398 159.976 338.884 159.976 339.484V344.326ZM164.175 346.126C163.407 346.126 162.831 345.928 162.447 345.532C162.075 345.136 161.889 344.614 161.889 343.966C161.889 343.426 162.027 342.982 162.303 342.634C162.591 342.274 162.933 341.998 163.329 341.806C163.737 341.614 164.253 341.41 164.877 341.194C165.537 340.966 166.017 340.762 166.317 340.582C166.629 340.39 166.785 340.132 166.785 339.808V338.404C166.785 337.9 166.665 337.51 166.425 337.234C166.197 336.946 165.837 336.802 165.345 336.802C164.769 336.802 164.331 336.946 164.031 337.234C164.367 337.354 164.625 337.534 164.805 337.774C164.997 338.014 165.093 338.296 165.093 338.62C165.093 339.028 164.955 339.352 164.679 339.592C164.403 339.832 164.067 339.952 163.671 339.952C163.251 339.952 162.927 339.82 162.699 339.556C162.471 339.292 162.357 338.962 162.357 338.566C162.357 338.23 162.435 337.948 162.591 337.72C162.759 337.48 163.011 337.258 163.347 337.054C163.671 336.862 164.067 336.712 164.535 336.604C165.015 336.496 165.537 336.442 166.101 336.442C166.689 336.442 167.199 336.502 167.631 336.622C168.063 336.742 168.423 336.946 168.711 337.234C168.975 337.498 169.149 337.822 169.233 338.206C169.329 338.59 169.377 339.112 169.377 339.772V344.668C169.377 344.956 169.401 345.16 169.449 345.28C169.509 345.4 169.617 345.46 169.773 345.46C169.953 345.46 170.169 345.358 170.421 345.154L170.601 345.46C170.061 345.904 169.401 346.126 168.621 346.126C167.961 346.126 167.499 345.994 167.235 345.73C166.971 345.466 166.833 345.112 166.821 344.668C166.221 345.64 165.339 346.126 164.175 346.126ZM165.561 344.974C166.029 344.974 166.437 344.728 166.785 344.236V340.546C166.641 340.786 166.335 341.05 165.867 341.338C165.399 341.638 165.045 341.938 164.805 342.238C164.565 342.538 164.445 342.97 164.445 343.534C164.445 344.026 164.547 344.392 164.751 344.632C164.955 344.86 165.225 344.974 165.561 344.974ZM170.27 349.06C170.87 349.036 171.338 348.796 171.674 348.34C172.022 347.884 172.196 347.212 172.196 346.324V338.656C172.196 338.104 172.106 337.702 171.926 337.45C171.758 337.198 171.464 337.072 171.044 337.072V336.694C171.428 336.73 171.8 336.748 172.16 336.748C173.204 336.748 174.08 336.664 174.788 336.496V344.308C174.788 345.316 174.686 346.144 174.482 346.792C174.29 347.44 173.96 347.98 173.492 348.412C172.784 349.06 171.71 349.384 170.27 349.384V349.06ZM173.294 332.05C173.798 332.05 174.194 332.176 174.482 332.428C174.782 332.668 174.932 333.004 174.932 333.436C174.932 333.868 174.782 334.21 174.482 334.462C174.194 334.702 173.798 334.822 173.294 334.822C172.79 334.822 172.388 334.702 172.088 334.462C171.8 334.21 171.656 333.868 171.656 333.436C171.656 333.004 171.8 332.668 172.088 332.428C172.388 332.176 172.79 332.05 173.294 332.05ZM180.113 336.694H182.237V337.054H180.113V344.326C180.113 344.686 180.173 344.944 180.293 345.1C180.425 345.244 180.629 345.316 180.905 345.316C181.421 345.316 181.829 344.956 182.129 344.236L182.435 344.398C181.979 345.634 181.157 346.252 179.969 346.252C179.177 346.252 178.577 346.048 178.169 345.64C177.917 345.388 177.743 345.076 177.647 344.704C177.563 344.32 177.521 343.798 177.521 343.138V337.054H176.009V336.694H177.521V334.318C178.517 334.318 179.381 334.126 180.113 333.742V336.694ZM188.009 344.776C188.993 344.776 189.785 344.296 190.385 343.336L190.709 343.444C190.469 344.224 190.037 344.89 189.413 345.442C188.801 345.982 188.033 346.252 187.109 346.252C185.837 346.252 184.823 345.85 184.067 345.046C183.323 344.23 182.951 343.03 182.951 341.446C182.951 339.826 183.353 338.59 184.157 337.738C184.961 336.874 186.029 336.442 187.361 336.442C189.617 336.442 190.745 337.774 190.745 340.438H185.687C185.675 340.618 185.669 340.9 185.669 341.284C185.669 342.076 185.777 342.736 185.993 343.264C186.221 343.792 186.509 344.176 186.857 344.416C187.217 344.656 187.601 344.776 188.009 344.776ZM187.253 336.82C186.821 336.82 186.461 337.09 186.173 337.63C185.897 338.158 185.723 338.98 185.651 340.096H188.477C188.501 339.148 188.405 338.368 188.189 337.756C187.985 337.132 187.673 336.82 187.253 336.82ZM196.467 336.442C196.911 336.442 197.331 336.49 197.727 336.586C198.123 336.682 198.453 336.814 198.717 336.982C199.029 337.174 199.269 337.42 199.437 337.72C199.617 338.008 199.707 338.326 199.707 338.674C199.707 339.094 199.575 339.442 199.311 339.718C199.047 339.982 198.705 340.114 198.285 340.114C197.865 340.114 197.529 339.994 197.277 339.754C197.025 339.514 196.899 339.19 196.899 338.782C196.899 338.422 197.013 338.11 197.241 337.846C197.469 337.582 197.751 337.402 198.087 337.306C197.991 337.174 197.841 337.072 197.637 337C197.445 336.916 197.235 336.874 197.007 336.874C196.287 336.874 195.723 337.27 195.315 338.062C194.919 338.842 194.721 339.868 194.721 341.14C194.721 342.424 194.949 343.348 195.405 343.912C195.861 344.476 196.431 344.758 197.115 344.758C197.523 344.758 197.931 344.65 198.339 344.434C198.759 344.218 199.137 343.84 199.473 343.3L199.779 343.408C199.539 344.188 199.119 344.86 198.519 345.424C197.919 345.976 197.145 346.252 196.197 346.252C194.961 346.252 193.953 345.844 193.173 345.028C192.393 344.212 192.003 343 192.003 341.392C192.003 340.336 192.195 339.436 192.579 338.692C192.963 337.948 193.491 337.39 194.163 337.018C194.835 336.634 195.603 336.442 196.467 336.442ZM203.777 345.73H204.713C205.481 345.73 206.129 345.478 206.657 344.974C207.185 344.458 207.497 343.636 207.593 342.508H207.971C207.971 344.212 207.995 345.4 208.043 346.072C207.071 346.024 205.919 346 204.587 346C203.411 346 202.163 346.03 200.843 346.09L205.343 336.964H204.335C202.619 336.964 201.683 338.038 201.527 340.186H201.149C201.149 338.482 201.125 337.294 201.077 336.622C202.049 336.67 203.201 336.694 204.533 336.694C205.709 336.694 206.957 336.664 208.277 336.604L203.777 345.73ZM218.387 344.686C218.579 344.974 218.735 345.19 218.855 345.334C218.975 345.466 219.131 345.562 219.323 345.622V346C218.363 345.952 217.733 345.928 217.433 345.928C217.037 345.928 216.263 345.952 215.111 346V345.622C215.279 345.622 215.411 345.592 215.507 345.532C215.603 345.472 215.651 345.388 215.651 345.28C215.651 345.22 215.621 345.13 215.561 345.01L213.779 341.788C213.659 341.584 213.533 341.446 213.401 341.374C213.269 341.302 213.101 341.254 212.897 341.23V344.326C212.897 344.818 212.975 345.16 213.131 345.352C213.287 345.532 213.569 345.622 213.977 345.622V346C212.777 345.952 211.997 345.928 211.637 345.928C211.229 345.928 210.401 345.952 209.153 346V345.622C209.573 345.622 209.867 345.532 210.035 345.352C210.215 345.16 210.305 344.818 210.305 344.326V334.066C210.305 333.514 210.215 333.112 210.035 332.86C209.867 332.608 209.573 332.482 209.153 332.482V332.104C209.537 332.14 209.909 332.158 210.269 332.158C211.313 332.158 212.189 332.074 212.897 331.906V340.888C213.137 340.864 213.341 340.816 213.509 340.744C213.689 340.672 213.845 340.564 213.977 340.42L215.345 339.088C215.741 338.692 215.939 338.326 215.939 337.99C215.939 337.714 215.813 337.498 215.561 337.342C215.309 337.174 214.973 337.078 214.553 337.054V336.694C215.213 336.73 215.915 336.748 216.659 336.748C217.655 336.748 218.357 336.73 218.765 336.694V337.054C218.057 337.21 217.307 337.672 216.515 338.44L215.363 339.628L218.387 344.686ZM222.112 332.05C222.616 332.05 223.012 332.176 223.3 332.428C223.6 332.668 223.75 333.004 223.75 333.436C223.75 333.868 223.6 334.21 223.3 334.462C223.012 334.702 222.616 334.822 222.112 334.822C221.608 334.822 221.206 334.702 220.906 334.462C220.618 334.21 220.474 333.868 220.474 333.436C220.474 333.004 220.618 332.668 220.906 332.428C221.206 332.176 221.608 332.05 222.112 332.05ZM223.516 344.326C223.516 344.818 223.6 345.16 223.768 345.352C223.948 345.532 224.248 345.622 224.668 345.622V346C223.468 345.952 222.67 345.928 222.274 345.928C221.902 345.928 221.068 345.952 219.772 346V345.622C220.204 345.622 220.504 345.532 220.672 345.352C220.84 345.16 220.924 344.818 220.924 344.326V338.656C220.924 338.104 220.84 337.702 220.672 337.45C220.504 337.198 220.204 337.072 219.772 337.072V336.694C220.156 336.73 220.528 336.748 220.888 336.748C221.956 336.748 222.832 336.664 223.516 336.496V344.326ZM227.376 343.48C227.964 343.48 228.39 343.69 228.654 344.11C228.774 344.29 228.87 344.512 228.942 344.776C229.014 345.04 229.05 345.316 229.05 345.604C229.05 346.228 228.888 346.792 228.564 347.296C228.252 347.8 227.784 348.196 227.16 348.484L226.998 348.16C227.346 348.016 227.646 347.794 227.898 347.494C228.162 347.194 228.318 346.888 228.366 346.576C228.402 346.432 228.42 346.294 228.42 346.162C228.42 346.042 228.402 345.928 228.366 345.82C228.102 346.108 227.754 346.252 227.322 346.252C226.902 346.252 226.56 346.132 226.296 345.892C226.032 345.64 225.9 345.298 225.9 344.866C225.9 344.458 226.038 344.128 226.314 343.876C226.59 343.612 226.944 343.48 227.376 343.48ZM30.996 366.442C31.452 366.442 31.872 366.502 32.256 366.622C32.64 366.73 32.934 366.856 33.138 367C33.258 367.084 33.366 367.126 33.462 367.126C33.57 367.126 33.66 367.072 33.732 366.964C33.816 366.844 33.87 366.676 33.894 366.46H34.272C34.224 367.072 34.2 368.128 34.2 369.628H33.822C33.714 368.836 33.474 368.176 33.102 367.648C32.742 367.108 32.214 366.838 31.518 366.838C31.158 366.838 30.858 366.94 30.618 367.144C30.39 367.348 30.276 367.63 30.276 367.99C30.276 368.398 30.414 368.752 30.69 369.052C30.966 369.34 31.398 369.694 31.986 370.114L32.508 370.492C33.24 371.044 33.78 371.536 34.128 371.968C34.476 372.4 34.65 372.94 34.65 373.588C34.65 374.116 34.494 374.584 34.182 374.992C33.882 375.4 33.474 375.712 32.958 375.928C32.442 376.144 31.872 376.252 31.248 376.252C30.588 376.252 30.024 376.126 29.556 375.874C29.172 375.682 28.896 375.556 28.728 375.496C28.608 375.46 28.5 375.502 28.404 375.622C28.32 375.73 28.254 375.898 28.206 376.126H27.828C27.876 375.442 27.9 374.242 27.9 372.526H28.278C28.518 374.734 29.328 375.838 30.708 375.838C31.056 375.838 31.35 375.736 31.59 375.532C31.842 375.316 31.968 374.992 31.968 374.56C31.968 374.224 31.89 373.924 31.734 373.66C31.59 373.396 31.404 373.162 31.176 372.958C30.948 372.754 30.606 372.472 30.15 372.112C29.61 371.68 29.196 371.332 28.908 371.068C28.632 370.804 28.392 370.492 28.188 370.132C27.996 369.772 27.9 369.37 27.9 368.926C27.9 368.158 28.2 367.552 28.8 367.108C29.4 366.664 30.132 366.442 30.996 366.442ZM44.8905 374.686C45.0825 374.974 45.2385 375.19 45.3585 375.334C45.4785 375.466 45.6345 375.562 45.8265 375.622V376C44.8665 375.952 44.2365 375.928 43.9365 375.928C43.5405 375.928 42.7665 375.952 41.6145 376V375.622C41.7825 375.622 41.9145 375.592 42.0105 375.532C42.1065 375.472 42.1545 375.388 42.1545 375.28C42.1545 375.22 42.1245 375.13 42.0645 375.01L40.2825 371.788C40.1625 371.584 40.0365 371.446 39.9045 371.374C39.7725 371.302 39.6045 371.254 39.4005 371.23V374.326C39.4005 374.818 39.4785 375.16 39.6345 375.352C39.7905 375.532 40.0725 375.622 40.4805 375.622V376C39.2805 375.952 38.5005 375.928 38.1405 375.928C37.7325 375.928 36.9045 375.952 35.6565 376V375.622C36.0765 375.622 36.3705 375.532 36.5385 375.352C36.7185 375.16 36.8085 374.818 36.8085 374.326V364.066C36.8085 363.514 36.7185 363.112 36.5385 362.86C36.3705 362.608 36.0765 362.482 35.6565 362.482V362.104C36.0405 362.14 36.4125 362.158 36.7725 362.158C37.8165 362.158 38.6925 362.074 39.4005 361.906V370.888C39.6405 370.864 39.8445 370.816 40.0125 370.744C40.1925 370.672 40.3485 370.564 40.4805 370.42L41.8485 369.088C42.2445 368.692 42.4425 368.326 42.4425 367.99C42.4425 367.714 42.3165 367.498 42.0645 367.342C41.8125 367.174 41.4765 367.078 41.0565 367.054V366.694C41.7165 366.73 42.4185 366.748 43.1625 366.748C44.1585 366.748 44.8605 366.73 45.2685 366.694V367.054C44.5605 367.21 43.8105 367.672 43.0185 368.44L41.8665 369.628L44.8905 374.686ZM48.5814 376.126C47.8134 376.126 47.2374 375.928 46.8534 375.532C46.4814 375.136 46.2954 374.614 46.2954 373.966C46.2954 373.426 46.4334 372.982 46.7094 372.634C46.9974 372.274 47.3394 371.998 47.7354 371.806C48.1434 371.614 48.6594 371.41 49.2834 371.194C49.9434 370.966 50.4234 370.762 50.7234 370.582C51.0354 370.39 51.1914 370.132 51.1914 369.808V368.404C51.1914 367.9 51.0714 367.51 50.8314 367.234C50.6034 366.946 50.2434 366.802 49.7514 366.802C49.1754 366.802 48.7374 366.946 48.4374 367.234C48.7734 367.354 49.0314 367.534 49.2114 367.774C49.4034 368.014 49.4994 368.296 49.4994 368.62C49.4994 369.028 49.3614 369.352 49.0854 369.592C48.8094 369.832 48.4734 369.952 48.0774 369.952C47.6574 369.952 47.3334 369.82 47.1054 369.556C46.8774 369.292 46.7634 368.962 46.7634 368.566C46.7634 368.23 46.8414 367.948 46.9974 367.72C47.1654 367.48 47.4174 367.258 47.7534 367.054C48.0774 366.862 48.4734 366.712 48.9414 366.604C49.4214 366.496 49.9434 366.442 50.5074 366.442C51.0954 366.442 51.6054 366.502 52.0374 366.622C52.4694 366.742 52.8294 366.946 53.1174 367.234C53.3814 367.498 53.5554 367.822 53.6394 368.206C53.7354 368.59 53.7834 369.112 53.7834 369.772V374.668C53.7834 374.956 53.8074 375.16 53.8554 375.28C53.9154 375.4 54.0234 375.46 54.1794 375.46C54.3594 375.46 54.5754 375.358 54.8274 375.154L55.0074 375.46C54.4674 375.904 53.8074 376.126 53.0274 376.126C52.3674 376.126 51.9054 375.994 51.6414 375.73C51.3774 375.466 51.2394 375.112 51.2274 374.668C50.6274 375.64 49.7454 376.126 48.5814 376.126ZM49.9674 374.974C50.4354 374.974 50.8434 374.728 51.1914 374.236V370.546C51.0474 370.786 50.7414 371.05 50.2734 371.338C49.8054 371.638 49.4514 371.938 49.2114 372.238C48.9714 372.538 48.8514 372.97 48.8514 373.534C48.8514 374.026 48.9534 374.392 49.1574 374.632C49.3614 374.86 49.6314 374.974 49.9674 374.974ZM61.7138 366.442C62.2538 366.442 62.6618 366.604 62.9378 366.928C63.2138 367.252 63.3518 367.642 63.3518 368.098C63.3518 368.542 63.2198 368.908 62.9558 369.196C62.7038 369.472 62.3678 369.61 61.9478 369.61C61.5398 369.61 61.2158 369.508 60.9758 369.304C60.7358 369.088 60.6158 368.806 60.6158 368.458C60.6158 367.882 60.8798 367.414 61.4078 367.054C61.3598 367.042 61.2878 367.036 61.1918 367.036C61.0718 367.036 60.9758 367.048 60.9038 367.072C60.4478 367.144 60.0578 367.42 59.7338 367.9C59.4218 368.38 59.2658 368.872 59.2658 369.376V374.146C59.2658 374.698 59.3978 375.082 59.6618 375.298C59.9378 375.514 60.3698 375.622 60.9578 375.622V376C60.7898 376 60.6518 375.994 60.5438 375.982C59.3198 375.946 58.5038 375.928 58.0958 375.928C57.7718 375.928 57.0338 375.946 55.8818 375.982C55.7858 375.994 55.6658 376 55.5218 376V375.622C55.9538 375.622 56.2538 375.532 56.4218 375.352C56.5898 375.16 56.6738 374.818 56.6738 374.326V368.656C56.6738 368.104 56.5898 367.702 56.4218 367.45C56.2538 367.198 55.9538 367.072 55.5218 367.072V366.694C55.9058 366.73 56.2778 366.748 56.6378 366.748C57.7058 366.748 58.5818 366.664 59.2658 366.496V368.17C59.4938 367.654 59.8238 367.24 60.2558 366.928C60.6878 366.604 61.1738 366.442 61.7138 366.442ZM70.3862 366.442C71.0102 366.442 71.5622 366.61 72.0422 366.946C72.5342 367.282 72.9182 367.786 73.1942 368.458C73.4702 369.13 73.6082 369.952 73.6082 370.924C73.6082 372.64 73.2302 373.96 72.4742 374.884C71.7302 375.796 70.7162 376.252 69.4322 376.252C69.0722 376.252 68.7302 376.204 68.4062 376.108C68.0942 376.012 67.8242 375.868 67.5962 375.676V377.476C67.5962 378.004 67.7282 378.37 67.9922 378.574C68.2562 378.778 68.6642 378.88 69.2162 378.88V379.258L68.7302 379.24C67.3982 379.204 66.5522 379.186 66.1922 379.186C65.8322 379.186 65.0762 379.21 63.9242 379.258V378.88C64.3202 378.88 64.5962 378.79 64.7522 378.61C64.9202 378.442 65.0042 378.124 65.0042 377.656V368.656C65.0042 368.104 64.9142 367.702 64.7342 367.45C64.5662 367.198 64.2722 367.072 63.8522 367.072V366.694C64.2362 366.73 64.6082 366.748 64.9682 366.748C66.0122 366.748 66.8882 366.664 67.5962 366.496V368.152C67.8482 367.6 68.2142 367.18 68.6942 366.892C69.1742 366.592 69.7382 366.442 70.3862 366.442ZM68.7302 375.766C69.4982 375.766 70.0502 375.388 70.3862 374.632C70.7222 373.864 70.8902 372.748 70.8902 371.284C70.8902 369.82 70.7522 368.776 70.4762 368.152C70.2122 367.528 69.8282 367.216 69.3242 367.216C68.9162 367.216 68.5502 367.354 68.2262 367.63C67.9142 367.906 67.7042 368.29 67.5962 368.782V375.28C67.8842 375.604 68.2622 375.766 68.7302 375.766ZM80.0092 374.776C80.9932 374.776 81.7852 374.296 82.3852 373.336L82.7092 373.444C82.4692 374.224 82.0372 374.89 81.4132 375.442C80.8012 375.982 80.0332 376.252 79.1092 376.252C77.8372 376.252 76.8232 375.85 76.0672 375.046C75.3232 374.23 74.9512 373.03 74.9512 371.446C74.9512 369.826 75.3532 368.59 76.1572 367.738C76.9612 366.874 78.0292 366.442 79.3612 366.442C81.6172 366.442 82.7452 367.774 82.7452 370.438H77.6872C77.6752 370.618 77.6692 370.9 77.6692 371.284C77.6692 372.076 77.7772 372.736 77.9932 373.264C78.2212 373.792 78.5092 374.176 78.8572 374.416C79.2172 374.656 79.6012 374.776 80.0092 374.776ZM79.2532 366.82C78.8212 366.82 78.4612 367.09 78.1732 367.63C77.8972 368.158 77.7232 368.98 77.6512 370.096H80.4772C80.5012 369.148 80.4052 368.368 80.1892 367.756C79.9852 367.132 79.6732 366.82 79.2532 366.82ZM87.4415 366.694H89.5655V367.054H87.4415V374.326C87.4415 374.686 87.5015 374.944 87.6215 375.1C87.7535 375.244 87.9575 375.316 88.2335 375.316C88.7495 375.316 89.1575 374.956 89.4575 374.236L89.7635 374.398C89.3075 375.634 88.4855 376.252 87.2975 376.252C86.5055 376.252 85.9055 376.048 85.4975 375.64C85.2455 375.388 85.0715 375.076 84.9755 374.704C84.8915 374.32 84.8495 373.798 84.8495 373.138V367.054H83.3375V366.694H84.8495V364.318C85.8455 364.318 86.7095 364.126 87.4415 363.742V366.694ZM99.2596 374.686C99.4516 374.974 99.6076 375.19 99.7276 375.334C99.8476 375.466 100.004 375.562 100.196 375.622V376C99.2356 375.952 98.6056 375.928 98.3056 375.928C97.9096 375.928 97.1356 375.952 95.9836 376V375.622C96.1516 375.622 96.2836 375.592 96.3796 375.532C96.4756 375.472 96.5236 375.388 96.5236 375.28C96.5236 375.22 96.4936 375.13 96.4336 375.01L94.6516 371.788C94.5316 371.584 94.4056 371.446 94.2736 371.374C94.1416 371.302 93.9736 371.254 93.7696 371.23V374.326C93.7696 374.818 93.8476 375.16 94.0036 375.352C94.1596 375.532 94.4416 375.622 94.8496 375.622V376C93.6496 375.952 92.8696 375.928 92.5096 375.928C92.1016 375.928 91.2736 375.952 90.0256 376V375.622C90.4456 375.622 90.7396 375.532 90.9076 375.352C91.0876 375.16 91.1776 374.818 91.1776 374.326V364.066C91.1776 363.514 91.0876 363.112 90.9076 362.86C90.7396 362.608 90.4456 362.482 90.0256 362.482V362.104C90.4096 362.14 90.7816 362.158 91.1416 362.158C92.1856 362.158 93.0616 362.074 93.7696 361.906V370.888C94.0096 370.864 94.2136 370.816 94.3816 370.744C94.5616 370.672 94.7176 370.564 94.8496 370.42L96.2176 369.088C96.6136 368.692 96.8116 368.326 96.8116 367.99C96.8116 367.714 96.6856 367.498 96.4336 367.342C96.1816 367.174 95.8456 367.078 95.4256 367.054V366.694C96.0856 366.73 96.7876 366.748 97.5316 366.748C98.5276 366.748 99.2296 366.73 99.6376 366.694V367.054C98.9296 367.21 98.1796 367.672 97.3876 368.44L96.2356 369.628L99.2596 374.686ZM102.985 362.05C103.489 362.05 103.885 362.176 104.173 362.428C104.473 362.668 104.623 363.004 104.623 363.436C104.623 363.868 104.473 364.21 104.173 364.462C103.885 364.702 103.489 364.822 102.985 364.822C102.481 364.822 102.079 364.702 101.779 364.462C101.491 364.21 101.347 363.868 101.347 363.436C101.347 363.004 101.491 362.668 101.779 362.428C102.079 362.176 102.481 362.05 102.985 362.05ZM104.389 374.326C104.389 374.818 104.473 375.16 104.641 375.352C104.821 375.532 105.121 375.622 105.541 375.622V376C104.341 375.952 103.543 375.928 103.147 375.928C102.775 375.928 101.941 375.952 100.645 376V375.622C101.077 375.622 101.377 375.532 101.545 375.352C101.713 375.16 101.797 374.818 101.797 374.326V368.656C101.797 368.104 101.713 367.702 101.545 367.45C101.377 367.198 101.077 367.072 100.645 367.072V366.694C101.029 366.73 101.401 366.748 101.761 366.748C102.829 366.748 103.705 366.664 104.389 366.496V374.326ZM108.249 373.48C108.837 373.48 109.263 373.69 109.527 374.11C109.647 374.29 109.743 374.512 109.815 374.776C109.887 375.04 109.923 375.316 109.923 375.604C109.923 376.228 109.761 376.792 109.437 377.296C109.125 377.8 108.657 378.196 108.033 378.484L107.871 378.16C108.219 378.016 108.519 377.794 108.771 377.494C109.035 377.194 109.191 376.888 109.239 376.576C109.275 376.432 109.293 376.294 109.293 376.162C109.293 376.042 109.275 375.928 109.239 375.82C108.975 376.108 108.627 376.252 108.195 376.252C107.775 376.252 107.433 376.132 107.169 375.892C106.905 375.64 106.773 375.298 106.773 374.866C106.773 374.458 106.911 374.128 107.187 373.876C107.463 373.612 107.817 373.48 108.249 373.48ZM121.873 366.442C122.497 366.442 123.049 366.61 123.529 366.946C124.021 367.282 124.405 367.786 124.681 368.458C124.957 369.13 125.095 369.952 125.095 370.924C125.095 372.64 124.717 373.96 123.961 374.884C123.217 375.796 122.203 376.252 120.919 376.252C120.559 376.252 120.217 376.204 119.893 376.108C119.581 376.012 119.311 375.868 119.083 375.676V377.476C119.083 378.004 119.215 378.37 119.479 378.574C119.743 378.778 120.151 378.88 120.703 378.88V379.258L120.217 379.24C118.885 379.204 118.039 379.186 117.679 379.186C117.319 379.186 116.563 379.21 115.411 379.258V378.88C115.807 378.88 116.083 378.79 116.239 378.61C116.407 378.442 116.491 378.124 116.491 377.656V368.656C116.491 368.104 116.401 367.702 116.221 367.45C116.053 367.198 115.759 367.072 115.339 367.072V366.694C115.723 366.73 116.095 366.748 116.455 366.748C117.499 366.748 118.375 366.664 119.083 366.496V368.152C119.335 367.6 119.701 367.18 120.181 366.892C120.661 366.592 121.225 366.442 121.873 366.442ZM120.217 375.766C120.985 375.766 121.537 375.388 121.873 374.632C122.209 373.864 122.377 372.748 122.377 371.284C122.377 369.82 122.239 368.776 121.963 368.152C121.699 367.528 121.315 367.216 120.811 367.216C120.403 367.216 120.037 367.354 119.713 367.63C119.401 367.906 119.191 368.29 119.083 368.782V375.28C119.371 375.604 119.749 375.766 120.217 375.766ZM130.847 366.442C132.227 366.442 133.307 366.838 134.087 367.63C134.867 368.41 135.257 369.652 135.257 371.356C135.257 373.06 134.867 374.302 134.087 375.082C133.307 375.862 132.227 376.252 130.847 376.252C129.479 376.252 128.399 375.862 127.607 375.082C126.827 374.302 126.437 373.06 126.437 371.356C126.437 369.652 126.827 368.41 127.607 367.63C128.399 366.838 129.479 366.442 130.847 366.442ZM130.847 366.802C130.331 366.802 129.917 367.18 129.605 367.936C129.305 368.68 129.155 369.82 129.155 371.356C129.155 372.892 129.305 374.032 129.605 374.776C129.917 375.52 130.331 375.892 130.847 375.892C131.375 375.892 131.789 375.526 132.089 374.794C132.389 374.05 132.539 372.904 132.539 371.356C132.539 369.808 132.383 368.662 132.071 367.918C131.771 367.174 131.363 366.802 130.847 366.802ZM143.077 366.442C143.989 366.442 144.649 366.676 145.057 367.144C145.261 367.372 145.405 367.666 145.489 368.026C145.573 368.386 145.615 368.872 145.615 369.484V374.326C145.615 374.818 145.699 375.16 145.867 375.352C146.047 375.532 146.347 375.622 146.767 375.622V376C145.567 375.952 144.775 375.928 144.391 375.928C144.031 375.928 143.251 375.952 142.051 376V375.622C142.411 375.622 142.663 375.532 142.807 375.352C142.951 375.16 143.023 374.818 143.023 374.326V368.728C143.023 368.236 142.939 367.864 142.771 367.612C142.615 367.36 142.327 367.234 141.907 367.234C141.415 367.234 140.995 367.438 140.647 367.846C140.299 368.242 140.125 368.734 140.125 369.322V374.326C140.125 374.818 140.197 375.16 140.341 375.352C140.485 375.532 140.737 375.622 141.097 375.622V376C139.993 375.952 139.249 375.928 138.865 375.928C138.505 375.928 137.677 375.952 136.381 376V375.622C136.813 375.622 137.113 375.532 137.281 375.352C137.449 375.16 137.533 374.818 137.533 374.326V368.656C137.533 368.104 137.449 367.702 137.281 367.45C137.113 367.198 136.813 367.072 136.381 367.072V366.694C136.765 366.73 137.137 366.748 137.497 366.748C138.565 366.748 139.441 366.664 140.125 366.496V368.116C140.665 367 141.649 366.442 143.077 366.442ZM143.545 361.294C143.761 361.45 143.869 361.678 143.869 361.978C143.869 362.23 143.779 362.476 143.599 362.716C143.467 362.872 143.299 363.034 143.095 363.202C142.903 363.358 142.693 363.52 142.465 363.688C141.745 364.192 141.109 364.702 140.557 365.218L140.359 365.056C140.683 364.468 141.019 363.73 141.367 362.842C141.523 362.47 141.643 362.194 141.727 362.014C141.823 361.822 141.937 361.648 142.069 361.492C142.297 361.204 142.579 361.06 142.915 361.06C143.167 361.06 143.377 361.138 143.545 361.294ZM152.118 366.442C152.562 366.442 152.982 366.49 153.378 366.586C153.774 366.682 154.104 366.814 154.368 366.982C154.68 367.174 154.92 367.42 155.088 367.72C155.268 368.008 155.358 368.326 155.358 368.674C155.358 369.094 155.226 369.442 154.962 369.718C154.698 369.982 154.356 370.114 153.936 370.114C153.516 370.114 153.18 369.994 152.928 369.754C152.676 369.514 152.55 369.19 152.55 368.782C152.55 368.422 152.664 368.11 152.892 367.846C153.12 367.582 153.402 367.402 153.738 367.306C153.642 367.174 153.492 367.072 153.288 367C153.096 366.916 152.886 366.874 152.658 366.874C151.938 366.874 151.374 367.27 150.966 368.062C150.57 368.842 150.372 369.868 150.372 371.14C150.372 372.424 150.6 373.348 151.056 373.912C151.512 374.476 152.082 374.758 152.766 374.758C153.174 374.758 153.582 374.65 153.99 374.434C154.41 374.218 154.788 373.84 155.124 373.3L155.43 373.408C155.19 374.188 154.77 374.86 154.17 375.424C153.57 375.976 152.796 376.252 151.848 376.252C150.612 376.252 149.604 375.844 148.824 375.028C148.044 374.212 147.654 373 147.654 371.392C147.654 370.336 147.846 369.436 148.23 368.692C148.614 367.948 149.142 367.39 149.814 367.018C150.486 366.634 151.254 366.442 152.118 366.442ZM159.428 375.73H160.364C161.132 375.73 161.78 375.478 162.308 374.974C162.836 374.458 163.148 373.636 163.244 372.508H163.622C163.622 374.212 163.646 375.4 163.694 376.072C162.722 376.024 161.57 376 160.238 376C159.062 376 157.814 376.03 156.494 376.09L160.994 366.964H159.986C158.27 366.964 157.334 368.038 157.178 370.186H156.8C156.8 368.482 156.776 367.294 156.728 366.622C157.7 366.67 158.852 366.694 160.184 366.694C161.36 366.694 162.608 366.664 163.928 366.604L159.428 375.73ZM169.537 366.442C170.917 366.442 171.997 366.838 172.777 367.63C173.557 368.41 173.947 369.652 173.947 371.356C173.947 373.06 173.557 374.302 172.777 375.082C171.997 375.862 170.917 376.252 169.537 376.252C168.169 376.252 167.089 375.862 166.297 375.082C165.517 374.302 165.127 373.06 165.127 371.356C165.127 369.652 165.517 368.41 166.297 367.63C167.089 366.838 168.169 366.442 169.537 366.442ZM169.537 366.802C169.021 366.802 168.607 367.18 168.295 367.936C167.995 368.68 167.845 369.82 167.845 371.356C167.845 372.892 167.995 374.032 168.295 374.776C168.607 375.52 169.021 375.892 169.537 375.892C170.065 375.892 170.479 375.526 170.779 374.794C171.079 374.05 171.229 372.904 171.229 371.356C171.229 369.808 171.073 368.662 170.761 367.918C170.461 367.174 170.053 366.802 169.537 366.802ZM178.635 366.442C179.091 366.442 179.511 366.502 179.895 366.622C180.279 366.73 180.573 366.856 180.777 367C180.897 367.084 181.005 367.126 181.101 367.126C181.209 367.126 181.299 367.072 181.371 366.964C181.455 366.844 181.509 366.676 181.533 366.46H181.911C181.863 367.072 181.839 368.128 181.839 369.628H181.461C181.353 368.836 181.113 368.176 180.741 367.648C180.381 367.108 179.853 366.838 179.157 366.838C178.797 366.838 178.497 366.94 178.257 367.144C178.029 367.348 177.915 367.63 177.915 367.99C177.915 368.398 178.053 368.752 178.329 369.052C178.605 369.34 179.037 369.694 179.625 370.114L180.147 370.492C180.879 371.044 181.419 371.536 181.767 371.968C182.115 372.4 182.289 372.94 182.289 373.588C182.289 374.116 182.133 374.584 181.821 374.992C181.521 375.4 181.113 375.712 180.597 375.928C180.081 376.144 179.511 376.252 178.887 376.252C178.227 376.252 177.663 376.126 177.195 375.874C176.811 375.682 176.535 375.556 176.367 375.496C176.247 375.46 176.139 375.502 176.043 375.622C175.959 375.73 175.893 375.898 175.845 376.126H175.467C175.515 375.442 175.539 374.242 175.539 372.526H175.917C176.157 374.734 176.967 375.838 178.347 375.838C178.695 375.838 178.989 375.736 179.229 375.532C179.481 375.316 179.607 374.992 179.607 374.56C179.607 374.224 179.529 373.924 179.373 373.66C179.229 373.396 179.043 373.162 178.815 372.958C178.587 372.754 178.245 372.472 177.789 372.112C177.249 371.68 176.835 371.332 176.547 371.068C176.271 370.804 176.031 370.492 175.827 370.132C175.635 369.772 175.539 369.37 175.539 368.926C175.539 368.158 175.839 367.552 176.439 367.108C177.039 366.664 177.771 366.442 178.635 366.442ZM186.445 375.73H187.381C188.149 375.73 188.797 375.478 189.325 374.974C189.853 374.458 190.165 373.636 190.261 372.508H190.639C190.639 374.212 190.663 375.4 190.711 376.072C189.739 376.024 188.587 376 187.255 376C186.079 376 184.831 376.03 183.511 376.09L188.011 366.964H187.003C185.287 366.964 184.351 368.038 184.195 370.186H183.817C183.817 368.482 183.793 367.294 183.745 366.622C184.717 366.67 185.869 366.694 187.201 366.694C188.377 366.694 189.625 366.664 190.945 366.604L186.445 375.73ZM201.055 374.686C201.247 374.974 201.403 375.19 201.523 375.334C201.643 375.466 201.799 375.562 201.991 375.622V376C201.031 375.952 200.401 375.928 200.101 375.928C199.705 375.928 198.931 375.952 197.779 376V375.622C197.947 375.622 198.079 375.592 198.175 375.532C198.271 375.472 198.319 375.388 198.319 375.28C198.319 375.22 198.289 375.13 198.229 375.01L196.447 371.788C196.327 371.584 196.201 371.446 196.069 371.374C195.937 371.302 195.769 371.254 195.565 371.23V374.326C195.565 374.818 195.643 375.16 195.799 375.352C195.955 375.532 196.237 375.622 196.645 375.622V376C195.445 375.952 194.665 375.928 194.305 375.928C193.897 375.928 193.069 375.952 191.821 376V375.622C192.241 375.622 192.535 375.532 192.703 375.352C192.883 375.16 192.973 374.818 192.973 374.326V364.066C192.973 363.514 192.883 363.112 192.703 362.86C192.535 362.608 192.241 362.482 191.821 362.482V362.104C192.205 362.14 192.577 362.158 192.937 362.158C193.981 362.158 194.857 362.074 195.565 361.906V370.888C195.805 370.864 196.009 370.816 196.177 370.744C196.357 370.672 196.513 370.564 196.645 370.42L198.013 369.088C198.409 368.692 198.607 368.326 198.607 367.99C198.607 367.714 198.481 367.498 198.229 367.342C197.977 367.174 197.641 367.078 197.221 367.054V366.694C197.881 366.73 198.583 366.748 199.327 366.748C200.323 366.748 201.025 366.73 201.433 366.694V367.054C200.725 367.21 199.975 367.672 199.183 368.44L198.031 369.628L201.055 374.686ZM204.78 362.05C205.284 362.05 205.68 362.176 205.968 362.428C206.268 362.668 206.418 363.004 206.418 363.436C206.418 363.868 206.268 364.21 205.968 364.462C205.68 364.702 205.284 364.822 204.78 364.822C204.276 364.822 203.874 364.702 203.574 364.462C203.286 364.21 203.142 363.868 203.142 363.436C203.142 363.004 203.286 362.668 203.574 362.428C203.874 362.176 204.276 362.05 204.78 362.05ZM206.184 374.326C206.184 374.818 206.268 375.16 206.436 375.352C206.616 375.532 206.916 375.622 207.336 375.622V376C206.136 375.952 205.338 375.928 204.942 375.928C204.57 375.928 203.736 375.952 202.44 376V375.622C202.872 375.622 203.172 375.532 203.34 375.352C203.508 375.16 203.592 374.818 203.592 374.326V368.656C203.592 368.104 203.508 367.702 203.34 367.45C203.172 367.198 202.872 367.072 202.44 367.072V366.694C202.824 366.73 203.196 366.748 203.556 366.748C204.624 366.748 205.5 366.664 206.184 366.496V374.326ZM214.659 362.05C215.163 362.05 215.559 362.176 215.847 362.428C216.147 362.668 216.297 363.004 216.297 363.436C216.297 363.868 216.147 364.21 215.847 364.462C215.559 364.702 215.163 364.822 214.659 364.822C214.155 364.822 213.753 364.702 213.453 364.462C213.165 364.21 213.021 363.868 213.021 363.436C213.021 363.004 213.165 362.668 213.453 362.428C213.753 362.176 214.155 362.05 214.659 362.05ZM216.063 374.326C216.063 374.818 216.147 375.16 216.315 375.352C216.495 375.532 216.795 375.622 217.215 375.622V376C216.015 375.952 215.217 375.928 214.821 375.928C214.449 375.928 213.615 375.952 212.319 376V375.622C212.751 375.622 213.051 375.532 213.219 375.352C213.387 375.16 213.471 374.818 213.471 374.326V368.656C213.471 368.104 213.387 367.702 213.219 367.45C213.051 367.198 212.751 367.072 212.319 367.072V366.694C212.703 366.73 213.075 366.748 213.435 366.748C214.503 366.748 215.379 366.664 216.063 366.496V374.326ZM39.798 396.748C40.41 396.748 40.866 396.73 41.166 396.694V397.054C40.914 397.126 40.686 397.276 40.482 397.504C40.278 397.732 40.098 398.098 39.942 398.602L37.548 406.036C37.416 406.024 37.218 406.018 36.954 406.018C36.702 406.018 36.51 406.024 36.378 406.036L33.93 399.358L31.932 406.036C31.812 406.024 31.62 406.018 31.356 406.018C31.092 406.018 30.894 406.024 30.762 406.036L27.918 398.08C27.774 397.66 27.612 397.39 27.432 397.27C27.252 397.138 27.066 397.072 26.874 397.072V396.694C27.654 396.766 28.506 396.802 29.43 396.802C30.03 396.802 30.81 396.766 31.77 396.694V397.072C31.374 397.072 31.086 397.102 30.906 397.162C30.738 397.222 30.654 397.366 30.654 397.594C30.654 397.75 30.684 397.912 30.744 398.08L32.364 403.174L34.326 396.676L34.992 396.694L35.64 396.676L37.98 403.552L39.114 399.934C39.282 399.37 39.366 398.914 39.366 398.566C39.366 397.63 38.892 397.126 37.944 397.054V396.694C38.508 396.73 39.126 396.748 39.798 396.748ZM43.94 392.05C44.444 392.05 44.84 392.176 45.128 392.428C45.428 392.668 45.578 393.004 45.578 393.436C45.578 393.868 45.428 394.21 45.128 394.462C44.84 394.702 44.444 394.822 43.94 394.822C43.436 394.822 43.034 394.702 42.734 394.462C42.446 394.21 42.302 393.868 42.302 393.436C42.302 393.004 42.446 392.668 42.734 392.428C43.034 392.176 43.436 392.05 43.94 392.05ZM45.344 404.326C45.344 404.818 45.428 405.16 45.596 405.352C45.776 405.532 46.076 405.622 46.496 405.622V406C45.296 405.952 44.498 405.928 44.102 405.928C43.73 405.928 42.896 405.952 41.6 406V405.622C42.032 405.622 42.332 405.532 42.5 405.352C42.668 405.16 42.752 404.818 42.752 404.326V398.656C42.752 398.104 42.668 397.702 42.5 397.45C42.332 397.198 42.032 397.072 41.6 397.072V396.694C41.984 396.73 42.356 396.748 42.716 396.748C43.784 396.748 44.66 396.664 45.344 396.496V404.326ZM52.5697 404.776C53.5537 404.776 54.3457 404.296 54.9457 403.336L55.2697 403.444C55.0297 404.224 54.5977 404.89 53.9737 405.442C53.3617 405.982 52.5937 406.252 51.6697 406.252C50.3977 406.252 49.3837 405.85 48.6277 405.046C47.8837 404.23 47.5117 403.03 47.5117 401.446C47.5117 399.826 47.9137 398.59 48.7177 397.738C49.5217 396.874 50.5897 396.442 51.9217 396.442C54.1777 396.442 55.3057 397.774 55.3057 400.438H50.2477C50.2357 400.618 50.2297 400.9 50.2297 401.284C50.2297 402.076 50.3377 402.736 50.5537 403.264C50.7817 403.792 51.0697 404.176 51.4177 404.416C51.7777 404.656 52.1617 404.776 52.5697 404.776ZM51.8137 396.82C51.3817 396.82 51.0217 397.09 50.7337 397.63C50.4577 398.158 50.2837 398.98 50.2117 400.096H53.0377C53.0617 399.148 52.9657 398.368 52.7497 397.756C52.5457 397.132 52.2337 396.82 51.8137 396.82ZM60.02 404.326C60.02 404.818 60.104 405.16 60.272 405.352C60.44 405.532 60.74 405.622 61.172 405.622V406C59.924 405.952 59.12 405.928 58.76 405.928C58.352 405.928 57.524 405.952 56.276 406V405.622C56.696 405.622 56.99 405.532 57.158 405.352C57.338 405.16 57.428 404.818 57.428 404.326V394.066C57.428 393.514 57.338 393.112 57.158 392.86C56.99 392.608 56.696 392.482 56.276 392.482V392.104C56.66 392.14 57.032 392.158 57.392 392.158C58.436 392.158 59.312 392.074 60.02 391.906V404.326ZM67.0541 404.776C68.0381 404.776 68.8301 404.296 69.4301 403.336L69.7541 403.444C69.5141 404.224 69.0821 404.89 68.4581 405.442C67.8461 405.982 67.0781 406.252 66.1541 406.252C64.8821 406.252 63.8681 405.85 63.1121 405.046C62.3681 404.23 61.9961 403.03 61.9961 401.446C61.9961 399.826 62.3981 398.59 63.2021 397.738C64.0061 396.874 65.0741 396.442 66.4061 396.442C68.6621 396.442 69.7901 397.774 69.7901 400.438H64.7321C64.7201 400.618 64.7141 400.9 64.7141 401.284C64.7141 402.076 64.8221 402.736 65.0381 403.264C65.2661 403.792 65.5541 404.176 65.9021 404.416C66.2621 404.656 66.6461 404.776 67.0541 404.776ZM66.2981 396.82C65.8661 396.82 65.5061 397.09 65.2181 397.63C64.9421 398.158 64.7681 398.98 64.6961 400.096H67.5221C67.5461 399.148 67.4501 398.368 67.2341 397.756C67.0301 397.132 66.7181 396.82 66.2981 396.82ZM77.3736 392.05C77.8776 392.05 78.2736 392.176 78.5616 392.428C78.8616 392.668 79.0116 393.004 79.0116 393.436C79.0116 393.868 78.8616 394.21 78.5616 394.462C78.2736 394.702 77.8776 394.822 77.3736 394.822C76.8696 394.822 76.4676 394.702 76.1676 394.462C75.8796 394.21 75.7356 393.868 75.7356 393.436C75.7356 393.004 75.8796 392.668 76.1676 392.428C76.4676 392.176 76.8696 392.05 77.3736 392.05ZM78.7776 404.326C78.7776 404.818 78.8616 405.16 79.0296 405.352C79.2096 405.532 79.5096 405.622 79.9296 405.622V406C78.7296 405.952 77.9316 405.928 77.5356 405.928C77.1636 405.928 76.3296 405.952 75.0336 406V405.622C75.4656 405.622 75.7656 405.532 75.9336 405.352C76.1016 405.16 76.1856 404.818 76.1856 404.326V398.656C76.1856 398.104 76.1016 397.702 75.9336 397.45C75.7656 397.198 75.4656 397.072 75.0336 397.072V396.694C75.4176 396.73 75.7896 396.748 76.1496 396.748C77.2176 396.748 78.0936 396.664 78.7776 396.496V404.326ZM87.4073 396.442C88.3193 396.442 88.9793 396.676 89.3873 397.144C89.5913 397.372 89.7353 397.666 89.8193 398.026C89.9033 398.386 89.9453 398.872 89.9453 399.484V404.326C89.9453 404.818 90.0293 405.16 90.1973 405.352C90.3773 405.532 90.6773 405.622 91.0973 405.622V406C89.8973 405.952 89.1053 405.928 88.7213 405.928C88.3613 405.928 87.5813 405.952 86.3813 406V405.622C86.7413 405.622 86.9933 405.532 87.1373 405.352C87.2813 405.16 87.3533 404.818 87.3533 404.326V398.728C87.3533 398.236 87.2693 397.864 87.1013 397.612C86.9453 397.36 86.6573 397.234 86.2373 397.234C85.7453 397.234 85.3253 397.438 84.9773 397.846C84.6293 398.242 84.4553 398.734 84.4553 399.322V404.326C84.4553 404.818 84.5273 405.16 84.6713 405.352C84.8153 405.532 85.0673 405.622 85.4273 405.622V406C84.3233 405.952 83.5793 405.928 83.1953 405.928C82.8353 405.928 82.0073 405.952 80.7113 406V405.622C81.1433 405.622 81.4433 405.532 81.6113 405.352C81.7793 405.16 81.8633 404.818 81.8633 404.326V398.656C81.8633 398.104 81.7793 397.702 81.6113 397.45C81.4433 397.198 81.1433 397.072 80.7113 397.072V396.694C81.0953 396.73 81.4673 396.748 81.8273 396.748C82.8953 396.748 83.7713 396.664 84.4553 396.496V398.116C84.9953 397 85.9793 396.442 87.4073 396.442ZM98.4639 396.442C99.3759 396.442 100.036 396.676 100.444 397.144C100.648 397.372 100.792 397.666 100.876 398.026C100.96 398.386 101.002 398.872 101.002 399.484V404.326C101.002 404.818 101.086 405.16 101.254 405.352C101.434 405.532 101.734 405.622 102.154 405.622V406C100.954 405.952 100.162 405.928 99.7779 405.928C99.4179 405.928 98.6379 405.952 97.4379 406V405.622C97.7979 405.622 98.0499 405.532 98.1939 405.352C98.3379 405.16 98.4099 404.818 98.4099 404.326V398.728C98.4099 398.236 98.3259 397.864 98.1579 397.612C98.0019 397.36 97.7139 397.234 97.2939 397.234C96.8019 397.234 96.3819 397.438 96.0339 397.846C95.6859 398.242 95.5119 398.734 95.5119 399.322V404.326C95.5119 404.818 95.5839 405.16 95.7279 405.352C95.8719 405.532 96.1239 405.622 96.4839 405.622V406C95.3799 405.952 94.6359 405.928 94.2519 405.928C93.8919 405.928 93.0639 405.952 91.7679 406V405.622C92.1999 405.622 92.4999 405.532 92.6679 405.352C92.8359 405.16 92.9199 404.818 92.9199 404.326V398.656C92.9199 398.104 92.8359 397.702 92.6679 397.45C92.4999 397.198 92.1999 397.072 91.7679 397.072V396.694C92.1519 396.73 92.5239 396.748 92.8839 396.748C93.9519 396.748 94.8279 396.664 95.5119 396.496V398.116C96.0519 397 97.0359 396.442 98.4639 396.442ZM110.047 396.748C110.647 396.748 111.109 396.73 111.433 396.694V397.054C111.181 397.126 110.953 397.282 110.749 397.522C110.557 397.75 110.371 398.11 110.191 398.602L106.969 407.656C106.729 408.28 106.465 408.706 106.177 408.934C105.829 409.234 105.307 409.384 104.611 409.384C104.107 409.384 103.651 409.258 103.243 409.006C102.847 408.766 102.649 408.412 102.649 407.944C102.649 407.572 102.781 407.272 103.045 407.044C103.309 406.828 103.657 406.72 104.089 406.72C104.497 406.72 104.821 406.816 105.061 407.008C105.313 407.212 105.439 407.494 105.439 407.854C105.439 408.106 105.361 408.334 105.205 408.538C105.049 408.754 104.827 408.916 104.539 409.024C104.623 409.036 104.761 409.042 104.953 409.042C105.697 409.042 106.243 408.568 106.591 407.62L106.879 406.756L103.063 398.08C102.871 397.672 102.685 397.402 102.505 397.27C102.325 397.138 102.139 397.072 101.947 397.072V396.694C102.739 396.766 103.561 396.802 104.413 396.802C105.121 396.802 105.955 396.766 106.915 396.694V397.072C106.531 397.072 106.243 397.102 106.051 397.162C105.871 397.21 105.781 397.348 105.781 397.576C105.781 397.708 105.823 397.876 105.907 398.08L108.103 403.39L109.345 399.934C109.537 399.37 109.633 398.89 109.633 398.494C109.633 397.618 109.189 397.138 108.301 397.054V396.694C108.865 396.73 109.447 396.748 110.047 396.748ZM116.382 396.442C116.826 396.442 117.246 396.49 117.642 396.586C118.038 396.682 118.368 396.814 118.632 396.982C118.944 397.174 119.184 397.42 119.352 397.72C119.532 398.008 119.622 398.326 119.622 398.674C119.622 399.094 119.49 399.442 119.226 399.718C118.962 399.982 118.62 400.114 118.2 400.114C117.78 400.114 117.444 399.994 117.192 399.754C116.94 399.514 116.814 399.19 116.814 398.782C116.814 398.422 116.928 398.11 117.156 397.846C117.384 397.582 117.666 397.402 118.002 397.306C117.906 397.174 117.756 397.072 117.552 397C117.36 396.916 117.15 396.874 116.922 396.874C116.202 396.874 115.638 397.27 115.23 398.062C114.834 398.842 114.636 399.868 114.636 401.14C114.636 402.424 114.864 403.348 115.32 403.912C115.776 404.476 116.346 404.758 117.03 404.758C117.438 404.758 117.846 404.65 118.254 404.434C118.674 404.218 119.052 403.84 119.388 403.3L119.694 403.408C119.454 404.188 119.034 404.86 118.434 405.424C117.834 405.976 117.06 406.252 116.112 406.252C114.876 406.252 113.868 405.844 113.088 405.028C112.308 404.212 111.918 403 111.918 401.392C111.918 400.336 112.11 399.436 112.494 398.692C112.878 397.948 113.406 397.39 114.078 397.018C114.75 396.634 115.518 396.442 116.382 396.442ZM124.285 398.116C124.825 397 125.803 396.442 127.219 396.442C128.155 396.442 128.815 396.676 129.199 397.144C129.403 397.372 129.547 397.672 129.631 398.044C129.727 398.404 129.775 398.884 129.775 399.484V404.326C129.775 404.818 129.859 405.16 130.027 405.352C130.195 405.532 130.495 405.622 130.927 405.622V406C129.679 405.952 128.887 405.928 128.551 405.928C128.143 405.928 127.363 405.952 126.211 406V405.622C126.571 405.622 126.823 405.532 126.967 405.352C127.111 405.16 127.183 404.818 127.183 404.326V398.728C127.183 398.236 127.099 397.864 126.931 397.612C126.775 397.36 126.487 397.234 126.067 397.234C125.563 397.234 125.137 397.432 124.789 397.828C124.453 398.212 124.285 398.704 124.285 399.304V404.326C124.285 404.818 124.357 405.16 124.501 405.352C124.645 405.532 124.897 405.622 125.257 405.622V406C124.105 405.952 123.361 405.928 123.025 405.928C122.617 405.928 121.789 405.952 120.541 406V405.622C120.961 405.622 121.255 405.532 121.423 405.352C121.603 405.16 121.693 404.818 121.693 404.326V394.084C121.693 393.532 121.603 393.13 121.423 392.878C121.255 392.626 120.961 392.5 120.541 392.5V392.122C120.925 392.158 121.297 392.176 121.657 392.176C122.701 392.176 123.577 392.092 124.285 391.924V398.116ZM133.58 403.48C134.048 403.48 134.42 403.606 134.696 403.858C134.972 404.098 135.11 404.434 135.11 404.866C135.11 405.298 134.972 405.64 134.696 405.892C134.42 406.132 134.048 406.252 133.58 406.252C133.112 406.252 132.74 406.132 132.464 405.892C132.188 405.64 132.05 405.298 132.05 404.866C132.05 404.434 132.188 404.098 132.464 403.858C132.74 403.606 133.112 403.48 133.58 403.48Z" fill="#E7E7E7"/>
<path d="M79.6202 336.442C80.5322 336.442 81.1922 336.676 81.6002 337.144C81.8042 337.372 81.9482 337.666 82.0322 338.026C82.1162 338.386 82.1582 338.872 82.1582 339.484V344.326C82.1582 344.818 82.2422 345.16 82.4102 345.352C82.5902 345.532 82.8902 345.622 83.3102 345.622V346C82.1102 345.952 81.3182 345.928 80.9342 345.928C80.5742 345.928 79.7942 345.952 78.5942 346V345.622C78.9542 345.622 79.2062 345.532 79.3502 345.352C79.4942 345.16 79.5662 344.818 79.5662 344.326V338.728C79.5662 338.236 79.4822 337.864 79.3142 337.612C79.1582 337.36 78.8702 337.234 78.4502 337.234C77.9582 337.234 77.5382 337.438 77.1902 337.846C76.8422 338.242 76.6682 338.734 76.6682 339.322V344.326C76.6682 344.818 76.7402 345.16 76.8842 345.352C77.0282 345.532 77.2802 345.622 77.6402 345.622V346C76.5362 345.952 75.7922 345.928 75.4082 345.928C75.0482 345.928 74.2202 345.952 72.9242 346V345.622C73.3562 345.622 73.6562 345.532 73.8242 345.352C73.9922 345.16 74.0762 344.818 74.0762 344.326V338.656C74.0762 338.104 73.9922 337.702 73.8242 337.45C73.6562 337.198 73.3562 337.072 72.9242 337.072V336.694C73.3082 336.73 73.6802 336.748 74.0402 336.748C75.1082 336.748 75.9842 336.664 76.6682 336.496V338.116C77.2082 337 78.1922 336.442 79.6202 336.442ZM88.6248 336.442C90.0048 336.442 91.0848 336.838 91.8648 337.63C92.6448 338.41 93.0348 339.652 93.0348 341.356C93.0348 343.06 92.6448 344.302 91.8648 345.082C91.0848 345.862 90.0048 346.252 88.6248 346.252C87.2568 346.252 86.1768 345.862 85.3848 345.082C84.6048 344.302 84.2148 343.06 84.2148 341.356C84.2148 339.652 84.6048 338.41 85.3848 337.63C86.1768 336.838 87.2568 336.442 88.6248 336.442ZM88.6248 336.802C88.1088 336.802 87.6948 337.18 87.3828 337.936C87.0828 338.68 86.9328 339.82 86.9328 341.356C86.9328 342.892 87.0828 344.032 87.3828 344.776C87.6948 345.52 88.1088 345.892 88.6248 345.892C89.1528 345.892 89.5668 345.526 89.8668 344.794C90.1668 344.05 90.3168 342.904 90.3168 341.356C90.3168 339.808 90.1608 338.662 89.8488 337.918C89.5488 337.174 89.1408 336.802 88.6248 336.802ZM97.7226 336.442C98.1786 336.442 98.5986 336.502 98.9826 336.622C99.3666 336.73 99.6606 336.856 99.8646 337C99.9846 337.084 100.093 337.126 100.189 337.126C100.297 337.126 100.387 337.072 100.459 336.964C100.543 336.844 100.597 336.676 100.621 336.46H100.999C100.951 337.072 100.927 338.128 100.927 339.628H100.549C100.441 338.836 100.201 338.176 99.8286 337.648C99.4686 337.108 98.9406 336.838 98.2446 336.838C97.8846 336.838 97.5846 336.94 97.3446 337.144C97.1166 337.348 97.0026 337.63 97.0026 337.99C97.0026 338.398 97.1406 338.752 97.4166 339.052C97.6926 339.34 98.1246 339.694 98.7126 340.114L99.2346 340.492C99.9666 341.044 100.507 341.536 100.855 341.968C101.203 342.4 101.377 342.94 101.377 343.588C101.377 344.116 101.221 344.584 100.909 344.992C100.609 345.4 100.201 345.712 99.6846 345.928C99.1686 346.144 98.5986 346.252 97.9746 346.252C97.3146 346.252 96.7506 346.126 96.2826 345.874C95.8986 345.682 95.6226 345.556 95.4546 345.496C95.3346 345.46 95.2266 345.502 95.1306 345.622C95.0466 345.73 94.9806 345.898 94.9326 346.126H94.5546C94.6026 345.442 94.6266 344.242 94.6266 342.526H95.0046C95.2446 344.734 96.0546 345.838 97.4346 345.838C97.7826 345.838 98.0766 345.736 98.3166 345.532C98.5686 345.316 98.6946 344.992 98.6946 344.56C98.6946 344.224 98.6166 343.924 98.4606 343.66C98.3166 343.396 98.1306 343.162 97.9026 342.958C97.6746 342.754 97.3326 342.472 96.8766 342.112C96.3366 341.68 95.9226 341.332 95.6346 341.068C95.3586 340.804 95.1186 340.492 94.9146 340.132C94.7226 339.772 94.6266 339.37 94.6266 338.926C94.6266 338.158 94.9266 337.552 95.5266 337.108C96.1266 336.664 96.8586 336.442 97.7226 336.442ZM105.533 345.73H106.469C107.237 345.73 107.885 345.478 108.413 344.974C108.941 344.458 109.253 343.636 109.349 342.508H109.727C109.727 344.212 109.751 345.4 109.799 346.072C108.827 346.024 107.675 346 106.343 346C105.167 346 103.919 346.03 102.599 346.09L107.099 336.964H106.091C104.375 336.964 103.439 338.038 103.283 340.186H102.905C102.905 338.482 102.881 337.294 102.833 336.622C103.805 336.67 104.957 336.694 106.289 336.694C107.465 336.694 108.713 336.664 110.033 336.604L105.533 345.73ZM115.642 336.442C117.022 336.442 118.102 336.838 118.882 337.63C119.662 338.41 120.052 339.652 120.052 341.356C120.052 343.06 119.662 344.302 118.882 345.082C118.102 345.862 117.022 346.252 115.642 346.252C114.274 346.252 113.194 345.862 112.402 345.082C111.622 344.302 111.232 343.06 111.232 341.356C111.232 339.652 111.622 338.41 112.402 337.63C113.194 336.838 114.274 336.442 115.642 336.442ZM115.642 336.802C115.126 336.802 114.712 337.18 114.4 337.936C114.1 338.68 113.95 339.82 113.95 341.356C113.95 342.892 114.1 344.032 114.4 344.776C114.712 345.52 115.126 345.892 115.642 345.892C116.17 345.892 116.584 345.526 116.884 344.794C117.184 344.05 117.334 342.904 117.334 341.356C117.334 339.808 117.178 338.662 116.866 337.918C116.566 337.174 116.158 336.802 115.642 336.802ZM127.872 336.442C128.784 336.442 129.444 336.676 129.852 337.144C130.056 337.372 130.2 337.666 130.284 338.026C130.368 338.386 130.41 338.872 130.41 339.484V344.326C130.41 344.818 130.494 345.16 130.662 345.352C130.842 345.532 131.142 345.622 131.562 345.622V346C130.362 345.952 129.57 345.928 129.186 345.928C128.826 345.928 128.046 345.952 126.846 346V345.622C127.206 345.622 127.458 345.532 127.602 345.352C127.746 345.16 127.818 344.818 127.818 344.326V338.728C127.818 338.236 127.734 337.864 127.566 337.612C127.41 337.36 127.122 337.234 126.702 337.234C126.21 337.234 125.79 337.438 125.442 337.846C125.094 338.242 124.92 338.734 124.92 339.322V344.326C124.92 344.818 124.992 345.16 125.136 345.352C125.28 345.532 125.532 345.622 125.892 345.622V346C124.788 345.952 124.044 345.928 123.66 345.928C123.3 345.928 122.472 345.952 121.176 346V345.622C121.608 345.622 121.908 345.532 122.076 345.352C122.244 345.16 122.328 344.818 122.328 344.326V338.656C122.328 338.104 122.244 337.702 122.076 337.45C121.908 337.198 121.608 337.072 121.176 337.072V336.694C121.56 336.73 121.932 336.748 122.292 336.748C123.36 336.748 124.236 336.664 124.92 336.496V338.116C125.46 337 126.444 336.442 127.872 336.442ZM137.525 344.776C138.509 344.776 139.301 344.296 139.901 343.336L140.225 343.444C139.985 344.224 139.553 344.89 138.929 345.442C138.317 345.982 137.549 346.252 136.625 346.252C135.353 346.252 134.339 345.85 133.583 345.046C132.839 344.23 132.467 343.03 132.467 341.446C132.467 339.826 132.869 338.59 133.673 337.738C134.477 336.874 135.545 336.442 136.877 336.442C139.133 336.442 140.261 337.774 140.261 340.438H135.203C135.191 340.618 135.185 340.9 135.185 341.284C135.185 342.076 135.293 342.736 135.509 343.264C135.737 343.792 136.025 344.176 136.373 344.416C136.733 344.656 137.117 344.776 137.525 344.776ZM136.769 336.82C136.337 336.82 135.977 337.09 135.689 337.63C135.413 338.158 135.239 338.98 135.167 340.096H137.993C138.017 339.148 137.921 338.368 137.705 337.756C137.501 337.132 137.189 336.82 136.769 336.82Z" fill="#B80202"/>
</svg>
