<svg width="731" height="893" viewBox="0 0 731 893" fill="none" xmlns="http://www.w3.org/2000/svg">
<path d="M226.378 233.8C226.378 255.267 227.194 273 228.828 287C212.961 286.3 186.244 285.95 148.678 285.95C97.8111 285.95 59.7777 286.3 34.5777 287V280C42.2777 279.533 47.8777 278.6 51.3777 277.2C55.1111 275.8 57.5611 273.117 58.7277 269.15C60.1277 265.183 60.8277 258.767 60.8277 249.9V76.3C60.8277 67.4333 60.1277 61.0167 58.7277 57.05C57.5611 53.0833 55.1111 50.4 51.3777 49C47.8777 47.6 42.2777 46.6667 34.5777 46.2V39.2C59.7777 39.9 97.8111 40.25 148.678 40.25C182.978 40.25 207.361 39.9 221.828 39.2C220.194 58.5667 219.378 75.8333 219.378 91C219.378 101.267 219.728 109.2 220.428 114.8H212.378C208.878 89.8333 202.578 72.3333 193.478 62.3C184.378 52.2666 171.544 47.25 154.978 47.25H140.628C133.394 47.25 128.144 47.8333 124.878 49C121.611 50.1667 119.394 52.5 118.228 56C117.061 59.2667 116.478 64.6333 116.478 72.1V158.9H127.678C140.044 158.9 149.378 154.35 155.678 145.25C162.211 136.15 166.761 125.3 169.328 112.7H177.378C176.678 122.5 176.328 133.467 176.328 145.6V162.4C176.328 174.3 177.028 190.867 178.428 212.1H170.378C165.478 181.3 151.244 165.9 127.678 165.9H116.478V254.1C116.478 261.567 117.061 267.05 118.228 270.55C119.394 273.817 121.611 276.033 124.878 277.2C128.144 278.367 133.394 278.95 140.628 278.95H157.778C174.344 278.95 187.644 273.35 197.678 262.15C207.944 250.717 215.178 231.467 219.378 204.4H227.428C226.728 212.1 226.378 221.9 226.378 233.8ZM479.354 46.2C471.654 47.3667 465.937 49.35 462.204 52.15C458.704 54.95 456.254 59.3833 454.854 65.45C453.687 71.5167 453.104 80.5 453.104 92.4V185.15C453.104 218.517 448.321 243.25 438.754 259.35C432.454 269.617 423.354 277.667 411.454 283.5C399.554 289.1 384.971 291.9 367.704 291.9C340.637 291.9 319.637 286.067 304.704 274.4C293.971 265.767 286.737 254.917 283.004 241.85C279.271 228.55 277.404 210 277.404 186.2V76.3C277.404 67.4333 276.704 61.0167 275.304 57.05C274.137 53.0833 271.687 50.4 267.954 49C264.454 47.6 258.854 46.6667 251.154 46.2V39.2C263.054 39.9 281.254 40.25 305.754 40.25C330.021 40.25 348.571 39.9 361.404 39.2V46.2C353.004 46.6667 346.821 47.6 342.854 49C339.121 50.4 336.554 53.0833 335.154 57.05C333.754 61.0167 333.054 67.4333 333.054 76.3V208.25C333.054 232.75 336.554 250.833 343.554 262.5C350.787 273.933 363.387 279.65 381.354 279.65C404.687 279.65 421.137 271.833 430.704 256.2C440.271 240.333 445.054 217.933 445.054 189V96.6C445.054 83.0666 444.237 73.0333 442.604 66.5C440.971 59.9666 437.821 55.3 433.154 52.5C428.487 49.4667 421.137 47.3667 411.104 46.2V39.2C419.971 39.9 432.571 40.25 448.904 40.25C461.971 40.25 472.121 39.9 479.354 39.2V46.2ZM579.613 186.9V247.8C579.613 257.133 580.546 264.017 582.413 268.45C584.513 272.65 588.013 275.45 592.913 276.85C598.046 278.25 606.096 279.067 617.063 279.3V287C588.363 286.3 567.013 285.95 553.013 285.95C541.346 285.95 526.646 286.183 508.912 286.65L497.713 287V280C505.413 279.533 511.013 278.6 514.513 277.2C518.246 275.8 520.696 273.117 521.863 269.15C523.263 265.183 523.963 258.767 523.963 249.9V76.3C523.963 67.4333 523.263 61.0167 521.863 57.05C520.696 53.0833 518.246 50.4 514.513 49C511.013 47.6 505.413 46.6667 497.713 46.2V39.2C509.613 39.9 527.346 40.25 550.913 40.25L589.763 39.9C594.429 39.6667 599.796 39.55 605.863 39.55C637.363 39.55 661.396 45.85 677.963 58.45C694.529 70.8167 702.813 87.5 702.813 108.5C702.813 121.333 699.546 133.7 693.013 145.6C686.479 157.267 675.396 167.067 659.763 175C644.363 182.933 623.829 186.9 598.163 186.9H579.613ZM601.313 46.2C595.013 46.2 590.346 47.0167 587.313 48.65C584.513 50.2833 582.529 53.2 581.363 57.4C580.196 61.6 579.613 67.9 579.613 76.3V179.9H594.663C613.563 179.9 626.629 173.833 633.863 161.7C641.096 149.567 644.713 133.117 644.713 112.35C644.713 89.7167 641.329 73.0333 634.563 62.3C628.029 51.5667 616.946 46.2 601.313 46.2ZM355.215 329.2C347.281 329.667 341.565 330.6 338.065 332C334.565 333.4 332.115 336.083 330.715 340.05C329.548 344.017 328.965 350.433 328.965 359.3V532.9C328.965 541.767 329.548 548.183 330.715 552.15C332.115 556.117 334.565 558.8 338.065 560.2C341.565 561.6 347.281 562.533 355.215 563V570C343.781 569.3 326.048 568.95 302.015 568.95C278.448 568.95 260.131 569.3 247.065 570V563C254.765 562.533 260.365 561.6 263.865 560.2C267.598 558.8 270.048 556.117 271.215 552.15C272.615 548.183 273.315 541.767 273.315 532.9V448.9H180.565V532.9C180.565 541.767 181.148 548.183 182.315 552.15C183.715 556.117 186.165 558.8 189.665 560.2C193.165 561.6 198.881 562.533 206.815 563V570C194.215 569.3 176.598 568.95 153.965 568.95C128.998 568.95 110.565 569.3 98.6646 570V563C106.365 562.533 111.965 561.6 115.465 560.2C119.198 558.8 121.648 556.117 122.815 552.15C124.215 548.183 124.915 541.767 124.915 532.9V359.3C124.915 350.433 124.215 344.017 122.815 340.05C121.648 336.083 119.198 333.4 115.465 332C111.965 330.6 106.365 329.667 98.6646 329.2V322.2C110.565 322.9 128.998 323.25 153.965 323.25C176.598 323.25 194.215 322.9 206.815 322.2V329.2C198.881 329.667 193.165 330.6 189.665 332C186.165 333.4 183.715 336.083 182.315 340.05C181.148 344.017 180.565 350.433 180.565 359.3V441.9H273.315V359.3C273.315 350.433 272.615 344.017 271.215 340.05C270.048 336.083 267.598 333.4 263.865 332C260.365 330.6 254.765 329.667 247.065 329.2V322.2C260.131 322.9 278.448 323.25 302.015 323.25C326.048 323.25 343.781 322.9 355.215 322.2V329.2ZM311.013 837.6C304.713 844.833 297.947 849.967 290.713 853C283.48 856.267 274.73 857.9 264.463 857.9C250.93 857.9 240.197 855.1 232.263 849.5C224.563 843.667 219.547 833.867 217.213 820.1L210.913 785.1C207.88 768.067 204.147 755.583 199.713 747.65C195.513 739.483 188.397 735.4 178.363 735.4H155.613V815.9C155.613 824.767 156.197 831.183 157.363 835.15C158.763 839.117 161.213 841.8 164.713 843.2C168.213 844.6 173.93 845.533 181.863 846V853C169.263 852.3 151.647 851.95 129.013 851.95C104.047 851.95 85.6135 852.3 73.7135 853V846C81.4135 845.533 87.0135 844.6 90.5135 843.2C94.2468 841.8 96.6968 839.117 97.8635 835.15C99.2635 831.183 99.9635 824.767 99.9635 815.9V642.3C99.9635 633.433 99.2635 627.017 97.8635 623.05C96.6968 619.083 94.2468 616.4 90.5135 615C87.0135 613.6 81.4135 612.667 73.7135 612.2V605.2C85.6135 605.9 103.347 606.25 126.913 606.25L165.763 605.9C170.43 605.667 175.797 605.55 181.863 605.55C214.063 605.55 238.213 610.8 254.313 621.3C270.647 631.8 278.813 646.85 278.813 666.45C278.813 683.017 272.747 697.6 260.613 710.2C248.48 722.8 228.413 730.733 200.413 734C221.413 735.867 237.047 740.417 247.313 747.65C257.58 754.883 264.23 765.733 267.263 780.2L275.313 816.25C277.18 825.583 279.28 832.117 281.613 835.85C284.18 839.583 287.68 841.45 292.113 841.45C294.913 841.217 297.247 840.517 299.113 839.35C301.213 838.183 303.547 836.2 306.113 833.4L311.013 837.6ZM177.313 612.2C171.013 612.2 166.347 613.017 163.313 614.65C160.513 616.283 158.53 619.2 157.363 623.4C156.197 627.6 155.613 633.9 155.613 642.3V728.4H170.663C189.797 728.4 202.863 723.383 209.863 713.35C217.097 703.083 220.713 688.733 220.713 670.3C220.713 651.167 217.33 636.7 210.563 626.9C203.797 617.1 192.713 612.2 177.313 612.2ZM424.197 612.2C416.264 612.667 410.547 613.6 407.047 615C403.547 616.4 401.097 619.083 399.697 623.05C398.531 627.017 397.947 633.433 397.947 642.3V815.9C397.947 824.767 398.531 831.183 399.697 835.15C401.097 839.117 403.547 841.8 407.047 843.2C410.547 844.6 416.264 845.533 424.197 846V853C411.597 852.3 393.981 851.95 371.347 851.95C346.381 851.95 327.947 852.3 316.047 853V846C323.747 845.533 329.347 844.6 332.847 843.2C336.581 841.8 339.031 839.117 340.197 835.15C341.597 831.183 342.297 824.767 342.297 815.9V642.3C342.297 633.433 341.597 627.017 340.197 623.05C339.031 619.083 336.581 616.4 332.847 615C329.347 613.6 323.747 612.667 316.047 612.2V605.2C327.947 605.9 346.381 606.25 371.347 606.25C393.981 606.25 411.597 605.9 424.197 605.2V612.2ZM649.589 823.6C652.623 831.3 656.123 836.9 660.089 840.4C664.056 843.9 667.906 845.767 671.639 846V853C657.639 852.3 639.906 851.95 618.439 851.95C594.639 851.95 576.906 852.3 565.239 853V846C574.106 845.533 580.406 844.483 584.139 842.85C587.873 840.983 589.739 837.833 589.739 833.4C589.739 829.2 588.339 823.6 585.539 816.6L564.539 759.2H488.239L479.139 783.35C472.606 800.15 469.339 813.1 469.339 822.2C469.339 830.833 471.906 836.9 477.039 840.4C482.406 843.667 490.223 845.533 500.489 846V853C484.623 852.3 470.156 851.95 457.089 851.95C446.356 851.95 437.489 852.3 430.489 853V846C441.923 843.9 451.956 831.65 460.589 809.25L540.389 604.5C542.956 604.733 547.039 604.85 552.639 604.85C558.239 604.85 562.206 604.733 564.539 604.5L649.589 823.6ZM562.089 752.2L527.439 657.7L491.039 752.2H562.089Z" fill="#E7E7E7"/>
<path d="M505.646 317.3C530.38 317.3 551.963 322.317 570.396 332.35C589.063 342.383 603.53 356.967 613.796 376.1C624.063 395 629.196 417.633 629.196 444C629.196 469.667 623.946 492.417 613.446 512.25C602.946 532.083 588.246 547.483 569.346 558.45C550.68 569.417 529.33 574.9 505.296 574.9C480.563 574.9 458.863 569.883 440.196 559.85C421.763 549.817 407.413 535.35 397.146 516.45C386.88 497.317 381.746 474.567 381.746 448.2C381.746 422.533 386.996 399.783 397.496 379.95C407.996 360.117 422.58 344.717 441.246 333.75C460.146 322.783 481.613 317.3 505.646 317.3ZM504.246 323.6C491.413 323.6 480.096 328.85 470.296 339.35C460.496 349.617 452.913 364.083 447.546 382.75C442.413 401.417 439.846 422.767 439.846 446.8C439.846 471.067 442.763 492.417 448.596 510.85C454.663 529.283 462.713 543.517 472.746 553.55C483.013 563.583 494.33 568.6 506.696 568.6C519.53 568.6 530.846 563.467 540.646 553.2C550.446 542.7 557.913 528.117 563.046 509.45C568.413 490.783 571.096 469.433 571.096 445.4C571.096 421.133 568.063 399.783 561.996 381.35C556.163 362.917 548.113 348.683 537.846 338.65C527.813 328.617 516.613 323.6 504.246 323.6Z" fill="#B80202"/>
<path d="M597.445 381C586.798 377.032 583.041 372.565 580 360.891C616.773 352.135 615.691 334.933 597.445 295C634.55 330.906 636.474 349.856 597.445 381Z" fill="#DA0000"/>
<path d="M411.417 386C421.935 381.023 426.126 376.645 430 364.721C390.829 355.457 391.981 337.255 411.417 295C371.892 332.994 369.843 353.045 411.417 386Z" fill="#DA0000"/>
<path d="M77.558 876.892C78.118 876.892 78.594 876.971 78.986 877.13C79.378 877.289 79.7607 877.513 80.134 877.802C80.2367 877.886 80.3253 877.928 80.4 877.928C80.5867 877.928 80.708 877.648 80.764 877.088H81.086C81.0487 877.723 81.03 878.852 81.03 880.476H80.708C80.624 879.785 80.512 879.258 80.372 878.894C80.232 878.53 79.994 878.213 79.658 877.942C79.4247 877.718 79.154 877.55 78.846 877.438C78.538 877.317 78.216 877.256 77.88 877.256C76.9373 877.256 76.2373 877.718 75.78 878.642C75.3227 879.557 75.094 880.7 75.094 882.072C75.094 883.435 75.332 884.573 75.808 885.488C76.284 886.403 76.9933 886.86 77.936 886.86C78.2533 886.86 78.566 886.804 78.874 886.692C79.1913 886.571 79.4573 886.398 79.672 886.174C80.0173 885.913 80.2553 885.586 80.386 885.194C80.526 884.802 80.6333 884.228 80.708 883.472H81.03C81.03 885.161 81.0487 886.337 81.086 887H80.764C80.736 886.701 80.694 886.491 80.638 886.37C80.5913 886.239 80.5213 886.174 80.428 886.174C80.3533 886.174 80.2553 886.211 80.134 886.286C79.714 886.585 79.3127 886.813 78.93 886.972C78.5473 887.121 78.0853 887.196 77.544 887.196C76.5547 887.196 75.6867 886.995 74.94 886.594C74.2027 886.193 73.6287 885.614 73.218 884.858C72.8073 884.093 72.602 883.183 72.602 882.128C72.602 881.101 72.812 880.191 73.232 879.398C73.652 878.605 74.2353 877.989 74.982 877.55C75.738 877.111 76.5967 876.892 77.558 876.892ZM84.5871 886.79H85.3151C85.9124 886.79 86.4164 886.594 86.8271 886.202C87.2378 885.801 87.4804 885.161 87.5551 884.284H87.8491C87.8491 885.609 87.8678 886.533 87.9051 887.056C87.1491 887.019 86.2531 887 85.2171 887C84.3024 887 83.3318 887.023 82.3051 887.07L85.8051 879.972H85.0211C83.6864 879.972 82.9584 880.807 82.8371 882.478H82.5431C82.5431 881.153 82.5244 880.229 82.4871 879.706C83.2431 879.743 84.1391 879.762 85.1751 879.762C86.0898 879.762 87.0604 879.739 88.0871 879.692L84.5871 886.79ZM94.606 879.804C95.0726 879.804 95.432 879.79 95.684 879.762V880.042C95.488 880.098 95.3106 880.219 95.152 880.406C95.0026 880.583 94.858 880.863 94.718 881.246L92.212 888.288C92.0253 888.773 91.82 889.105 91.596 889.282C91.3253 889.515 90.9193 889.632 90.378 889.632C89.986 889.632 89.6313 889.534 89.314 889.338C89.006 889.151 88.852 888.876 88.852 888.512C88.852 888.223 88.9546 887.989 89.16 887.812C89.3653 887.644 89.636 887.56 89.972 887.56C90.2893 887.56 90.5413 887.635 90.728 887.784C90.924 887.943 91.022 888.162 91.022 888.442C91.022 888.638 90.9613 888.815 90.84 888.974C90.7186 889.142 90.546 889.268 90.322 889.352C90.3873 889.361 90.4946 889.366 90.644 889.366C91.2226 889.366 91.6473 888.997 91.918 888.26L92.142 887.588L89.174 880.84C89.0246 880.523 88.88 880.313 88.74 880.21C88.6 880.107 88.4553 880.056 88.306 880.056V879.762C88.922 879.818 89.5613 879.846 90.224 879.846C90.7746 879.846 91.4233 879.818 92.17 879.762V880.056C91.8713 880.056 91.6473 880.079 91.498 880.126C91.358 880.163 91.288 880.271 91.288 880.448C91.288 880.551 91.3206 880.681 91.386 880.84L93.094 884.97L94.06 882.282C94.2093 881.843 94.284 881.47 94.284 881.162C94.284 880.481 93.9386 880.107 93.248 880.042V879.762C93.6866 879.79 94.1393 879.804 94.606 879.804ZM98.5436 885.698C98.5436 886.081 98.6089 886.347 98.7396 886.496C98.8702 886.636 99.1036 886.706 99.4396 886.706V887C98.4689 886.963 97.8436 886.944 97.5636 886.944C97.2462 886.944 96.6022 886.963 95.6316 887V886.706C95.9582 886.706 96.1869 886.636 96.3176 886.496C96.4576 886.347 96.5276 886.081 96.5276 885.698V877.718C96.5276 877.289 96.4576 876.976 96.3176 876.78C96.1869 876.584 95.9582 876.486 95.6316 876.486V876.192C95.9302 876.22 96.2196 876.234 96.4996 876.234C97.3116 876.234 97.9929 876.169 98.5436 876.038V885.698ZM101.855 876.15C102.247 876.15 102.555 876.248 102.779 876.444C103.013 876.631 103.129 876.892 103.129 877.228C103.129 877.564 103.013 877.83 102.779 878.026C102.555 878.213 102.247 878.306 101.855 878.306C101.463 878.306 101.151 878.213 100.917 878.026C100.693 877.83 100.581 877.564 100.581 877.228C100.581 876.892 100.693 876.631 100.917 876.444C101.151 876.248 101.463 876.15 101.855 876.15ZM102.947 885.698C102.947 886.081 103.013 886.347 103.143 886.496C103.283 886.636 103.517 886.706 103.843 886.706V887C102.91 886.963 102.289 886.944 101.981 886.944C101.692 886.944 101.043 886.963 100.035 887V886.706C100.371 886.706 100.605 886.636 100.735 886.496C100.866 886.347 100.931 886.081 100.931 885.698V881.288C100.931 880.859 100.866 880.546 100.735 880.35C100.605 880.154 100.371 880.056 100.035 880.056V879.762C100.334 879.79 100.623 879.804 100.903 879.804C101.734 879.804 102.415 879.739 102.947 879.608V885.698ZM175.426 885.698C175.426 886.081 175.491 886.347 175.622 886.496C175.762 886.636 175.995 886.706 176.322 886.706V887C175.389 886.963 174.773 886.944 174.474 886.944C174.213 886.944 173.634 886.963 172.738 887V886.706C172.99 886.706 173.163 886.636 173.256 886.496C173.359 886.356 173.41 886.09 173.41 885.698V881.344C173.41 880.952 173.349 880.663 173.228 880.476C173.116 880.28 172.897 880.182 172.57 880.182C172.225 880.182 171.921 880.327 171.66 880.616C171.408 880.905 171.259 881.26 171.212 881.68V881.932V885.698C171.212 886.081 171.268 886.347 171.38 886.496C171.501 886.636 171.716 886.706 172.024 886.706V887C171.128 886.963 170.54 886.944 170.26 886.944C169.999 886.944 169.42 886.963 168.524 887V886.706C168.776 886.706 168.949 886.636 169.042 886.496C169.145 886.347 169.196 886.081 169.196 885.698V881.344C169.196 880.952 169.145 880.663 169.042 880.476C168.939 880.28 168.739 880.182 168.44 880.182C168.067 880.182 167.745 880.341 167.474 880.658C167.213 880.966 167.082 881.349 167.082 881.806V885.698C167.082 886.081 167.129 886.347 167.222 886.496C167.325 886.636 167.502 886.706 167.754 886.706V887C166.933 886.963 166.382 886.944 166.102 886.944C165.822 886.944 165.178 886.963 164.17 887V886.706C164.506 886.706 164.739 886.636 164.87 886.496C165.001 886.347 165.066 886.081 165.066 885.698V881.288C165.066 880.859 165.001 880.546 164.87 880.35C164.739 880.154 164.506 880.056 164.17 880.056V879.762C164.469 879.79 164.758 879.804 165.038 879.804C165.869 879.804 166.55 879.739 167.082 879.608V880.868C167.493 880 168.216 879.566 169.252 879.566C169.961 879.566 170.475 879.748 170.792 880.112C170.969 880.299 171.086 880.579 171.142 880.952C171.385 880.448 171.702 880.093 172.094 879.888C172.486 879.673 172.943 879.566 173.466 879.566C174.175 879.566 174.689 879.748 175.006 880.112C175.155 880.28 175.263 880.509 175.328 880.798C175.393 881.087 175.426 881.465 175.426 881.932V885.698ZM178.692 887.098C178.094 887.098 177.646 886.944 177.348 886.636C177.058 886.328 176.914 885.922 176.914 885.418C176.914 884.998 177.021 884.653 177.236 884.382C177.46 884.102 177.726 883.887 178.034 883.738C178.351 883.589 178.752 883.43 179.238 883.262C179.751 883.085 180.124 882.926 180.358 882.786C180.6 882.637 180.722 882.436 180.722 882.184V881.092C180.722 880.7 180.628 880.397 180.442 880.182C180.264 879.958 179.984 879.846 179.602 879.846C179.154 879.846 178.813 879.958 178.58 880.182C178.841 880.275 179.042 880.415 179.182 880.602C179.331 880.789 179.406 881.008 179.406 881.26C179.406 881.577 179.298 881.829 179.084 882.016C178.869 882.203 178.608 882.296 178.3 882.296C177.973 882.296 177.721 882.193 177.544 881.988C177.366 881.783 177.278 881.526 177.278 881.218C177.278 880.957 177.338 880.737 177.46 880.56C177.59 880.373 177.786 880.201 178.048 880.042C178.3 879.893 178.608 879.776 178.972 879.692C179.345 879.608 179.751 879.566 180.19 879.566C180.647 879.566 181.044 879.613 181.38 879.706C181.716 879.799 181.996 879.958 182.22 880.182C182.425 880.387 182.56 880.639 182.626 880.938C182.7 881.237 182.738 881.643 182.738 882.156V885.964C182.738 886.188 182.756 886.347 182.794 886.44C182.84 886.533 182.924 886.58 183.046 886.58C183.186 886.58 183.354 886.501 183.55 886.342L183.69 886.58C183.27 886.925 182.756 887.098 182.15 887.098C181.636 887.098 181.277 886.995 181.072 886.79C180.866 886.585 180.759 886.309 180.75 885.964C180.283 886.72 179.597 887.098 178.692 887.098ZM179.77 886.202C180.134 886.202 180.451 886.011 180.722 885.628V882.758C180.61 882.945 180.372 883.15 180.008 883.374C179.644 883.607 179.368 883.841 179.182 884.074C178.995 884.307 178.902 884.643 178.902 885.082C178.902 885.465 178.981 885.749 179.14 885.936C179.298 886.113 179.508 886.202 179.77 886.202ZM183.432 889.38C183.899 889.361 184.263 889.175 184.524 888.82C184.795 888.465 184.93 887.943 184.93 887.252V881.288C184.93 880.859 184.86 880.546 184.72 880.35C184.589 880.154 184.361 880.056 184.034 880.056V879.762C184.333 879.79 184.622 879.804 184.902 879.804C185.714 879.804 186.395 879.739 186.946 879.608V885.684C186.946 886.468 186.867 887.112 186.708 887.616C186.559 888.12 186.302 888.54 185.938 888.876C185.387 889.38 184.552 889.632 183.432 889.632V889.38ZM185.784 876.15C186.176 876.15 186.484 876.248 186.708 876.444C186.941 876.631 187.058 876.892 187.058 877.228C187.058 877.564 186.941 877.83 186.708 878.026C186.484 878.213 186.176 878.306 185.784 878.306C185.392 878.306 185.079 878.213 184.846 878.026C184.622 877.83 184.51 877.564 184.51 877.228C184.51 876.892 184.622 876.631 184.846 876.444C185.079 876.248 185.392 876.15 185.784 876.15ZM191.088 879.762H192.74V880.042H191.088V885.698C191.088 885.978 191.135 886.179 191.228 886.3C191.331 886.412 191.489 886.468 191.704 886.468C192.105 886.468 192.423 886.188 192.656 885.628L192.894 885.754C192.539 886.715 191.9 887.196 190.976 887.196C190.36 887.196 189.893 887.037 189.576 886.72C189.38 886.524 189.245 886.281 189.17 885.992C189.105 885.693 189.072 885.287 189.072 884.774V880.042H187.896V879.762H189.072V877.914C189.847 877.914 190.519 877.765 191.088 877.466V879.762ZM197.229 886.048C197.995 886.048 198.611 885.675 199.077 884.928L199.329 885.012C199.143 885.619 198.807 886.137 198.321 886.566C197.845 886.986 197.248 887.196 196.529 887.196C195.54 887.196 194.751 886.883 194.163 886.258C193.585 885.623 193.295 884.69 193.295 883.458C193.295 882.198 193.608 881.237 194.233 880.574C194.859 879.902 195.689 879.566 196.725 879.566C198.48 879.566 199.357 880.602 199.357 882.674H195.423C195.414 882.814 195.409 883.033 195.409 883.332C195.409 883.948 195.493 884.461 195.661 884.872C195.839 885.283 196.063 885.581 196.333 885.768C196.613 885.955 196.912 886.048 197.229 886.048ZM196.641 879.86C196.305 879.86 196.025 880.07 195.801 880.49C195.587 880.901 195.451 881.54 195.395 882.408H197.593C197.612 881.671 197.537 881.064 197.369 880.588C197.211 880.103 196.968 879.86 196.641 879.86ZM203.808 879.566C204.153 879.566 204.48 879.603 204.788 879.678C205.096 879.753 205.353 879.855 205.558 879.986C205.801 880.135 205.987 880.327 206.118 880.56C206.258 880.784 206.328 881.031 206.328 881.302C206.328 881.629 206.225 881.899 206.02 882.114C205.815 882.319 205.549 882.422 205.222 882.422C204.895 882.422 204.634 882.329 204.438 882.142C204.242 881.955 204.144 881.703 204.144 881.386C204.144 881.106 204.233 880.863 204.41 880.658C204.587 880.453 204.807 880.313 205.068 880.238C204.993 880.135 204.877 880.056 204.718 880C204.569 879.935 204.405 879.902 204.228 879.902C203.668 879.902 203.229 880.21 202.912 880.826C202.604 881.433 202.45 882.231 202.45 883.22C202.45 884.219 202.627 884.937 202.982 885.376C203.337 885.815 203.78 886.034 204.312 886.034C204.629 886.034 204.947 885.95 205.264 885.782C205.591 885.614 205.885 885.32 206.146 884.9L206.384 884.984C206.197 885.591 205.871 886.113 205.404 886.552C204.937 886.981 204.335 887.196 203.598 887.196C202.637 887.196 201.853 886.879 201.246 886.244C200.639 885.609 200.336 884.667 200.336 883.416C200.336 882.595 200.485 881.895 200.784 881.316C201.083 880.737 201.493 880.303 202.016 880.014C202.539 879.715 203.136 879.566 203.808 879.566ZM209.493 886.79H210.221C210.819 886.79 211.323 886.594 211.733 886.202C212.144 885.801 212.387 885.161 212.461 884.284H212.755C212.755 885.609 212.774 886.533 212.811 887.056C212.055 887.019 211.159 887 210.123 887C209.209 887 208.238 887.023 207.211 887.07L210.711 879.972H209.927C208.593 879.972 207.865 880.807 207.743 882.478H207.449C207.449 881.153 207.431 880.229 207.393 879.706C208.149 879.743 209.045 879.762 210.081 879.762C210.996 879.762 211.967 879.739 212.993 879.692L209.493 886.79ZM220.856 885.978C221.006 886.202 221.127 886.37 221.22 886.482C221.314 886.585 221.435 886.659 221.584 886.706V887C220.838 886.963 220.348 886.944 220.114 886.944C219.806 886.944 219.204 886.963 218.308 887V886.706C218.439 886.706 218.542 886.683 218.616 886.636C218.691 886.589 218.728 886.524 218.728 886.44C218.728 886.393 218.705 886.323 218.658 886.23L217.272 883.724C217.179 883.565 217.081 883.458 216.978 883.402C216.876 883.346 216.745 883.309 216.586 883.29V885.698C216.586 886.081 216.647 886.347 216.768 886.496C216.89 886.636 217.109 886.706 217.426 886.706V887C216.493 886.963 215.886 886.944 215.606 886.944C215.289 886.944 214.645 886.963 213.674 887V886.706C214.001 886.706 214.23 886.636 214.36 886.496C214.5 886.347 214.57 886.081 214.57 885.698V877.718C214.57 877.289 214.5 876.976 214.36 876.78C214.23 876.584 214.001 876.486 213.674 876.486V876.192C213.973 876.22 214.262 876.234 214.542 876.234C215.354 876.234 216.036 876.169 216.586 876.038V883.024C216.773 883.005 216.932 882.968 217.062 882.912C217.202 882.856 217.324 882.772 217.426 882.66L218.49 881.624C218.798 881.316 218.952 881.031 218.952 880.77C218.952 880.555 218.854 880.387 218.658 880.266C218.462 880.135 218.201 880.061 217.874 880.042V879.762C218.388 879.79 218.934 879.804 219.512 879.804C220.287 879.804 220.833 879.79 221.15 879.762V880.042C220.6 880.163 220.016 880.523 219.4 881.12L218.504 882.044L220.856 885.978ZM223.754 876.15C224.146 876.15 224.454 876.248 224.678 876.444C224.911 876.631 225.028 876.892 225.028 877.228C225.028 877.564 224.911 877.83 224.678 878.026C224.454 878.213 224.146 878.306 223.754 878.306C223.362 878.306 223.049 878.213 222.816 878.026C222.592 877.83 222.48 877.564 222.48 877.228C222.48 876.892 222.592 876.631 222.816 876.444C223.049 876.248 223.362 876.15 223.754 876.15ZM224.846 885.698C224.846 886.081 224.911 886.347 225.042 886.496C225.182 886.636 225.415 886.706 225.742 886.706V887C224.808 886.963 224.188 886.944 223.88 886.944C223.59 886.944 222.942 886.963 221.934 887V886.706C222.27 886.706 222.503 886.636 222.634 886.496C222.764 886.347 222.83 886.081 222.83 885.698V881.288C222.83 880.859 222.764 880.546 222.634 880.35C222.503 880.154 222.27 880.056 221.934 880.056V879.762C222.232 879.79 222.522 879.804 222.802 879.804C223.632 879.804 224.314 879.739 224.846 879.608V885.698ZM227.848 885.04C228.305 885.04 228.636 885.203 228.842 885.53C228.935 885.67 229.01 885.843 229.066 886.048C229.122 886.253 229.15 886.468 229.15 886.692C229.15 887.177 229.024 887.616 228.772 888.008C228.529 888.4 228.165 888.708 227.68 888.932L227.554 888.68C227.824 888.568 228.058 888.395 228.254 888.162C228.459 887.929 228.58 887.691 228.618 887.448C228.646 887.336 228.66 887.229 228.66 887.126C228.66 887.033 228.646 886.944 228.618 886.86C228.412 887.084 228.142 887.196 227.806 887.196C227.479 887.196 227.213 887.103 227.008 886.916C226.802 886.72 226.7 886.454 226.7 886.118C226.7 885.801 226.807 885.544 227.022 885.348C227.236 885.143 227.512 885.04 227.848 885.04ZM236.19 879.566C236.545 879.566 236.871 879.613 237.17 879.706C237.469 879.79 237.697 879.888 237.856 880C237.949 880.065 238.033 880.098 238.108 880.098C238.192 880.098 238.262 880.056 238.318 879.972C238.383 879.879 238.425 879.748 238.444 879.58H238.738C238.701 880.056 238.682 880.877 238.682 882.044H238.388C238.304 881.428 238.117 880.915 237.828 880.504C237.548 880.084 237.137 879.874 236.596 879.874C236.316 879.874 236.083 879.953 235.896 880.112C235.719 880.271 235.63 880.49 235.63 880.77C235.63 881.087 235.737 881.363 235.952 881.596C236.167 881.82 236.503 882.095 236.96 882.422L237.366 882.716C237.935 883.145 238.355 883.528 238.626 883.864C238.897 884.2 239.032 884.62 239.032 885.124C239.032 885.535 238.911 885.899 238.668 886.216C238.435 886.533 238.117 886.776 237.716 886.944C237.315 887.112 236.871 887.196 236.386 887.196C235.873 887.196 235.434 887.098 235.07 886.902C234.771 886.753 234.557 886.655 234.426 886.608C234.333 886.58 234.249 886.613 234.174 886.706C234.109 886.79 234.057 886.921 234.02 887.098H233.726C233.763 886.566 233.782 885.633 233.782 884.298H234.076C234.263 886.015 234.893 886.874 235.966 886.874C236.237 886.874 236.465 886.795 236.652 886.636C236.848 886.468 236.946 886.216 236.946 885.88C236.946 885.619 236.885 885.385 236.764 885.18C236.652 884.975 236.507 884.793 236.33 884.634C236.153 884.475 235.887 884.256 235.532 883.976C235.112 883.64 234.79 883.369 234.566 883.164C234.351 882.959 234.165 882.716 234.006 882.436C233.857 882.156 233.782 881.843 233.782 881.498C233.782 880.901 234.015 880.429 234.482 880.084C234.949 879.739 235.518 879.566 236.19 879.566ZM246.997 885.978C247.146 886.202 247.267 886.37 247.361 886.482C247.454 886.585 247.575 886.659 247.725 886.706V887C246.978 886.963 246.488 886.944 246.255 886.944C245.947 886.944 245.345 886.963 244.449 887V886.706C244.579 886.706 244.682 886.683 244.757 886.636C244.831 886.589 244.869 886.524 244.869 886.44C244.869 886.393 244.845 886.323 244.799 886.23L243.413 883.724C243.319 883.565 243.221 883.458 243.119 883.402C243.016 883.346 242.885 883.309 242.727 883.29V885.698C242.727 886.081 242.787 886.347 242.909 886.496C243.03 886.636 243.249 886.706 243.567 886.706V887C242.633 886.963 242.027 886.944 241.747 886.944C241.429 886.944 240.785 886.963 239.815 887V886.706C240.141 886.706 240.37 886.636 240.501 886.496C240.641 886.347 240.711 886.081 240.711 885.698V877.718C240.711 877.289 240.641 876.976 240.501 876.78C240.37 876.584 240.141 876.486 239.815 876.486V876.192C240.113 876.22 240.403 876.234 240.683 876.234C241.495 876.234 242.176 876.169 242.727 876.038V883.024C242.913 883.005 243.072 882.968 243.203 882.912C243.343 882.856 243.464 882.772 243.567 882.66L244.631 881.624C244.939 881.316 245.093 881.031 245.093 880.77C245.093 880.555 244.995 880.387 244.799 880.266C244.603 880.135 244.341 880.061 244.015 880.042V879.762C244.528 879.79 245.074 879.804 245.653 879.804C246.427 879.804 246.973 879.79 247.291 879.762V880.042C246.74 880.163 246.157 880.523 245.541 881.12L244.645 882.044L246.997 885.978ZM249.868 887.098C249.27 887.098 248.822 886.944 248.524 886.636C248.234 886.328 248.09 885.922 248.09 885.418C248.09 884.998 248.197 884.653 248.412 884.382C248.636 884.102 248.902 883.887 249.21 883.738C249.527 883.589 249.928 883.43 250.414 883.262C250.927 883.085 251.3 882.926 251.534 882.786C251.776 882.637 251.898 882.436 251.898 882.184V881.092C251.898 880.7 251.804 880.397 251.618 880.182C251.44 879.958 251.16 879.846 250.778 879.846C250.33 879.846 249.989 879.958 249.756 880.182C250.017 880.275 250.218 880.415 250.358 880.602C250.507 880.789 250.582 881.008 250.582 881.26C250.582 881.577 250.474 881.829 250.26 882.016C250.045 882.203 249.784 882.296 249.476 882.296C249.149 882.296 248.897 882.193 248.72 881.988C248.542 881.783 248.454 881.526 248.454 881.218C248.454 880.957 248.514 880.737 248.636 880.56C248.766 880.373 248.962 880.201 249.224 880.042C249.476 879.893 249.784 879.776 250.148 879.692C250.521 879.608 250.927 879.566 251.366 879.566C251.823 879.566 252.22 879.613 252.556 879.706C252.892 879.799 253.172 879.958 253.396 880.182C253.601 880.387 253.736 880.639 253.802 880.938C253.876 881.237 253.914 881.643 253.914 882.156V885.964C253.914 886.188 253.932 886.347 253.97 886.44C254.016 886.533 254.1 886.58 254.222 886.58C254.362 886.58 254.53 886.501 254.726 886.342L254.866 886.58C254.446 886.925 253.932 887.098 253.326 887.098C252.812 887.098 252.453 886.995 252.248 886.79C252.042 886.585 251.935 886.309 251.926 885.964C251.459 886.72 250.773 887.098 249.868 887.098ZM250.946 886.202C251.31 886.202 251.627 886.011 251.898 885.628V882.758C251.786 882.945 251.548 883.15 251.184 883.374C250.82 883.607 250.544 883.841 250.358 884.074C250.171 884.307 250.078 884.643 250.078 885.082C250.078 885.465 250.157 885.749 250.316 885.936C250.474 886.113 250.684 886.202 250.946 886.202ZM260.082 879.566C260.502 879.566 260.819 879.692 261.034 879.944C261.248 880.196 261.356 880.499 261.356 880.854C261.356 881.199 261.253 881.484 261.048 881.708C260.852 881.923 260.59 882.03 260.264 882.03C259.946 882.03 259.694 881.951 259.508 881.792C259.321 881.624 259.228 881.405 259.228 881.134C259.228 880.686 259.433 880.322 259.844 880.042C259.806 880.033 259.75 880.028 259.676 880.028C259.582 880.028 259.508 880.037 259.452 880.056C259.097 880.112 258.794 880.327 258.542 880.7C258.299 881.073 258.178 881.456 258.178 881.848V885.558C258.178 885.987 258.28 886.286 258.486 886.454C258.7 886.622 259.036 886.706 259.494 886.706V887C259.363 887 259.256 886.995 259.172 886.986C258.22 886.958 257.585 886.944 257.268 886.944C257.016 886.944 256.442 886.958 255.546 886.986C255.471 886.995 255.378 887 255.266 887V886.706C255.602 886.706 255.835 886.636 255.966 886.496C256.096 886.347 256.162 886.081 256.162 885.698V881.288C256.162 880.859 256.096 880.546 255.966 880.35C255.835 880.154 255.602 880.056 255.266 880.056V879.762C255.564 879.79 255.854 879.804 256.134 879.804C256.964 879.804 257.646 879.739 258.178 879.608V880.91C258.355 880.509 258.612 880.187 258.948 879.944C259.284 879.692 259.662 879.566 260.082 879.566ZM266.827 879.566C267.312 879.566 267.742 879.697 268.115 879.958C268.498 880.219 268.796 880.611 269.011 881.134C269.226 881.657 269.333 882.296 269.333 883.052C269.333 884.387 269.039 885.413 268.451 886.132C267.872 886.841 267.084 887.196 266.085 887.196C265.805 887.196 265.539 887.159 265.287 887.084C265.044 887.009 264.834 886.897 264.657 886.748V888.148C264.657 888.559 264.76 888.843 264.965 889.002C265.17 889.161 265.488 889.24 265.917 889.24V889.534L265.539 889.52C264.503 889.492 263.845 889.478 263.565 889.478C263.285 889.478 262.697 889.497 261.801 889.534V889.24C262.109 889.24 262.324 889.17 262.445 889.03C262.576 888.899 262.641 888.652 262.641 888.288V881.288C262.641 880.859 262.571 880.546 262.431 880.35C262.3 880.154 262.072 880.056 261.745 880.056V879.762C262.044 879.79 262.333 879.804 262.613 879.804C263.425 879.804 264.106 879.739 264.657 879.608V880.896C264.853 880.467 265.138 880.14 265.511 879.916C265.884 879.683 266.323 879.566 266.827 879.566ZM265.539 886.818C266.136 886.818 266.566 886.524 266.827 885.936C267.088 885.339 267.219 884.471 267.219 883.332C267.219 882.193 267.112 881.381 266.897 880.896C266.692 880.411 266.393 880.168 266.001 880.168C265.684 880.168 265.399 880.275 265.147 880.49C264.904 880.705 264.741 881.003 264.657 881.386V886.44C264.881 886.692 265.175 886.818 265.539 886.818ZM274.311 886.048C275.077 886.048 275.693 885.675 276.159 884.928L276.411 885.012C276.225 885.619 275.889 886.137 275.403 886.566C274.927 886.986 274.33 887.196 273.611 887.196C272.622 887.196 271.833 886.883 271.245 886.258C270.667 885.623 270.377 884.69 270.377 883.458C270.377 882.198 270.69 881.237 271.315 880.574C271.941 879.902 272.771 879.566 273.807 879.566C275.562 879.566 276.439 880.602 276.439 882.674H272.505C272.496 882.814 272.491 883.033 272.491 883.332C272.491 883.948 272.575 884.461 272.743 884.872C272.921 885.283 273.145 885.581 273.415 885.768C273.695 885.955 273.994 886.048 274.311 886.048ZM273.723 879.86C273.387 879.86 273.107 880.07 272.883 880.49C272.669 880.901 272.533 881.54 272.477 882.408H274.675C274.694 881.671 274.619 881.064 274.451 880.588C274.293 880.103 274.05 879.86 273.723 879.86ZM280.092 879.762H281.744V880.042H280.092V885.698C280.092 885.978 280.139 886.179 280.232 886.3C280.335 886.412 280.493 886.468 280.708 886.468C281.109 886.468 281.427 886.188 281.66 885.628L281.898 885.754C281.543 886.715 280.904 887.196 279.98 887.196C279.364 887.196 278.897 887.037 278.58 886.72C278.384 886.524 278.249 886.281 278.174 885.992C278.109 885.693 278.076 885.287 278.076 884.774V880.042H276.9V879.762H278.076V877.914C278.851 877.914 279.523 877.765 280.092 877.466V879.762ZM289.284 885.978C289.433 886.202 289.555 886.37 289.648 886.482C289.741 886.585 289.863 886.659 290.012 886.706V887C289.265 886.963 288.775 886.944 288.542 886.944C288.234 886.944 287.632 886.963 286.736 887V886.706C286.867 886.706 286.969 886.683 287.044 886.636C287.119 886.589 287.156 886.524 287.156 886.44C287.156 886.393 287.133 886.323 287.086 886.23L285.7 883.724C285.607 883.565 285.509 883.458 285.406 883.402C285.303 883.346 285.173 883.309 285.014 883.29V885.698C285.014 886.081 285.075 886.347 285.196 886.496C285.317 886.636 285.537 886.706 285.854 886.706V887C284.921 886.963 284.314 886.944 284.034 886.944C283.717 886.944 283.073 886.963 282.102 887V886.706C282.429 886.706 282.657 886.636 282.788 886.496C282.928 886.347 282.998 886.081 282.998 885.698V877.718C282.998 877.289 282.928 876.976 282.788 876.78C282.657 876.584 282.429 876.486 282.102 876.486V876.192C282.401 876.22 282.69 876.234 282.97 876.234C283.782 876.234 284.463 876.169 285.014 876.038V883.024C285.201 883.005 285.359 882.968 285.49 882.912C285.63 882.856 285.751 882.772 285.854 882.66L286.918 881.624C287.226 881.316 287.38 881.031 287.38 880.77C287.38 880.555 287.282 880.387 287.086 880.266C286.89 880.135 286.629 880.061 286.302 880.042V879.762C286.815 879.79 287.361 879.804 287.94 879.804C288.715 879.804 289.261 879.79 289.578 879.762V880.042C289.027 880.163 288.444 880.523 287.828 881.12L286.932 882.044L289.284 885.978ZM292.181 876.15C292.573 876.15 292.881 876.248 293.105 876.444C293.339 876.631 293.455 876.892 293.455 877.228C293.455 877.564 293.339 877.83 293.105 878.026C292.881 878.213 292.573 878.306 292.181 878.306C291.789 878.306 291.477 878.213 291.243 878.026C291.019 877.83 290.907 877.564 290.907 877.228C290.907 876.892 291.019 876.631 291.243 876.444C291.477 876.248 291.789 876.15 292.181 876.15ZM293.273 885.698C293.273 886.081 293.339 886.347 293.469 886.496C293.609 886.636 293.843 886.706 294.169 886.706V887C293.236 886.963 292.615 886.944 292.307 886.944C292.018 886.944 291.369 886.963 290.361 887V886.706C290.697 886.706 290.931 886.636 291.061 886.496C291.192 886.347 291.257 886.081 291.257 885.698V881.288C291.257 880.859 291.192 880.546 291.061 880.35C290.931 880.154 290.697 880.056 290.361 880.056V879.762C290.66 879.79 290.949 879.804 291.229 879.804C292.06 879.804 292.741 879.739 293.273 879.608V885.698ZM296.275 885.04C296.733 885.04 297.064 885.203 297.269 885.53C297.363 885.67 297.437 885.843 297.493 886.048C297.549 886.253 297.577 886.468 297.577 886.692C297.577 887.177 297.451 887.616 297.199 888.008C296.957 888.4 296.593 888.708 296.107 888.932L295.981 888.68C296.252 888.568 296.485 888.395 296.681 888.162C296.887 887.929 297.008 887.691 297.045 887.448C297.073 887.336 297.087 887.229 297.087 887.126C297.087 887.033 297.073 886.944 297.045 886.86C296.84 887.084 296.569 887.196 296.233 887.196C295.907 887.196 295.641 887.103 295.435 886.916C295.23 886.72 295.127 886.454 295.127 886.118C295.127 885.801 295.235 885.544 295.449 885.348C295.664 885.143 295.939 885.04 296.275 885.04ZM306.872 879.566C307.357 879.566 307.786 879.697 308.16 879.958C308.542 880.219 308.841 880.611 309.056 881.134C309.27 881.657 309.378 882.296 309.378 883.052C309.378 884.387 309.084 885.413 308.496 886.132C307.917 886.841 307.128 887.196 306.13 887.196C305.85 887.196 305.584 887.159 305.332 887.084C305.089 887.009 304.879 886.897 304.702 886.748V888.148C304.702 888.559 304.804 888.843 305.01 889.002C305.215 889.161 305.532 889.24 305.962 889.24V889.534L305.584 889.52C304.548 889.492 303.89 889.478 303.61 889.478C303.33 889.478 302.742 889.497 301.846 889.534V889.24C302.154 889.24 302.368 889.17 302.49 889.03C302.62 888.899 302.686 888.652 302.686 888.288V881.288C302.686 880.859 302.616 880.546 302.476 880.35C302.345 880.154 302.116 880.056 301.79 880.056V879.762C302.088 879.79 302.378 879.804 302.658 879.804C303.47 879.804 304.151 879.739 304.702 879.608V880.896C304.898 880.467 305.182 880.14 305.556 879.916C305.929 879.683 306.368 879.566 306.872 879.566ZM305.584 886.818C306.181 886.818 306.61 886.524 306.872 885.936C307.133 885.339 307.264 884.471 307.264 883.332C307.264 882.193 307.156 881.381 306.942 880.896C306.736 880.411 306.438 880.168 306.046 880.168C305.728 880.168 305.444 880.275 305.192 880.49C304.949 880.705 304.786 881.003 304.702 881.386V886.44C304.926 886.692 305.22 886.818 305.584 886.818ZM313.852 879.566C314.926 879.566 315.766 879.874 316.372 880.49C316.979 881.097 317.282 882.063 317.282 883.388C317.282 884.713 316.979 885.679 316.372 886.286C315.766 886.893 314.926 887.196 313.852 887.196C312.788 887.196 311.948 886.893 311.332 886.286C310.726 885.679 310.422 884.713 310.422 883.388C310.422 882.063 310.726 881.097 311.332 880.49C311.948 879.874 312.788 879.566 313.852 879.566ZM313.852 879.846C313.451 879.846 313.129 880.14 312.886 880.728C312.653 881.307 312.536 882.193 312.536 883.388C312.536 884.583 312.653 885.469 312.886 886.048C313.129 886.627 313.451 886.916 313.852 886.916C314.263 886.916 314.585 886.631 314.818 886.062C315.052 885.483 315.168 884.592 315.168 883.388C315.168 882.184 315.047 881.293 314.804 880.714C314.571 880.135 314.254 879.846 313.852 879.846ZM323.364 879.566C324.074 879.566 324.587 879.748 324.904 880.112C325.063 880.289 325.175 880.518 325.24 880.798C325.306 881.078 325.338 881.456 325.338 881.932V885.698C325.338 886.081 325.404 886.347 325.534 886.496C325.674 886.636 325.908 886.706 326.234 886.706V887C325.301 886.963 324.685 886.944 324.386 886.944C324.106 886.944 323.5 886.963 322.566 887V886.706C322.846 886.706 323.042 886.636 323.154 886.496C323.266 886.347 323.322 886.081 323.322 885.698V881.344C323.322 880.961 323.257 880.672 323.126 880.476C323.005 880.28 322.781 880.182 322.454 880.182C322.072 880.182 321.745 880.341 321.474 880.658C321.204 880.966 321.068 881.349 321.068 881.806V885.698C321.068 886.081 321.124 886.347 321.236 886.496C321.348 886.636 321.544 886.706 321.824 886.706V887C320.966 886.963 320.387 886.944 320.088 886.944C319.808 886.944 319.164 886.963 318.156 887V886.706C318.492 886.706 318.726 886.636 318.856 886.496C318.987 886.347 319.052 886.081 319.052 885.698V881.288C319.052 880.859 318.987 880.546 318.856 880.35C318.726 880.154 318.492 880.056 318.156 880.056V879.762C318.455 879.79 318.744 879.804 319.024 879.804C319.855 879.804 320.536 879.739 321.068 879.608V880.868C321.488 880 322.254 879.566 323.364 879.566ZM323.728 875.562C323.896 875.683 323.98 875.861 323.98 876.094C323.98 876.29 323.91 876.481 323.77 876.668C323.668 876.789 323.537 876.915 323.378 877.046C323.229 877.167 323.066 877.293 322.888 877.424C322.328 877.816 321.834 878.213 321.404 878.614L321.25 878.488C321.502 878.031 321.764 877.457 322.034 876.766C322.156 876.477 322.249 876.262 322.314 876.122C322.389 875.973 322.478 875.837 322.58 875.716C322.758 875.492 322.977 875.38 323.238 875.38C323.434 875.38 323.598 875.441 323.728 875.562ZM330.396 879.566C330.741 879.566 331.068 879.603 331.376 879.678C331.684 879.753 331.941 879.855 332.146 879.986C332.389 880.135 332.575 880.327 332.706 880.56C332.846 880.784 332.916 881.031 332.916 881.302C332.916 881.629 332.813 881.899 332.608 882.114C332.403 882.319 332.137 882.422 331.81 882.422C331.483 882.422 331.222 882.329 331.026 882.142C330.83 881.955 330.732 881.703 330.732 881.386C330.732 881.106 330.821 880.863 330.998 880.658C331.175 880.453 331.395 880.313 331.656 880.238C331.581 880.135 331.465 880.056 331.306 880C331.157 879.935 330.993 879.902 330.816 879.902C330.256 879.902 329.817 880.21 329.5 880.826C329.192 881.433 329.038 882.231 329.038 883.22C329.038 884.219 329.215 884.937 329.57 885.376C329.925 885.815 330.368 886.034 330.9 886.034C331.217 886.034 331.535 885.95 331.852 885.782C332.179 885.614 332.473 885.32 332.734 884.9L332.972 884.984C332.785 885.591 332.459 886.113 331.992 886.552C331.525 886.981 330.923 887.196 330.186 887.196C329.225 887.196 328.441 886.879 327.834 886.244C327.227 885.609 326.924 884.667 326.924 883.416C326.924 882.595 327.073 881.895 327.372 881.316C327.671 880.737 328.081 880.303 328.604 880.014C329.127 879.715 329.724 879.566 330.396 879.566ZM336.081 886.79H336.809C337.407 886.79 337.911 886.594 338.321 886.202C338.732 885.801 338.975 885.161 339.049 884.284H339.343C339.343 885.609 339.362 886.533 339.399 887.056C338.643 887.019 337.747 887 336.711 887C335.797 887 334.826 887.023 333.799 887.07L337.299 879.972H336.515C335.181 879.972 334.453 880.807 334.331 882.478H334.037C334.037 881.153 334.019 880.229 333.981 879.706C334.737 879.743 335.633 879.762 336.669 879.762C337.584 879.762 338.555 879.739 339.581 879.692L336.081 886.79ZM343.944 879.566C345.017 879.566 345.857 879.874 346.464 880.49C347.071 881.097 347.374 882.063 347.374 883.388C347.374 884.713 347.071 885.679 346.464 886.286C345.857 886.893 345.017 887.196 343.944 887.196C342.88 887.196 342.04 886.893 341.424 886.286C340.817 885.679 340.514 884.713 340.514 883.388C340.514 882.063 340.817 881.097 341.424 880.49C342.04 879.874 342.88 879.566 343.944 879.566ZM343.944 879.846C343.543 879.846 343.221 880.14 342.978 880.728C342.745 881.307 342.628 882.193 342.628 883.388C342.628 884.583 342.745 885.469 342.978 886.048C343.221 886.627 343.543 886.916 343.944 886.916C344.355 886.916 344.677 886.631 344.91 886.062C345.143 885.483 345.26 884.592 345.26 883.388C345.26 882.184 345.139 881.293 344.896 880.714C344.663 880.135 344.345 879.846 343.944 879.846ZM351.02 879.566C351.375 879.566 351.701 879.613 352 879.706C352.299 879.79 352.527 879.888 352.686 880C352.779 880.065 352.863 880.098 352.938 880.098C353.022 880.098 353.092 880.056 353.148 879.972C353.213 879.879 353.255 879.748 353.274 879.58H353.568C353.531 880.056 353.512 880.877 353.512 882.044H353.218C353.134 881.428 352.947 880.915 352.658 880.504C352.378 880.084 351.967 879.874 351.426 879.874C351.146 879.874 350.913 879.953 350.726 880.112C350.549 880.271 350.46 880.49 350.46 880.77C350.46 881.087 350.567 881.363 350.782 881.596C350.997 881.82 351.333 882.095 351.79 882.422L352.196 882.716C352.765 883.145 353.185 883.528 353.456 883.864C353.727 884.2 353.862 884.62 353.862 885.124C353.862 885.535 353.741 885.899 353.498 886.216C353.265 886.533 352.947 886.776 352.546 886.944C352.145 887.112 351.701 887.196 351.216 887.196C350.703 887.196 350.264 887.098 349.9 886.902C349.601 886.753 349.387 886.655 349.256 886.608C349.163 886.58 349.079 886.613 349.004 886.706C348.939 886.79 348.887 886.921 348.85 887.098H348.556C348.593 886.566 348.612 885.633 348.612 884.298H348.906C349.093 886.015 349.723 886.874 350.796 886.874C351.067 886.874 351.295 886.795 351.482 886.636C351.678 886.468 351.776 886.216 351.776 885.88C351.776 885.619 351.715 885.385 351.594 885.18C351.482 884.975 351.337 884.793 351.16 884.634C350.983 884.475 350.717 884.256 350.362 883.976C349.942 883.64 349.62 883.369 349.396 883.164C349.181 882.959 348.995 882.716 348.836 882.436C348.687 882.156 348.612 881.843 348.612 881.498C348.612 880.901 348.845 880.429 349.312 880.084C349.779 879.739 350.348 879.566 351.02 879.566ZM357.095 886.79H357.823C358.42 886.79 358.924 886.594 359.335 886.202C359.746 885.801 359.988 885.161 360.063 884.284H360.357C360.357 885.609 360.376 886.533 360.413 887.056C359.657 887.019 358.761 887 357.725 887C356.81 887 355.84 887.023 354.813 887.07L358.313 879.972H357.529C356.194 879.972 355.466 880.807 355.345 882.478H355.051C355.051 881.153 355.032 880.229 354.995 879.706C355.751 879.743 356.647 879.762 357.683 879.762C358.598 879.762 359.568 879.739 360.595 879.692L357.095 886.79ZM368.458 885.978C368.607 886.202 368.728 886.37 368.822 886.482C368.915 886.585 369.036 886.659 369.186 886.706V887C368.439 886.963 367.949 886.944 367.716 886.944C367.408 886.944 366.806 886.963 365.91 887V886.706C366.04 886.706 366.143 886.683 366.218 886.636C366.292 886.589 366.33 886.524 366.33 886.44C366.33 886.393 366.306 886.323 366.26 886.23L364.874 883.724C364.78 883.565 364.682 883.458 364.58 883.402C364.477 883.346 364.346 883.309 364.188 883.29V885.698C364.188 886.081 364.248 886.347 364.37 886.496C364.491 886.636 364.71 886.706 365.028 886.706V887C364.094 886.963 363.488 886.944 363.208 886.944C362.89 886.944 362.246 886.963 361.276 887V886.706C361.602 886.706 361.831 886.636 361.962 886.496C362.102 886.347 362.172 886.081 362.172 885.698V877.718C362.172 877.289 362.102 876.976 361.962 876.78C361.831 876.584 361.602 876.486 361.276 876.486V876.192C361.574 876.22 361.864 876.234 362.144 876.234C362.956 876.234 363.637 876.169 364.188 876.038V883.024C364.374 883.005 364.533 882.968 364.664 882.912C364.804 882.856 364.925 882.772 365.028 882.66L366.092 881.624C366.4 881.316 366.554 881.031 366.554 880.77C366.554 880.555 366.456 880.387 366.26 880.266C366.064 880.135 365.802 880.061 365.476 880.042V879.762C365.989 879.79 366.535 879.804 367.114 879.804C367.888 879.804 368.434 879.79 368.752 879.762V880.042C368.201 880.163 367.618 880.523 367.002 881.12L366.106 882.044L368.458 885.978ZM371.355 876.15C371.747 876.15 372.055 876.248 372.279 876.444C372.513 876.631 372.629 876.892 372.629 877.228C372.629 877.564 372.513 877.83 372.279 878.026C372.055 878.213 371.747 878.306 371.355 878.306C370.963 878.306 370.651 878.213 370.417 878.026C370.193 877.83 370.081 877.564 370.081 877.228C370.081 876.892 370.193 876.631 370.417 876.444C370.651 876.248 370.963 876.15 371.355 876.15ZM372.447 885.698C372.447 886.081 372.513 886.347 372.643 886.496C372.783 886.636 373.017 886.706 373.343 886.706V887C372.41 886.963 371.789 886.944 371.481 886.944C371.192 886.944 370.543 886.963 369.535 887V886.706C369.871 886.706 370.105 886.636 370.235 886.496C370.366 886.347 370.431 886.081 370.431 885.698V881.288C370.431 880.859 370.366 880.546 370.235 880.35C370.105 880.154 369.871 880.056 369.535 880.056V879.762C369.834 879.79 370.123 879.804 370.403 879.804C371.234 879.804 371.915 879.739 372.447 879.608V885.698ZM379.039 876.15C379.431 876.15 379.739 876.248 379.963 876.444C380.196 876.631 380.313 876.892 380.313 877.228C380.313 877.564 380.196 877.83 379.963 878.026C379.739 878.213 379.431 878.306 379.039 878.306C378.647 878.306 378.334 878.213 378.101 878.026C377.877 877.83 377.765 877.564 377.765 877.228C377.765 876.892 377.877 876.631 378.101 876.444C378.334 876.248 378.647 876.15 379.039 876.15ZM380.131 885.698C380.131 886.081 380.196 886.347 380.327 886.496C380.467 886.636 380.7 886.706 381.027 886.706V887C380.093 886.963 379.473 886.944 379.165 886.944C378.875 886.944 378.227 886.963 377.219 887V886.706C377.555 886.706 377.788 886.636 377.919 886.496C378.049 886.347 378.115 886.081 378.115 885.698V881.288C378.115 880.859 378.049 880.546 377.919 880.35C377.788 880.154 377.555 880.056 377.219 880.056V879.762C377.517 879.79 377.807 879.804 378.087 879.804C378.917 879.804 379.599 879.739 380.131 879.608V885.698ZM394.124 879.804C394.6 879.804 394.955 879.79 395.188 879.762V880.042C394.992 880.098 394.815 880.215 394.656 880.392C394.497 880.569 394.357 880.854 394.236 881.246L392.374 887.028C392.271 887.019 392.117 887.014 391.912 887.014C391.716 887.014 391.567 887.019 391.464 887.028L389.56 881.834L388.006 887.028C387.913 887.019 387.763 887.014 387.558 887.014C387.353 887.014 387.199 887.019 387.096 887.028L384.884 880.84C384.772 880.513 384.646 880.303 384.506 880.21C384.366 880.107 384.221 880.056 384.072 880.056V879.762C384.679 879.818 385.341 879.846 386.06 879.846C386.527 879.846 387.133 879.818 387.88 879.762V880.056C387.572 880.056 387.348 880.079 387.208 880.126C387.077 880.173 387.012 880.285 387.012 880.462C387.012 880.583 387.035 880.709 387.082 880.84L388.342 884.802L389.868 879.748L390.386 879.762L390.89 879.748L392.71 885.096L393.592 882.282C393.723 881.843 393.788 881.489 393.788 881.218C393.788 880.49 393.419 880.098 392.682 880.042V879.762C393.121 879.79 393.601 879.804 394.124 879.804ZM397.345 876.15C397.737 876.15 398.045 876.248 398.269 876.444C398.503 876.631 398.619 876.892 398.619 877.228C398.619 877.564 398.503 877.83 398.269 878.026C398.045 878.213 397.737 878.306 397.345 878.306C396.953 878.306 396.641 878.213 396.407 878.026C396.183 877.83 396.071 877.564 396.071 877.228C396.071 876.892 396.183 876.631 396.407 876.444C396.641 876.248 396.953 876.15 397.345 876.15ZM398.437 885.698C398.437 886.081 398.503 886.347 398.633 886.496C398.773 886.636 399.007 886.706 399.333 886.706V887C398.4 886.963 397.779 886.944 397.471 886.944C397.182 886.944 396.533 886.963 395.525 887V886.706C395.861 886.706 396.095 886.636 396.225 886.496C396.356 886.347 396.421 886.081 396.421 885.698V881.288C396.421 880.859 396.356 880.546 396.225 880.35C396.095 880.154 395.861 880.056 395.525 880.056V879.762C395.824 879.79 396.113 879.804 396.393 879.804C397.224 879.804 397.905 879.739 398.437 879.608V885.698ZM404.057 886.048C404.823 886.048 405.439 885.675 405.905 884.928L406.157 885.012C405.971 885.619 405.635 886.137 405.149 886.566C404.673 886.986 404.076 887.196 403.357 887.196C402.368 887.196 401.579 886.883 400.991 886.258C400.413 885.623 400.123 884.69 400.123 883.458C400.123 882.198 400.436 881.237 401.061 880.574C401.687 879.902 402.517 879.566 403.553 879.566C405.308 879.566 406.185 880.602 406.185 882.674H402.251C402.242 882.814 402.237 883.033 402.237 883.332C402.237 883.948 402.321 884.461 402.489 884.872C402.667 885.283 402.891 885.581 403.161 885.768C403.441 885.955 403.74 886.048 404.057 886.048ZM403.469 879.86C403.133 879.86 402.853 880.07 402.629 880.49C402.415 880.901 402.279 881.54 402.223 882.408H404.421C404.44 881.671 404.365 881.064 404.197 880.588C404.039 880.103 403.796 879.86 403.469 879.86ZM409.852 885.698C409.852 886.081 409.917 886.347 410.048 886.496C410.179 886.636 410.412 886.706 410.748 886.706V887C409.777 886.963 409.152 886.944 408.872 886.944C408.555 886.944 407.911 886.963 406.94 887V886.706C407.267 886.706 407.495 886.636 407.626 886.496C407.766 886.347 407.836 886.081 407.836 885.698V877.718C407.836 877.289 407.766 876.976 407.626 876.78C407.495 876.584 407.267 876.486 406.94 876.486V876.192C407.239 876.22 407.528 876.234 407.808 876.234C408.62 876.234 409.301 876.169 409.852 876.038V885.698ZM415.323 886.048C416.088 886.048 416.704 885.675 417.171 884.928L417.423 885.012C417.236 885.619 416.9 886.137 416.415 886.566C415.939 886.986 415.342 887.196 414.623 887.196C413.634 887.196 412.845 886.883 412.257 886.258C411.678 885.623 411.389 884.69 411.389 883.458C411.389 882.198 411.702 881.237 412.327 880.574C412.952 879.902 413.783 879.566 414.819 879.566C416.574 879.566 417.451 880.602 417.451 882.674H413.517C413.508 882.814 413.503 883.033 413.503 883.332C413.503 883.948 413.587 884.461 413.755 884.872C413.932 885.283 414.156 885.581 414.427 885.768C414.707 885.955 415.006 886.048 415.323 886.048ZM414.735 879.86C414.399 879.86 414.119 880.07 413.895 880.49C413.68 880.901 413.545 881.54 413.489 882.408H415.687C415.706 881.671 415.631 881.064 415.463 880.588C415.304 880.103 415.062 879.86 414.735 879.86ZM423.349 876.15C423.741 876.15 424.049 876.248 424.273 876.444C424.507 876.631 424.623 876.892 424.623 877.228C424.623 877.564 424.507 877.83 424.273 878.026C424.049 878.213 423.741 878.306 423.349 878.306C422.957 878.306 422.645 878.213 422.411 878.026C422.187 877.83 422.075 877.564 422.075 877.228C422.075 876.892 422.187 876.631 422.411 876.444C422.645 876.248 422.957 876.15 423.349 876.15ZM424.441 885.698C424.441 886.081 424.507 886.347 424.637 886.496C424.777 886.636 425.011 886.706 425.337 886.706V887C424.404 886.963 423.783 886.944 423.475 886.944C423.186 886.944 422.537 886.963 421.529 887V886.706C421.865 886.706 422.099 886.636 422.229 886.496C422.36 886.347 422.425 886.081 422.425 885.698V881.288C422.425 880.859 422.36 880.546 422.229 880.35C422.099 880.154 421.865 880.056 421.529 880.056V879.762C421.828 879.79 422.117 879.804 422.397 879.804C423.228 879.804 423.909 879.739 424.441 879.608V885.698ZM431.153 879.566C431.863 879.566 432.376 879.748 432.693 880.112C432.852 880.289 432.964 880.518 433.029 880.798C433.095 881.078 433.127 881.456 433.127 881.932V885.698C433.127 886.081 433.193 886.347 433.323 886.496C433.463 886.636 433.697 886.706 434.023 886.706V887C433.09 886.963 432.474 886.944 432.175 886.944C431.895 886.944 431.289 886.963 430.355 887V886.706C430.635 886.706 430.831 886.636 430.943 886.496C431.055 886.347 431.111 886.081 431.111 885.698V881.344C431.111 880.961 431.046 880.672 430.915 880.476C430.794 880.28 430.57 880.182 430.243 880.182C429.861 880.182 429.534 880.341 429.263 880.658C428.993 880.966 428.857 881.349 428.857 881.806V885.698C428.857 886.081 428.913 886.347 429.025 886.496C429.137 886.636 429.333 886.706 429.613 886.706V887C428.755 886.963 428.176 886.944 427.877 886.944C427.597 886.944 426.953 886.963 425.945 887V886.706C426.281 886.706 426.515 886.636 426.645 886.496C426.776 886.347 426.841 886.081 426.841 885.698V881.288C426.841 880.859 426.776 880.546 426.645 880.35C426.515 880.154 426.281 880.056 425.945 880.056V879.762C426.244 879.79 426.533 879.804 426.813 879.804C427.644 879.804 428.325 879.739 428.857 879.608V880.868C429.277 880 430.043 879.566 431.153 879.566ZM439.753 879.566C440.462 879.566 440.976 879.748 441.293 880.112C441.452 880.289 441.564 880.518 441.629 880.798C441.694 881.078 441.727 881.456 441.727 881.932V885.698C441.727 886.081 441.792 886.347 441.923 886.496C442.063 886.636 442.296 886.706 442.623 886.706V887C441.69 886.963 441.074 886.944 440.775 886.944C440.495 886.944 439.888 886.963 438.955 887V886.706C439.235 886.706 439.431 886.636 439.543 886.496C439.655 886.347 439.711 886.081 439.711 885.698V881.344C439.711 880.961 439.646 880.672 439.515 880.476C439.394 880.28 439.17 880.182 438.843 880.182C438.46 880.182 438.134 880.341 437.863 880.658C437.592 880.966 437.457 881.349 437.457 881.806V885.698C437.457 886.081 437.513 886.347 437.625 886.496C437.737 886.636 437.933 886.706 438.213 886.706V887C437.354 886.963 436.776 886.944 436.477 886.944C436.197 886.944 435.553 886.963 434.545 887V886.706C434.881 886.706 435.114 886.636 435.245 886.496C435.376 886.347 435.441 886.081 435.441 885.698V881.288C435.441 880.859 435.376 880.546 435.245 880.35C435.114 880.154 434.881 880.056 434.545 880.056V879.762C434.844 879.79 435.133 879.804 435.413 879.804C436.244 879.804 436.925 879.739 437.457 879.608V880.868C437.877 880 438.642 879.566 439.753 879.566ZM448.762 879.804C449.229 879.804 449.588 879.79 449.84 879.762V880.042C449.644 880.098 449.467 880.219 449.308 880.406C449.159 880.583 449.014 880.863 448.874 881.246L446.368 888.288C446.182 888.773 445.976 889.105 445.752 889.282C445.482 889.515 445.076 889.632 444.534 889.632C444.142 889.632 443.788 889.534 443.47 889.338C443.162 889.151 443.008 888.876 443.008 888.512C443.008 888.223 443.111 887.989 443.316 887.812C443.522 887.644 443.792 887.56 444.128 887.56C444.446 887.56 444.698 887.635 444.884 887.784C445.08 887.943 445.178 888.162 445.178 888.442C445.178 888.638 445.118 888.815 444.996 888.974C444.875 889.142 444.702 889.268 444.478 889.352C444.544 889.361 444.651 889.366 444.8 889.366C445.379 889.366 445.804 888.997 446.074 888.26L446.298 887.588L443.33 880.84C443.181 880.523 443.036 880.313 442.896 880.21C442.756 880.107 442.612 880.056 442.462 880.056V879.762C443.078 879.818 443.718 879.846 444.38 879.846C444.931 879.846 445.58 879.818 446.326 879.762V880.056C446.028 880.056 445.804 880.079 445.654 880.126C445.514 880.163 445.444 880.271 445.444 880.448C445.444 880.551 445.477 880.681 445.542 880.84L447.25 884.97L448.216 882.282C448.366 881.843 448.44 881.47 448.44 881.162C448.44 880.481 448.095 880.107 447.404 880.042V879.762C447.843 879.79 448.296 879.804 448.762 879.804ZM453.689 879.566C454.034 879.566 454.361 879.603 454.669 879.678C454.977 879.753 455.234 879.855 455.439 879.986C455.682 880.135 455.868 880.327 455.999 880.56C456.139 880.784 456.209 881.031 456.209 881.302C456.209 881.629 456.106 881.899 455.901 882.114C455.696 882.319 455.43 882.422 455.103 882.422C454.776 882.422 454.515 882.329 454.319 882.142C454.123 881.955 454.025 881.703 454.025 881.386C454.025 881.106 454.114 880.863 454.291 880.658C454.468 880.453 454.688 880.313 454.949 880.238C454.874 880.135 454.758 880.056 454.599 880C454.45 879.935 454.286 879.902 454.109 879.902C453.549 879.902 453.11 880.21 452.793 880.826C452.485 881.433 452.331 882.231 452.331 883.22C452.331 884.219 452.508 884.937 452.863 885.376C453.218 885.815 453.661 886.034 454.193 886.034C454.51 886.034 454.828 885.95 455.145 885.782C455.472 885.614 455.766 885.32 456.027 884.9L456.265 884.984C456.078 885.591 455.752 886.113 455.285 886.552C454.818 886.981 454.216 887.196 453.479 887.196C452.518 887.196 451.734 886.879 451.127 886.244C450.52 885.609 450.217 884.667 450.217 883.416C450.217 882.595 450.366 881.895 450.665 881.316C450.964 880.737 451.374 880.303 451.897 880.014C452.42 879.715 453.017 879.566 453.689 879.566ZM459.836 880.868C460.256 880 461.017 879.566 462.118 879.566C462.846 879.566 463.36 879.748 463.658 880.112C463.817 880.289 463.929 880.523 463.994 880.812C464.069 881.092 464.106 881.465 464.106 881.932V885.698C464.106 886.081 464.172 886.347 464.302 886.496C464.433 886.636 464.666 886.706 465.002 886.706V887C464.032 886.963 463.416 886.944 463.154 886.944C462.837 886.944 462.23 886.963 461.334 887V886.706C461.614 886.706 461.81 886.636 461.922 886.496C462.034 886.347 462.09 886.081 462.09 885.698V881.344C462.09 880.961 462.025 880.672 461.894 880.476C461.773 880.28 461.549 880.182 461.222 880.182C460.83 880.182 460.499 880.336 460.228 880.644C459.967 880.943 459.836 881.325 459.836 881.792V885.698C459.836 886.081 459.892 886.347 460.004 886.496C460.116 886.636 460.312 886.706 460.592 886.706V887C459.696 886.963 459.118 886.944 458.856 886.944C458.539 886.944 457.895 886.963 456.924 887V886.706C457.251 886.706 457.48 886.636 457.61 886.496C457.75 886.347 457.82 886.081 457.82 885.698V877.732C457.82 877.303 457.75 876.99 457.61 876.794C457.48 876.598 457.251 876.5 456.924 876.5V876.206C457.223 876.234 457.512 876.248 457.792 876.248C458.604 876.248 459.286 876.183 459.836 876.052V880.868ZM467.066 885.04C467.43 885.04 467.719 885.138 467.934 885.334C468.148 885.521 468.256 885.782 468.256 886.118C468.256 886.454 468.148 886.72 467.934 886.916C467.719 887.103 467.43 887.196 467.066 887.196C466.702 887.196 466.412 887.103 466.198 886.916C465.983 886.72 465.876 886.454 465.876 886.118C465.876 885.782 465.983 885.521 466.198 885.334C466.412 885.138 466.702 885.04 467.066 885.04Z" fill="#E7E7E7"/>
<path d="M112.927 879.566C113.636 879.566 114.149 879.748 114.467 880.112C114.625 880.289 114.737 880.518 114.803 880.798C114.868 881.078 114.901 881.456 114.901 881.932V885.698C114.901 886.081 114.966 886.347 115.097 886.496C115.237 886.636 115.47 886.706 115.797 886.706V887C114.863 886.963 114.247 886.944 113.949 886.944C113.669 886.944 113.062 886.963 112.129 887V886.706C112.409 886.706 112.605 886.636 112.717 886.496C112.829 886.347 112.885 886.081 112.885 885.698V881.344C112.885 880.961 112.819 880.672 112.689 880.476C112.567 880.28 112.343 880.182 112.017 880.182C111.634 880.182 111.307 880.341 111.037 880.658C110.766 880.966 110.631 881.349 110.631 881.806V885.698C110.631 886.081 110.687 886.347 110.799 886.496C110.911 886.636 111.107 886.706 111.387 886.706V887C110.528 886.963 109.949 886.944 109.651 886.944C109.371 886.944 108.727 886.963 107.719 887V886.706C108.055 886.706 108.288 886.636 108.419 886.496C108.549 886.347 108.615 886.081 108.615 885.698V881.288C108.615 880.859 108.549 880.546 108.419 880.35C108.288 880.154 108.055 880.056 107.719 880.056V879.762C108.017 879.79 108.307 879.804 108.587 879.804C109.417 879.804 110.099 879.739 110.631 879.608V880.868C111.051 880 111.816 879.566 112.927 879.566ZM119.93 879.566C121.004 879.566 121.844 879.874 122.45 880.49C123.057 881.097 123.36 882.063 123.36 883.388C123.36 884.713 123.057 885.679 122.45 886.286C121.844 886.893 121.004 887.196 119.93 887.196C118.866 887.196 118.026 886.893 117.41 886.286C116.804 885.679 116.5 884.713 116.5 883.388C116.5 882.063 116.804 881.097 117.41 880.49C118.026 879.874 118.866 879.566 119.93 879.566ZM119.93 879.846C119.529 879.846 119.207 880.14 118.964 880.728C118.731 881.307 118.614 882.193 118.614 883.388C118.614 884.583 118.731 885.469 118.964 886.048C119.207 886.627 119.529 886.916 119.93 886.916C120.341 886.916 120.663 886.631 120.896 886.062C121.13 885.483 121.246 884.592 121.246 883.388C121.246 882.184 121.125 881.293 120.882 880.714C120.649 880.135 120.332 879.846 119.93 879.846ZM127.006 879.566C127.361 879.566 127.688 879.613 127.986 879.706C128.285 879.79 128.514 879.888 128.672 880C128.766 880.065 128.85 880.098 128.924 880.098C129.008 880.098 129.078 880.056 129.134 879.972C129.2 879.879 129.242 879.748 129.26 879.58H129.554C129.517 880.056 129.498 880.877 129.498 882.044H129.204C129.12 881.428 128.934 880.915 128.644 880.504C128.364 880.084 127.954 879.874 127.412 879.874C127.132 879.874 126.899 879.953 126.712 880.112C126.535 880.271 126.446 880.49 126.446 880.77C126.446 881.087 126.554 881.363 126.768 881.596C126.983 881.82 127.319 882.095 127.776 882.422L128.182 882.716C128.752 883.145 129.172 883.528 129.442 883.864C129.713 884.2 129.848 884.62 129.848 885.124C129.848 885.535 129.727 885.899 129.484 886.216C129.251 886.533 128.934 886.776 128.532 886.944C128.131 887.112 127.688 887.196 127.202 887.196C126.689 887.196 126.25 887.098 125.886 886.902C125.588 886.753 125.373 886.655 125.242 886.608C125.149 886.58 125.065 886.613 124.99 886.706C124.925 886.79 124.874 886.921 124.836 887.098H124.542C124.58 886.566 124.598 885.633 124.598 884.298H124.892C125.079 886.015 125.709 886.874 126.782 886.874C127.053 886.874 127.282 886.795 127.468 886.636C127.664 886.468 127.762 886.216 127.762 885.88C127.762 885.619 127.702 885.385 127.58 885.18C127.468 884.975 127.324 884.793 127.146 884.634C126.969 884.475 126.703 884.256 126.348 883.976C125.928 883.64 125.606 883.369 125.382 883.164C125.168 882.959 124.981 882.716 124.822 882.436C124.673 882.156 124.598 881.843 124.598 881.498C124.598 880.901 124.832 880.429 125.298 880.084C125.765 879.739 126.334 879.566 127.006 879.566ZM133.081 886.79H133.809C134.407 886.79 134.911 886.594 135.321 886.202C135.732 885.801 135.975 885.161 136.049 884.284H136.343C136.343 885.609 136.362 886.533 136.399 887.056C135.643 887.019 134.747 887 133.711 887C132.797 887 131.826 887.023 130.799 887.07L134.299 879.972H133.515C132.181 879.972 131.453 880.807 131.331 882.478H131.037C131.037 881.153 131.019 880.229 130.981 879.706C131.737 879.743 132.633 879.762 133.669 879.762C134.584 879.762 135.555 879.739 136.581 879.692L133.081 886.79ZM140.944 879.566C142.017 879.566 142.857 879.874 143.464 880.49C144.071 881.097 144.374 882.063 144.374 883.388C144.374 884.713 144.071 885.679 143.464 886.286C142.857 886.893 142.017 887.196 140.944 887.196C139.88 887.196 139.04 886.893 138.424 886.286C137.817 885.679 137.514 884.713 137.514 883.388C137.514 882.063 137.817 881.097 138.424 880.49C139.04 879.874 139.88 879.566 140.944 879.566ZM140.944 879.846C140.543 879.846 140.221 880.14 139.978 880.728C139.745 881.307 139.628 882.193 139.628 883.388C139.628 884.583 139.745 885.469 139.978 886.048C140.221 886.627 140.543 886.916 140.944 886.916C141.355 886.916 141.677 886.631 141.91 886.062C142.143 885.483 142.26 884.592 142.26 883.388C142.26 882.184 142.139 881.293 141.896 880.714C141.663 880.135 141.345 879.846 140.944 879.846ZM150.456 879.566C151.165 879.566 151.679 879.748 151.996 880.112C152.155 880.289 152.267 880.518 152.332 880.798C152.397 881.078 152.43 881.456 152.43 881.932V885.698C152.43 886.081 152.495 886.347 152.626 886.496C152.766 886.636 152.999 886.706 153.326 886.706V887C152.393 886.963 151.777 886.944 151.478 886.944C151.198 886.944 150.591 886.963 149.658 887V886.706C149.938 886.706 150.134 886.636 150.246 886.496C150.358 886.347 150.414 886.081 150.414 885.698V881.344C150.414 880.961 150.349 880.672 150.218 880.476C150.097 880.28 149.873 880.182 149.546 880.182C149.163 880.182 148.837 880.341 148.566 880.658C148.295 880.966 148.16 881.349 148.16 881.806V885.698C148.16 886.081 148.216 886.347 148.328 886.496C148.44 886.636 148.636 886.706 148.916 886.706V887C148.057 886.963 147.479 886.944 147.18 886.944C146.9 886.944 146.256 886.963 145.248 887V886.706C145.584 886.706 145.817 886.636 145.948 886.496C146.079 886.347 146.144 886.081 146.144 885.698V881.288C146.144 880.859 146.079 880.546 145.948 880.35C145.817 880.154 145.584 880.056 145.248 880.056V879.762C145.547 879.79 145.836 879.804 146.116 879.804C146.947 879.804 147.628 879.739 148.16 879.608V880.868C148.58 880 149.345 879.566 150.456 879.566ZM157.964 886.048C158.729 886.048 159.345 885.675 159.812 884.928L160.064 885.012C159.877 885.619 159.541 886.137 159.056 886.566C158.58 886.986 157.982 887.196 157.264 887.196C156.274 887.196 155.486 886.883 154.898 886.258C154.319 885.623 154.03 884.69 154.03 883.458C154.03 882.198 154.342 881.237 154.968 880.574C155.593 879.902 156.424 879.566 157.46 879.566C159.214 879.566 160.092 880.602 160.092 882.674H156.158C156.148 882.814 156.144 883.033 156.144 883.332C156.144 883.948 156.228 884.461 156.396 884.872C156.573 885.283 156.797 885.581 157.068 885.768C157.348 885.955 157.646 886.048 157.964 886.048ZM157.376 879.86C157.04 879.86 156.76 880.07 156.536 880.49C156.321 880.901 156.186 881.54 156.13 882.408H158.328C158.346 881.671 158.272 881.064 158.104 880.588C157.945 880.103 157.702 879.86 157.376 879.86Z" fill="#B80202"/>
</svg>
