<svg width="16" height="66" viewBox="0 0 16 66" fill="none" xmlns="http://www.w3.org/2000/svg">
<g clip-path="url(#clip0)">
<path fill-rule="evenodd" clip-rule="evenodd" d="M3.5 60.0285C3.50297 61.2059 3.84428 62.3559 4.48081 63.3334C5.11734 64.3108 6.02053 65.0717 7.07625 65.52C8.13197 65.9682 9.29285 66.0837 10.4122 65.8519C11.5316 65.62 12.5591 65.0512 13.3651 64.2174C14.1711 63.3835 14.7194 62.3219 14.9406 61.1668C15.1618 60.0118 15.046 58.815 14.6079 57.7277C14.1698 56.6405 13.429 55.7115 12.4791 55.0583C11.5293 54.4051 10.413 54.0568 9.27125 54.0576C7.73829 54.0606 6.26924 54.6913 5.18703 55.811C4.10482 56.9306 3.49801 58.4476 3.5 60.0285V60.0285ZM14.4463 60.0285C14.4438 61.0828 14.1384 62.1128 13.5686 62.9882C12.9989 63.8636 12.1903 64.5453 11.2451 64.9472C10.2999 65.349 9.2604 65.4529 8.25793 65.2459C7.25545 65.0388 6.33497 64.53 5.61273 63.7838C4.89049 63.0375 4.3989 62.0873 4.20005 61.0531C4.0012 60.0189 4.104 58.9471 4.49548 57.9731C4.88695 56.9992 5.54954 56.1667 6.39955 55.5808C7.24956 54.9949 8.24887 54.682 9.27125 54.6815C10.6446 54.6835 11.961 55.2479 12.931 56.2506C13.9009 57.2533 14.4451 58.6122 14.4438 60.0285H14.4463Z" fill="#313131"/>
<path d="M13.5374 52.6143V51.8524H9.08242C7.48242 51.8524 6.33242 50.6536 6.33242 49.0964C6.33242 47.4928 7.37367 46.5737 8.95742 46.5737H13.5324V45.8106H8.82617C6.98367 45.8106 5.65492 46.9785 5.65492 48.9868C5.65492 50.4345 6.36492 51.3226 7.27117 51.8524H5.83617V52.6143H13.5374ZM2.51367 42.9618V42.1986H13.5374V42.9618H2.51367ZM15.9999 38.2283C15.9999 37.0914 15.4249 36.2818 13.8099 35.5819L5.83617 32.1401V32.9818L12.7224 35.8461L5.83617 39.1474V40.0343L13.4924 36.2225C14.8362 36.8142 15.3049 37.3595 15.3049 38.1845C15.3221 38.6535 15.2232 39.1193 15.0174 39.538L15.6674 39.8036C15.893 39.3114 16.0067 38.7726 15.9999 38.2283V38.2283Z" fill="#313131"/>
<path d="M5.34381 23.7535C5.01464 23.531 4.67089 23.3058 4.31256 23.0781C3.95381 22.8499 3.61006 22.6437 3.28131 22.4555C2.95256 22.2673 2.65631 22.1151 2.39381 21.9953C2.20173 21.8944 1.9924 21.8331 1.77756 21.8148C1.47644 21.805 1.1819 21.907 0.947561 22.1023C0.711466 22.3085 0.523114 22.5666 0.396311 22.8576C0.24601 23.1971 0.143314 23.5569 0.0913109 23.9263C0.0301723 24.3379 -0.000333449 24.7538 6.09156e-05 25.1702C-0.010634 26.5711 0.134905 27.9686 0.433811 29.3352C0.696768 30.5294 1.07014 31.6949 1.54881 32.8156C1.96074 33.7836 2.46311 34.708 3.04881 35.5755C3.52881 36.2863 4.05989 36.959 4.63756 37.5877C5.05121 38.048 5.51227 38.4603 6.01256 38.8175C6.42423 39.0942 6.72048 39.2326 6.90131 39.2326C7.11849 39.2383 7.33105 39.1673 7.50381 39.0315C7.65972 38.9137 7.79001 38.7635 7.88631 38.5906C7.96658 38.459 8.00543 38.305 7.99756 38.1498C7.98381 38.0209 7.91756 37.9487 7.79631 37.9487C7.56256 37.9487 7.22381 37.7979 6.77756 37.4949C6.24902 37.1189 5.7601 36.6869 5.31881 36.2059C4.73297 35.5753 4.19356 34.9005 3.70506 34.1872C2.50483 32.4433 1.6237 30.4879 1.10506 28.4174C0.819838 27.2694 0.679512 26.0884 0.687561 24.9034C0.67649 24.6042 0.716256 24.3054 0.805061 24.0204C0.861819 23.8395 0.962006 23.6763 1.09631 23.546C1.20419 23.4478 1.33678 23.383 1.47881 23.3591C1.60731 23.3372 1.73732 23.326 1.86756 23.3256C2.10424 23.3418 2.33562 23.4052 2.54881 23.5125C2.86491 23.6561 3.17253 23.8188 3.47006 23.9997C3.80339 24.2008 4.14673 24.4239 4.50006 24.6688C4.85339 24.9137 5.18673 25.1556 5.50006 25.3945C5.61113 26.3512 5.78655 27.2988 6.02506 28.2305C6.20873 28.9612 6.46292 29.6712 6.78381 30.3497C7.00994 30.8455 7.31976 31.296 7.69881 31.68C8.02298 31.9876 8.35339 32.1415 8.69006 32.1415C8.87731 32.1461 9.06265 32.1017 9.22881 32.0126C9.35842 31.9471 9.47141 31.8513 9.55881 31.7328C9.5899 31.6941 9.61293 31.6491 9.62648 31.6008C9.64002 31.5524 9.64379 31.5017 9.63756 31.4518C9.62006 31.3659 9.54631 31.3229 9.41631 31.3229C9.29131 31.3229 9.10381 31.2095 8.86506 30.9826C8.57058 30.6838 8.30976 30.3517 8.08756 29.9926C7.76639 29.4839 7.48629 28.9489 7.25006 28.3929C6.94498 27.6801 6.6995 26.9418 6.51631 26.186C7.19131 26.7214 7.85506 27.2585 8.50756 27.7973C9.16006 28.3362 9.79339 28.8221 10.4076 29.2553C10.9646 29.6533 11.5519 30.0042 12.1638 30.3046C12.6461 30.5526 13.1751 30.6894 13.7138 30.7055C13.9289 30.7071 14.1429 30.6754 14.3488 30.6113C14.533 30.5567 14.7079 30.4732 14.8676 30.3638C15.0059 30.2709 15.1249 30.1504 15.2176 30.0094C15.2992 29.8878 15.3428 29.7434 15.3426 29.5956C15.3442 29.5564 15.3382 29.5172 15.3249 29.4805C15.3116 29.4437 15.2912 29.4101 15.2651 29.3816C15.2113 29.3275 15.1436 29.2903 15.0701 29.2746C14.9849 29.256 14.8983 29.2447 14.8113 29.2411H14.5388C14.0721 29.2411 13.5188 29.0872 12.8788 28.7796C12.1666 28.4312 11.4757 28.0382 10.8101 27.6027C10.0717 27.1266 9.30464 26.5985 8.50881 26.0184C7.71298 25.4383 6.92631 24.8724 6.14881 24.3207C6.01416 23.3914 5.94897 22.4528 5.95381 21.5132C5.94924 21.3168 5.97326 21.1208 6.02506 20.9318C6.06327 20.8003 6.10876 20.6712 6.16131 20.5451C6.19338 20.4788 6.21973 20.4098 6.24006 20.3388C6.24756 20.2976 6.21381 20.2782 6.13631 20.2782C5.91078 20.2823 5.69598 20.3782 5.53881 20.5451C5.35798 20.7238 5.26714 20.9958 5.26631 21.361C5.26631 22.2075 5.29256 23.0055 5.34506 23.7548L5.34381 23.7535Z" fill="#00AFF0"/>
<path d="M8.00896 14.5485C8.31563 14.7848 8.65479 15.0499 9.02646 15.3438C9.39813 15.6378 9.77646 15.9497 10.1615 16.2797C10.5465 16.6097 10.8965 16.9281 11.2115 17.2349C11.4872 17.4991 11.7469 17.7807 11.989 18.0779C12.1931 18.3358 12.2948 18.5386 12.294 18.6864C12.294 18.8913 12.199 18.9842 12.009 18.9674C11.7599 18.9281 11.5203 18.8406 11.3027 18.7096C11.0177 18.5601 10.7085 18.3719 10.3752 18.145C10.0377 17.9168 9.72521 17.6951 9.43521 17.476C9.14521 17.2568 8.89896 17.0712 8.69521 16.9152C8.59075 16.8223 8.47523 16.7434 8.35146 16.6806C8.31771 16.6806 8.28021 16.7077 8.24146 16.7605C8.19725 16.824 8.15836 16.8913 8.12521 16.9616C8.08646 17.0415 8.05021 17.1266 8.01521 17.2194C7.98192 17.3028 7.95599 17.3891 7.93771 17.4772C7.70993 17.3857 7.46837 17.336 7.22396 17.3303C7.01349 17.3282 6.80358 17.3529 6.59896 17.4038C6.42121 17.4465 6.25368 17.5258 6.10646 17.6371C5.96562 17.7473 5.85387 17.8923 5.78146 18.0586C5.6985 18.2624 5.65886 18.4822 5.66521 18.7031C5.66384 19.204 5.76079 19.6999 5.95021 20.1611C6.14389 20.6294 6.39921 21.0679 6.70896 21.4643C7.02914 21.8742 7.39216 22.2464 7.79146 22.5742C8.18021 22.8951 8.5946 23.1814 9.03021 23.4301C9.42521 23.6546 9.84104 23.8377 10.2715 23.9767C10.6231 24.0962 10.99 24.1614 11.3602 24.1701C11.6884 24.1801 12.015 24.1209 12.3202 23.996C12.5574 23.8952 12.7706 23.7426 12.9452 23.5487C13.0988 23.3771 13.2159 23.1742 13.289 22.9532C13.355 22.7601 13.3901 22.5572 13.3927 22.3525C13.3924 22.0907 13.3229 21.834 13.1915 21.61C13.0685 21.385 12.9204 21.1756 12.7502 20.9861C12.5515 20.7731 12.3296 20.5845 12.089 20.424C12.3099 20.4527 12.534 20.4391 12.7502 20.3841C12.9208 20.3361 13.0754 20.2412 13.1977 20.1095C13.3327 19.9716 13.399 19.7511 13.399 19.4482C13.399 19.2162 13.2823 18.9356 13.049 18.6065C12.7783 18.2322 12.479 17.8809 12.154 17.5559C11.7915 17.1855 11.3831 16.8048 10.929 16.4138C10.4748 16.0228 10.0294 15.6528 9.59271 15.3039C9.15688 14.9558 8.74854 14.6392 8.36771 14.3538C7.98688 14.0685 7.68854 13.846 7.47271 13.6861C7.45176 13.6695 7.42781 13.6575 7.40226 13.6506C7.37671 13.6437 7.35008 13.6422 7.32396 13.6461C7.30301 13.6489 7.28308 13.6571 7.26603 13.6699C7.24898 13.6828 7.23537 13.6999 7.22646 13.7196C7.2085 13.7663 7.20416 13.8174 7.21396 13.8666C7.21991 13.8982 7.23222 13.9282 7.25009 13.9546C7.26796 13.981 7.29099 14.0033 7.31771 14.02C7.47104 14.136 7.70146 14.3122 8.00896 14.5485V14.5485ZM12.2877 22.7766C11.9061 22.846 11.5143 22.828 11.1402 22.7237C10.6264 22.5968 10.1266 22.4153 9.64896 22.1823C9.12225 21.9328 8.62242 21.6269 8.15771 21.2697C7.72113 20.9402 7.33441 20.5458 7.01021 20.0992C6.72165 19.7264 6.55962 19.2664 6.54896 18.7895C6.54311 18.7103 6.55746 18.631 6.59057 18.5593C6.62368 18.4876 6.67441 18.4261 6.73771 18.3809C6.8841 18.2898 7.05315 18.245 7.22396 18.252C7.50416 18.2506 7.78103 18.3145 8.03396 18.4389C8.2723 18.5536 8.50028 18.6899 8.71521 18.8462C8.88552 18.9694 9.04794 19.1037 9.20146 19.2484C9.26389 19.3189 9.33588 19.3797 9.41521 19.4289C9.46749 19.4089 9.51579 19.3792 9.55771 19.3412C9.63887 19.2811 9.71689 19.2165 9.79146 19.1479C10.1248 19.3876 10.4685 19.6394 10.8227 19.9033C11.1541 20.1502 11.4721 20.4157 11.7752 20.6986C12.0347 20.9359 12.2697 21.2003 12.4765 21.4875C12.64 21.6967 12.735 21.9539 12.7477 22.2223C12.7502 22.5226 12.5952 22.7057 12.2877 22.7766V22.7766Z" fill="#00AFF0"/>
<path d="M13.0461 10.7714C12.7781 10.3909 12.4787 10.0351 12.1511 9.70792C11.7886 9.33753 11.3803 8.96113 10.9261 8.5787C10.472 8.19628 10.0266 7.83534 9.58988 7.49589C9.15405 7.1573 8.74572 6.84964 8.36488 6.57292C7.98405 6.2962 7.68572 6.07792 7.46988 5.91808C7.44894 5.9015 7.42498 5.88943 7.39943 5.88256C7.37388 5.8757 7.34726 5.87419 7.32113 5.87812C7.30019 5.88088 7.28026 5.88906 7.26321 5.90191C7.24616 5.91475 7.23254 5.93185 7.22363 5.9516C7.20568 5.99828 7.20133 6.04935 7.21113 6.09855C7.21709 6.13017 7.22939 6.16015 7.24726 6.18657C7.26513 6.21299 7.28816 6.23526 7.31488 6.25195C7.46988 6.36796 7.70113 6.54413 8.00863 6.78046C8.31613 7.01679 8.6553 7.28191 9.02613 7.57581C9.3978 7.86972 9.77613 8.18167 10.1611 8.51167C10.5461 8.84167 10.8961 9.1605 11.2111 9.46816C11.4872 9.73248 11.7469 10.0145 11.9886 10.3125C12.1928 10.5703 12.2945 10.7731 12.2936 10.9209C12.2936 11.0988 12.2374 11.1968 12.1249 11.2148C11.9644 11.2213 11.8052 11.182 11.6649 11.1014C11.4268 10.9807 11.199 10.8397 10.9836 10.6799C10.7245 10.4925 10.4482 10.2897 10.1549 10.0714C9.85988 9.85359 9.55613 9.63058 9.23988 9.40371C8.92363 9.17683 8.61488 8.96929 8.31238 8.78109C8.03177 8.6063 7.73935 8.4525 7.43738 8.32089C7.20526 8.21056 6.95409 8.1492 6.69863 8.14042C6.42969 8.12341 6.1623 8.19325 5.93363 8.34023C5.75197 8.47429 5.66113 8.69257 5.66113 8.99507C5.66992 9.31716 5.7558 9.63202 5.91113 9.9116C6.09274 10.2564 6.30802 10.5812 6.55363 10.881C6.81416 11.2032 7.09122 11.5109 7.38363 11.8027C7.6778 12.0974 7.95447 12.3604 8.21363 12.5916C8.4728 12.8227 8.68655 13.0122 8.85488 13.16C8.94855 13.2307 9.03263 13.3139 9.10488 13.4075C9.10488 13.4346 9.00988 13.3959 8.81863 13.2941C8.62738 13.1923 8.40238 13.0711 8.13863 12.9332C7.87488 12.7952 7.59863 12.6676 7.30863 12.5464C7.07097 12.4419 6.81681 12.3829 6.55863 12.3724C6.37456 12.3656 6.19519 12.4332 6.05863 12.5606C5.93573 12.6749 5.83627 12.8134 5.76613 12.968C5.70699 13.0935 5.67177 13.2296 5.66238 13.3689C5.66238 13.4887 5.67363 13.5493 5.70863 13.5493C6.09109 13.5722 6.46654 13.6652 6.81738 13.8239C7.31663 14.0278 7.80558 14.2576 8.28238 14.5123C8.80488 14.7881 9.33447 15.0868 9.87113 15.4082C10.4078 15.7296 10.8978 16.0291 11.3411 16.3066C11.7778 16.5825 12.1365 16.812 12.4174 16.995C12.5616 17.1016 12.7147 17.1948 12.8749 17.2734C12.9209 17.2654 12.964 17.2449 12.9999 17.2141C13.0664 17.1631 13.1254 17.1023 13.1749 17.0337C13.2383 16.9474 13.2904 16.853 13.3299 16.7527C13.374 16.6423 13.3961 16.524 13.3949 16.4046C13.3949 16.3337 13.2974 16.2061 13.1036 16.0179C12.9099 15.8297 12.6511 15.6118 12.3311 15.3489C12.0111 15.0859 11.6461 14.792 11.2361 14.4671C10.8261 14.1423 10.4061 13.8071 9.97738 13.4643C9.54863 13.1214 9.13113 12.7733 8.71988 12.4214C8.30863 12.0695 7.94488 11.7318 7.62488 11.4121C7.34591 11.1385 7.08766 10.8433 6.85238 10.5291C6.65905 10.2627 6.56197 10.0396 6.56113 9.86003C6.56113 9.63831 6.64988 9.55581 6.82738 9.61382C7.07861 9.71393 7.31441 9.85115 7.52738 10.0212C7.81738 10.2352 8.15447 10.4981 8.53863 10.8101C8.9228 11.122 9.3203 11.4207 9.73113 11.706C10.1263 11.9814 10.5403 12.227 10.9699 12.4407C11.3318 12.6323 11.7308 12.7376 12.1374 12.7488C12.3541 12.762 12.571 12.7254 12.7724 12.6418C12.9381 12.5723 13.0848 12.4621 13.1999 12.3209C13.3408 12.1348 13.4103 11.9016 13.3949 11.666C13.3961 11.4082 13.2799 11.1104 13.0461 10.7714V10.7714Z" fill="#00AFF0"/>
<path d="M7.80744 0.991139C8.01494 1.14669 8.25035 1.32501 8.51369 1.5261C8.77702 1.72719 9.05577 1.94204 9.34994 2.17063C9.64494 2.40266 9.93035 2.63899 10.2062 2.87961C10.4824 3.11938 10.7424 3.35399 10.9837 3.58087C11.2017 3.78044 11.4055 3.99584 11.5937 4.2254C11.4474 4.17966 11.2977 4.14604 11.1462 4.12485C10.9937 4.10324 10.8401 4.09204 10.6862 4.09133C10.3142 4.0916 9.94302 4.12742 9.57744 4.19833C9.20994 4.27052 8.83869 4.34786 8.46244 4.43294C8.08619 4.51802 7.71244 4.59536 7.32744 4.66626C6.94681 4.73806 6.56063 4.77387 6.17369 4.77325C5.93531 4.77856 5.69929 4.72368 5.48619 4.61341C5.29899 4.51398 5.12078 4.3975 4.95369 4.26536C4.79869 4.13645 4.65869 4.02559 4.53244 3.9186C4.43928 3.82565 4.31785 3.76873 4.18869 3.75747C4.15031 3.7601 4.11314 3.77241 4.08045 3.79331C4.04776 3.81421 4.02054 3.84307 4.00119 3.87735C3.9423 3.96829 3.91297 4.07618 3.91744 4.18544C3.91948 4.45623 3.9721 4.72408 4.07244 4.97434C4.281 5.51051 4.66663 5.9534 5.16119 6.22473C5.40866 6.36158 5.68538 6.43248 5.96619 6.43099C6.30777 6.42156 6.64805 6.38362 6.98369 6.31755C7.41119 6.24278 7.87369 6.16157 8.37119 6.07778C8.86869 5.99399 9.37119 5.92567 9.87119 5.87669C10.3284 5.82973 10.789 5.82973 11.2462 5.87669C11.6007 5.90362 11.9437 6.01813 12.2462 6.21055C12.5062 6.38973 12.6349 6.66946 12.6349 7.0536C12.6349 7.43774 12.5387 7.69813 12.3437 7.84895C12.1616 8.00008 11.9349 8.08241 11.7012 8.08227C11.6022 8.07595 11.504 8.1041 11.4224 8.1622C11.3945 8.18114 11.3717 8.20699 11.356 8.23739C11.3402 8.26779 11.3322 8.30177 11.3324 8.33622C11.3384 8.37338 11.3528 8.40854 11.3746 8.4388C11.3963 8.46906 11.4247 8.49355 11.4574 8.51024C11.5688 8.57208 11.695 8.59982 11.8212 8.59017C12.011 8.58848 12.1993 8.55495 12.3787 8.49091C12.5642 8.42484 12.7344 8.31995 12.8787 8.18282C13.0336 8.03404 13.1574 7.85419 13.2424 7.6543C13.3426 7.4139 13.3912 7.15403 13.3849 6.89247V6.69266C13.3773 6.23915 13.2568 5.79526 13.0349 5.4036C12.7849 4.94033 12.4847 4.50787 12.1399 4.11454C11.7603 3.67924 11.351 3.27257 10.9149 2.89766C10.4716 2.51266 10.0299 2.15344 9.58994 1.82001C9.14994 1.48657 8.7416 1.18794 8.36494 0.924109C7.98494 0.66114 7.6866 0.449301 7.46994 0.288598C7.44904 0.272121 7.42484 0.260677 7.3991 0.255101C7.37336 0.249524 7.34674 0.249957 7.32119 0.256371C7.30002 0.260936 7.28018 0.27054 7.26325 0.284416C7.24632 0.298293 7.23277 0.316057 7.22369 0.336293C7.20595 0.380776 7.20159 0.429735 7.21119 0.476804C7.21813 0.507184 7.23088 0.535827 7.2487 0.56106C7.26651 0.586294 7.28903 0.607609 7.31494 0.623755C7.43827 0.712271 7.60244 0.834732 7.80744 0.991139V0.991139Z" fill="#00AFF0"/>
<path d="M8.89899 57.5529H8.42774C8.14797 57.5532 7.87109 57.6113 7.61345 57.7237C7.35582 57.8362 7.12266 58.0008 6.92774 58.2078C6.52669 58.6261 6.30207 59.1909 6.30274 59.7791V60.1787C6.30239 60.7666 6.52699 61.3308 6.92774 61.7488C7.12254 61.9558 7.35571 62.1204 7.61339 62.2326C7.87107 62.3449 8.148 62.4026 8.42774 62.4024H8.89899L9.38149 62.6782H10.0765C10.3872 62.6777 10.6947 62.6132 10.9808 62.4883C11.267 62.3634 11.526 62.1808 11.7427 61.9512C12.1874 61.4835 12.4362 60.8544 12.4352 60.1994V59.7546C12.4354 59.1013 12.1867 58.474 11.7427 58.008C11.5263 57.7779 11.2673 57.5949 10.9811 57.4698C10.6949 57.3447 10.3873 57.2801 10.0765 57.2796H9.38149L8.89899 57.5529ZM11.0315 59.7185H11.5877C11.6285 59.7182 11.6687 59.7286 11.7046 59.7487C11.7404 59.7687 11.7708 59.7978 11.7927 59.8333V59.9415C11.7946 59.9544 11.7946 59.9674 11.7927 59.9802V60.006C11.7938 60.0167 11.7938 60.0275 11.7927 60.0382V60.0872C11.7703 60.1233 11.7394 60.1531 11.7029 60.1738C11.6665 60.1945 11.6256 60.2055 11.584 60.2058H11.0315C10.9752 60.3552 10.8698 60.4795 10.7337 60.5568C10.5976 60.6342 10.4394 60.6598 10.2869 60.629C10.1344 60.5983 9.99717 60.5133 9.89929 60.3888C9.80141 60.2643 9.74909 60.1082 9.75149 59.948V59.9338C9.74909 59.7736 9.80141 59.6175 9.89929 59.493C9.99717 59.3685 10.1344 59.2835 10.2869 59.2528C10.4394 59.222 10.5976 59.2476 10.7337 59.325C10.8698 59.4023 10.9752 59.5266 11.0315 59.676V59.7185ZM8.91399 58.5468V61.4098H8.42774C8.27315 61.4095 8.12019 61.3773 7.97786 61.315C7.83553 61.2528 7.70671 61.1619 7.59899 61.0476C7.37664 60.8164 7.25137 60.5043 7.25024 60.1787V59.7791C7.25124 59.4535 7.37653 59.1414 7.59899 58.9103C7.70688 58.7962 7.83574 58.7054 7.97803 58.6432C8.12032 58.581 8.27319 58.5487 8.42774 58.5481L8.91399 58.5468Z" fill="#00AFF0"/>
</g>
<defs>
<clipPath id="clip0">
<rect width="66" height="16" fill="white" transform="translate(0 66) rotate(-90)"/>
</clipPath>
</defs>
</svg>
