<svg width="1144" height="587" viewBox="0 0 1144 587" fill="none" xmlns="http://www.w3.org/2000/svg">
<path d="M109.336 16.064C129.688 16.064 147.448 20.192 162.616 28.448C177.976 36.704 189.88 48.704 198.328 64.448C206.776 80 211 98.624 211 120.32C211 141.44 206.68 160.16 198.04 176.48C189.4 192.8 177.304 205.472 161.752 214.496C146.392 223.52 128.824 228.032 109.048 228.032C88.696 228.032 70.84 223.904 55.48 215.648C40.312 207.392 28.504 195.488 20.056 179.936C11.608 164.192 7.384 145.472 7.384 123.776C7.384 102.656 11.704 83.936 20.344 67.616C28.984 51.296 40.984 38.624 56.344 29.6C71.896 20.576 89.56 16.064 109.336 16.064ZM108.184 21.248C97.624 21.248 88.312 25.568 80.248 34.208C72.184 42.656 65.944 54.56 61.528 69.92C57.304 85.28 55.192 102.848 55.192 122.624C55.192 142.592 57.592 160.16 62.392 175.328C67.384 190.496 74.008 202.208 82.264 210.464C90.712 218.72 100.024 222.848 110.2 222.848C120.76 222.848 130.072 218.624 138.136 210.176C146.2 201.536 152.344 189.536 156.568 174.176C160.984 158.816 163.192 141.248 163.192 121.472C163.192 101.504 160.696 83.936 155.704 68.768C150.904 53.6 144.28 41.888 135.832 33.632C127.576 25.376 118.36 21.248 108.184 21.248ZM333.679 71.072C343.663 71.072 352.495 73.76 360.175 79.136C368.047 84.512 374.191 92.576 378.607 103.328C383.023 114.08 385.231 127.232 385.231 142.784C385.231 170.24 379.183 191.36 367.087 206.144C355.183 220.736 338.959 228.032 318.415 228.032C312.655 228.032 307.183 227.264 301.999 225.728C297.007 224.192 292.687 221.888 289.039 218.816V247.616C289.039 256.064 291.151 261.92 295.375 265.184C299.599 268.448 306.127 270.08 314.959 270.08V276.128L307.183 275.84C285.871 275.264 272.335 274.976 266.575 274.976C260.815 274.976 248.719 275.36 230.287 276.128V270.08C236.623 270.08 241.039 268.64 243.535 265.76C246.223 263.072 247.567 257.984 247.567 250.496V106.496C247.567 97.664 246.127 91.232 243.247 87.2C240.559 83.168 235.855 81.152 229.135 81.152V75.104C235.279 75.68 241.231 75.968 246.991 75.968C263.695 75.968 277.711 74.624 289.039 71.936V98.432C293.071 89.6 298.927 82.88 306.607 78.272C314.287 73.472 323.311 71.072 333.679 71.072ZM307.183 220.256C319.471 220.256 328.303 214.208 333.679 202.112C339.055 189.824 341.743 171.968 341.743 148.544C341.743 125.12 339.535 108.416 335.119 98.432C330.895 88.448 324.751 83.456 316.687 83.456C310.159 83.456 304.303 85.664 299.119 90.08C294.127 94.496 290.767 100.64 289.039 108.512V212.48C293.647 217.664 299.695 220.256 307.183 220.256ZM440.415 0.79999C448.479 0.79999 454.815 2.81599 459.423 6.848C464.223 10.688 466.623 16.064 466.623 22.976C466.623 29.888 464.223 35.36 459.423 39.392C454.815 43.232 448.479 45.152 440.415 45.152C432.351 45.152 425.919 43.232 421.119 39.392C416.511 35.36 414.207 29.888 414.207 22.976C414.207 16.064 416.511 10.688 421.119 6.848C425.919 2.81599 432.351 0.79999 440.415 0.79999ZM462.879 197.216C462.879 205.088 464.223 210.56 466.911 213.632C469.791 216.512 474.591 217.952 481.311 217.952V224C462.111 223.232 449.343 222.848 443.007 222.848C437.055 222.848 423.71 223.232 402.975 224V217.952C409.887 217.952 414.687 216.512 417.375 213.632C420.063 210.56 421.407 205.088 421.407 197.216V106.496C421.407 97.664 420.063 91.232 417.375 87.2C414.687 83.168 409.887 81.152 402.975 81.152V75.104C409.119 75.68 415.071 75.968 420.831 75.968C437.919 75.968 451.935 74.624 462.879 71.936V197.216ZM600.954 71.072C615.546 71.072 626.106 74.816 632.634 82.304C635.898 85.952 638.202 90.656 639.546 96.416C640.89 102.176 641.562 109.952 641.562 119.744V197.216C641.562 205.088 642.906 210.56 645.594 213.632C648.474 216.512 653.274 217.952 659.994 217.952V224C640.794 223.232 628.122 222.848 621.978 222.848C616.218 222.848 603.738 223.232 584.538 224V217.952C590.298 217.952 594.33 216.512 596.634 213.632C598.938 210.56 600.09 205.088 600.09 197.216V107.648C600.09 99.776 598.746 93.824 596.058 89.792C593.562 85.76 588.954 83.744 582.234 83.744C574.362 83.744 567.642 87.008 562.074 93.536C556.506 99.872 553.722 107.744 553.722 117.152V197.216C553.722 205.088 554.874 210.56 557.178 213.632C559.482 216.512 563.514 217.952 569.274 217.952V224C551.61 223.232 539.706 222.848 533.562 222.848C527.802 222.848 514.554 223.232 493.818 224V217.952C500.73 217.952 505.53 216.512 508.218 213.632C510.906 210.56 512.25 205.088 512.25 197.216V106.496C512.25 97.664 510.906 91.232 508.218 87.2C505.53 83.168 500.73 81.152 493.818 81.152V75.104C499.962 75.68 505.914 75.968 511.674 75.968C528.762 75.968 542.778 74.624 553.722 71.936V97.856C562.362 80 578.106 71.072 600.954 71.072ZM708.165 0.79999C716.229 0.79999 722.565 2.81599 727.173 6.848C731.973 10.688 734.373 16.064 734.373 22.976C734.373 29.888 731.973 35.36 727.173 39.392C722.565 43.232 716.229 45.152 708.165 45.152C700.101 45.152 693.669 43.232 688.869 39.392C684.261 35.36 681.957 29.888 681.957 22.976C681.957 16.064 684.261 10.688 688.869 6.848C693.669 2.81599 700.101 0.79999 708.165 0.79999ZM730.629 197.216C730.629 205.088 731.973 210.56 734.661 213.632C737.541 216.512 742.341 217.952 749.061 217.952V224C729.861 223.232 717.093 222.848 710.757 222.848C704.805 222.848 691.46 223.232 670.725 224V217.952C677.637 217.952 682.437 216.512 685.125 213.632C687.813 210.56 689.157 205.088 689.157 197.216V106.496C689.157 97.664 687.813 91.232 685.125 87.2C682.437 83.168 677.637 81.152 670.725 81.152V75.104C676.869 75.68 682.821 75.968 688.581 75.968C705.669 75.968 719.685 74.624 730.629 71.936V197.216ZM846.24 204.416C861.984 204.416 874.656 196.736 884.256 181.376L889.44 183.104C885.6 195.584 878.688 206.24 868.704 215.072C858.912 223.712 846.624 228.032 831.84 228.032C811.488 228.032 795.264 221.6 783.168 208.736C771.264 195.68 765.312 176.48 765.312 151.136C765.312 125.216 771.744 105.44 784.608 91.808C797.472 77.984 814.56 71.072 835.872 71.072C871.968 71.072 890.016 92.384 890.016 135.008H809.088C808.896 137.888 808.8 142.4 808.8 148.544C808.8 161.216 810.528 171.776 813.984 180.224C817.632 188.672 822.24 194.816 827.808 198.656C833.568 202.496 839.712 204.416 846.24 204.416ZM834.144 77.12C827.232 77.12 821.472 81.44 816.864 90.08C812.448 98.528 809.664 111.68 808.512 129.536H853.728C854.112 114.368 852.576 101.888 849.12 92.096C845.856 82.112 840.864 77.12 834.144 77.12ZM233.464 376.216C233.464 384.088 234.808 389.56 237.496 392.632C240.376 395.512 245.176 396.952 251.896 396.952V403C232.696 402.232 220.024 401.848 213.88 401.848C208.504 401.848 196.6 402.232 178.168 403V396.952C183.352 396.952 186.904 395.512 188.824 392.632C190.936 389.752 191.992 384.28 191.992 376.216V286.648C191.992 278.584 190.744 272.632 188.248 268.792C185.944 264.76 181.432 262.744 174.712 262.744C167.608 262.744 161.368 265.72 155.992 271.672C150.808 277.624 147.736 284.92 146.776 293.56V298.744V376.216C146.776 384.088 147.928 389.56 150.232 392.632C152.728 395.512 157.144 396.952 163.48 396.952V403C145.048 402.232 132.952 401.848 127.192 401.848C121.816 401.848 109.912 402.232 91.48 403V396.952C96.664 396.952 100.216 395.512 102.136 392.632C104.248 389.56 105.304 384.088 105.304 376.216V286.648C105.304 278.584 104.248 272.632 102.136 268.792C100.024 264.76 95.896 262.744 89.752 262.744C82.072 262.744 75.448 266.008 69.88 272.536C64.504 278.872 61.816 286.744 61.816 296.152V376.216C61.816 384.088 62.776 389.56 64.696 392.632C66.808 395.512 70.456 396.952 75.64 396.952V403C58.744 402.232 47.416 401.848 41.656 401.848C35.896 401.848 22.648 402.232 1.912 403V396.952C8.824 396.952 13.624 395.512 16.312 392.632C19 389.56 20.344 384.088 20.344 376.216V285.496C20.344 276.664 19 270.232 16.312 266.2C13.624 262.168 8.824 260.152 1.912 260.152V254.104C8.056 254.68 14.008 254.968 19.768 254.968C36.856 254.968 50.872 253.624 61.816 250.936V276.856C70.264 259 85.144 250.072 106.456 250.072C121.048 250.072 131.608 253.816 138.136 261.304C141.784 265.144 144.184 270.904 145.336 278.584C150.328 268.216 156.856 260.92 164.92 256.696C172.984 252.28 182.392 250.072 193.144 250.072C207.736 250.072 218.296 253.816 224.824 261.304C227.896 264.76 230.104 269.464 231.448 275.416C232.792 281.368 233.464 289.144 233.464 298.744V376.216ZM336.935 250.072C359.015 250.072 376.295 256.408 388.775 269.08C401.255 281.56 407.495 301.432 407.495 328.696C407.495 355.96 401.255 375.832 388.775 388.312C376.295 400.792 359.015 407.032 336.935 407.032C315.047 407.032 297.767 400.792 285.095 388.312C272.615 375.832 266.375 355.96 266.375 328.696C266.375 301.432 272.615 281.56 285.095 269.08C297.767 256.408 315.047 250.072 336.935 250.072ZM336.935 255.832C328.679 255.832 322.055 261.88 317.063 273.976C312.263 285.88 309.863 304.12 309.863 328.696C309.863 353.272 312.263 371.512 317.063 383.416C322.055 395.32 328.679 401.272 336.935 401.272C345.383 401.272 352.007 395.416 356.807 383.704C361.607 371.8 364.007 353.464 364.007 328.696C364.007 303.928 361.511 285.592 356.519 273.688C351.719 261.784 345.191 255.832 336.935 255.832ZM462.915 179.8C470.979 179.8 477.315 181.816 481.923 185.848C486.723 189.688 489.123 195.064 489.123 201.976C489.123 208.888 486.723 214.36 481.923 218.392C477.315 222.232 470.979 224.152 462.915 224.152C454.851 224.152 448.419 222.232 443.619 218.392C439.011 214.36 436.707 208.888 436.707 201.976C436.707 195.064 439.011 189.688 443.619 185.848C448.419 181.816 454.851 179.8 462.915 179.8ZM485.379 376.216C485.379 384.088 486.723 389.56 489.411 392.632C492.291 395.512 497.091 396.952 503.811 396.952V403C484.611 402.232 471.843 401.848 465.507 401.848C459.555 401.848 446.21 402.232 425.475 403V396.952C432.387 396.952 437.187 395.512 439.875 392.632C442.563 389.56 443.907 384.088 443.907 376.216V285.496C443.907 276.664 442.563 270.232 439.875 266.2C437.187 262.168 432.387 260.152 425.475 260.152V254.104C431.619 254.68 437.571 254.968 443.331 254.968C460.419 254.968 474.435 253.624 485.379 250.936V376.216ZM591.198 250.072C598.302 250.072 605.022 250.84 611.358 252.376C617.694 253.912 622.974 256.024 627.198 258.712C632.19 261.784 636.03 265.72 638.718 270.52C641.598 275.128 643.038 280.216 643.038 285.784C643.038 292.504 640.926 298.072 636.702 302.488C632.478 306.712 627.006 308.824 620.286 308.824C613.566 308.824 608.19 306.904 604.158 303.064C600.126 299.224 598.11 294.04 598.11 287.512C598.11 281.752 599.934 276.76 603.582 272.536C607.23 268.312 611.742 265.432 617.118 263.896C615.582 261.784 613.182 260.152 609.918 259C606.846 257.656 603.486 256.984 599.838 256.984C588.318 256.984 579.294 263.32 572.766 275.992C566.43 288.472 563.262 304.888 563.262 325.24C563.262 345.784 566.91 360.568 574.206 369.592C581.502 378.616 590.622 383.128 601.566 383.128C608.094 383.128 614.622 381.4 621.15 377.944C627.87 374.488 633.918 368.44 639.294 359.8L644.19 361.528C640.35 374.008 633.63 384.76 624.03 393.784C614.43 402.616 602.046 407.032 586.878 407.032C567.102 407.032 550.974 400.504 538.494 387.448C526.014 374.392 519.774 355 519.774 329.272C519.774 312.376 522.846 297.976 528.99 286.072C535.134 274.168 543.582 265.24 554.334 259.288C565.086 253.144 577.374 250.072 591.198 250.072ZM717.657 276.856C726.297 259 741.945 250.072 764.601 250.072C779.577 250.072 790.137 253.816 796.281 261.304C799.545 264.952 801.849 269.752 803.193 275.704C804.729 281.464 805.497 289.144 805.497 298.744V376.216C805.497 384.088 806.841 389.56 809.529 392.632C812.217 395.512 817.017 396.952 823.929 396.952V403C803.961 402.232 791.289 401.848 785.913 401.848C779.385 401.848 766.905 402.232 748.473 403V396.952C754.233 396.952 758.265 395.512 760.569 392.632C762.873 389.56 764.025 384.088 764.025 376.216V286.648C764.025 278.776 762.681 272.824 759.993 268.792C757.497 264.76 752.889 262.744 746.169 262.744C738.105 262.744 731.289 265.912 725.721 272.248C720.345 278.392 717.657 286.264 717.657 295.864V376.216C717.657 384.088 718.809 389.56 721.113 392.632C723.417 395.512 727.449 396.952 733.209 396.952V403C714.777 402.232 702.873 401.848 697.497 401.848C690.969 401.848 677.721 402.232 657.753 403V396.952C664.473 396.952 669.177 395.512 671.865 392.632C674.745 389.56 676.185 384.088 676.185 376.216V212.344C676.185 203.512 674.745 197.08 671.865 193.048C669.177 189.016 664.473 187 657.753 187V180.952C663.897 181.528 669.849 181.816 675.609 181.816C692.313 181.816 706.329 180.472 717.657 177.784V276.856Z" fill="#E7E7E7"/>
<path d="M148.216 560.976C151.288 565.584 153.784 569.04 155.704 571.344C157.624 573.456 160.12 574.992 163.192 575.952V582C147.832 581.232 137.752 580.848 132.952 580.848C126.616 580.848 114.232 581.232 95.8 582V575.952C98.488 575.952 100.6 575.472 102.136 574.512C103.672 573.552 104.44 572.208 104.44 570.48C104.44 569.52 103.96 568.08 103 566.16L74.488 514.608C72.568 511.344 70.552 509.136 68.44 507.984C66.328 506.832 63.64 506.064 60.376 505.68V555.216C60.376 563.088 61.624 568.56 64.12 571.632C66.616 574.512 71.128 575.952 77.656 575.952V582C58.456 581.232 45.976 580.848 40.216 580.848C33.688 580.848 20.44 581.232 0.472 582V575.952C7.192 575.952 11.896 574.512 14.584 571.632C17.464 568.56 18.904 563.088 18.904 555.216V391.056C18.904 382.224 17.464 375.792 14.584 371.76C11.896 367.728 7.192 365.712 0.472 365.712V359.664C6.616 360.24 12.568 360.528 18.328 360.528C35.032 360.528 49.048 359.184 60.376 356.496V500.208C64.216 499.824 67.48 499.056 70.168 497.904C73.048 496.752 75.544 495.024 77.656 492.72L99.544 471.408C105.88 465.072 109.048 459.216 109.048 453.84C109.048 449.424 107.032 445.968 103 443.472C98.968 440.784 93.592 439.248 86.872 438.864V433.104C97.432 433.68 108.664 433.968 120.568 433.968C136.504 433.968 147.736 433.68 154.264 433.104V438.864C142.936 441.36 130.936 448.752 118.264 461.04L99.832 480.048L148.216 560.976ZM222.102 555.216C222.102 563.088 223.446 568.56 226.134 571.632C228.822 574.512 233.622 575.952 240.534 575.952V582C220.566 581.232 207.702 580.848 201.942 580.848C195.414 580.848 182.166 581.232 162.198 582V575.952C168.918 575.952 173.622 574.512 176.31 571.632C179.19 568.56 180.63 563.088 180.63 555.216V391.056C180.63 382.224 179.19 375.792 176.31 371.76C173.622 367.728 168.918 365.712 162.198 365.712V359.664C168.342 360.24 174.294 360.528 180.054 360.528C196.758 360.528 210.774 359.184 222.102 356.496V555.216ZM290.227 358.8C298.291 358.8 304.627 360.816 309.235 364.848C314.035 368.688 316.435 374.064 316.435 380.976C316.435 387.888 314.035 393.36 309.235 397.392C304.627 401.232 298.291 403.152 290.227 403.152C282.163 403.152 275.731 401.232 270.931 397.392C266.323 393.36 264.019 387.888 264.019 380.976C264.019 374.064 266.323 368.688 270.931 364.848C275.731 360.816 282.163 358.8 290.227 358.8ZM312.691 555.216C312.691 563.088 314.035 568.56 316.723 571.632C319.603 574.512 324.403 575.952 331.123 575.952V582C311.923 581.232 299.155 580.848 292.819 580.848C286.867 580.848 273.523 581.232 252.787 582V575.952C259.699 575.952 264.499 574.512 267.187 571.632C269.875 568.56 271.219 563.088 271.219 555.216V464.496C271.219 455.664 269.875 449.232 267.187 445.2C264.499 441.168 259.699 439.152 252.787 439.152V433.104C258.931 433.68 264.883 433.968 270.643 433.968C287.731 433.968 301.747 432.624 312.691 429.936V555.216ZM428.303 562.416C444.047 562.416 456.719 554.736 466.319 539.376L471.503 541.104C467.663 553.584 460.751 564.24 450.767 573.072C440.975 581.712 428.687 586.032 413.903 586.032C393.551 586.032 377.327 579.6 365.231 566.736C353.327 553.68 347.375 534.48 347.375 509.136C347.375 483.216 353.807 463.44 366.671 449.808C379.535 435.984 396.623 429.072 417.935 429.072C454.031 429.072 472.079 450.384 472.079 493.008H391.151C390.959 495.888 390.863 500.4 390.863 506.544C390.863 519.216 392.591 529.776 396.047 538.224C399.695 546.672 404.303 552.816 409.871 556.656C415.631 560.496 421.775 562.416 428.303 562.416ZM416.207 435.12C409.295 435.12 403.535 439.44 398.927 448.08C394.511 456.528 391.727 469.68 390.575 487.536H435.791C436.175 472.368 434.639 459.888 431.183 450.096C427.919 440.112 422.927 435.12 416.207 435.12ZM594.204 429.072C608.796 429.072 619.356 432.816 625.884 440.304C629.148 443.952 631.452 448.656 632.796 454.416C634.14 460.176 634.812 467.952 634.812 477.744V555.216C634.812 563.088 636.156 568.56 638.844 571.632C641.724 574.512 646.524 575.952 653.244 575.952V582C634.044 581.232 621.372 580.848 615.228 580.848C609.468 580.848 596.988 581.232 577.788 582V575.952C583.548 575.952 587.58 574.512 589.884 571.632C592.188 568.56 593.34 563.088 593.34 555.216V465.648C593.34 457.776 591.996 451.824 589.308 447.792C586.812 443.76 582.204 441.744 575.484 441.744C567.612 441.744 560.892 445.008 555.324 451.536C549.756 457.872 546.972 465.744 546.972 475.152V555.216C546.972 563.088 548.124 568.56 550.428 571.632C552.732 574.512 556.764 575.952 562.524 575.952V582C544.86 581.232 532.956 580.848 526.812 580.848C521.052 580.848 507.804 581.232 487.068 582V575.952C493.98 575.952 498.78 574.512 501.468 571.632C504.156 568.56 505.5 563.088 505.5 555.216V464.496C505.5 455.664 504.156 449.232 501.468 445.2C498.78 441.168 493.98 439.152 487.068 439.152V433.104C493.212 433.68 499.164 433.968 504.924 433.968C522.012 433.968 536.028 432.624 546.972 429.936V455.856C555.612 438 571.356 429.072 594.204 429.072ZM722.439 433.104H756.423V438.864H722.439V555.216C722.439 560.976 723.399 565.104 725.319 567.6C727.431 569.904 730.695 571.056 735.111 571.056C743.367 571.056 749.895 565.296 754.695 553.776L759.591 556.368C752.295 576.144 739.143 586.032 720.135 586.032C707.463 586.032 697.863 582.768 691.335 576.24C687.303 572.208 684.519 567.216 682.983 561.264C681.639 555.12 680.967 546.768 680.967 536.208V438.864H656.774V433.104H680.967V395.088C696.903 395.088 710.727 392.016 722.439 385.872V433.104ZM838.404 429.072C860.484 429.072 877.764 435.408 890.244 448.08C902.724 460.56 908.964 480.432 908.964 507.696C908.964 534.96 902.724 554.832 890.244 567.312C877.764 579.792 860.484 586.032 838.404 586.032C816.516 586.032 799.236 579.792 786.564 567.312C774.084 554.832 767.844 534.96 767.844 507.696C767.844 480.432 774.084 460.56 786.564 448.08C799.236 435.408 816.516 429.072 838.404 429.072ZM838.404 434.832C830.148 434.832 823.524 440.88 818.532 452.976C813.732 464.88 811.332 483.12 811.332 507.696C811.332 532.272 813.732 550.512 818.532 562.416C823.524 574.32 830.148 580.272 838.404 580.272C846.852 580.272 853.476 574.416 858.276 562.704C863.076 550.8 865.476 532.464 865.476 507.696C865.476 482.928 862.98 464.592 857.988 452.688C853.188 440.784 846.66 434.832 838.404 434.832ZM870.372 346.704C873.828 349.2 875.556 352.848 875.556 357.648C875.556 361.68 874.116 365.616 871.236 369.456C869.124 371.952 866.436 374.544 863.172 377.232C860.1 379.728 856.74 382.32 853.092 385.008C841.572 393.072 831.396 401.232 822.564 409.488L819.396 406.896C824.58 397.488 829.956 385.68 835.524 371.472C838.02 365.52 839.94 361.104 841.284 358.224C842.82 355.152 844.644 352.368 846.756 349.872C850.404 345.264 854.916 342.96 860.292 342.96C864.324 342.96 867.684 344.208 870.372 346.704ZM1121.42 433.968C1131.22 433.968 1138.51 433.68 1143.31 433.104V438.864C1139.28 440.016 1135.63 442.416 1132.37 446.064C1129.1 449.712 1126.22 455.568 1123.73 463.632L1085.42 582.576C1083.31 582.384 1080.14 582.288 1075.92 582.288C1071.89 582.288 1068.82 582.384 1066.7 582.576L1027.54 475.728L995.568 582.576C993.648 582.384 990.576 582.288 986.352 582.288C982.128 582.288 978.96 582.384 976.848 582.576L931.344 455.28C929.04 448.56 926.448 444.24 923.568 442.32C920.688 440.208 917.712 439.152 914.64 439.152V433.104C927.12 434.256 940.752 434.832 955.536 434.832C965.136 434.832 977.616 434.256 992.976 433.104V439.152C986.64 439.152 982.032 439.632 979.152 440.592C976.464 441.552 975.12 443.856 975.12 447.504C975.12 450 975.6 452.592 976.56 455.28L1002.48 536.784L1033.87 432.816L1044.53 433.104L1054.9 432.816L1092.34 542.832L1110.48 484.944C1113.17 475.92 1114.51 468.624 1114.51 463.056C1114.51 448.08 1106.93 440.016 1091.76 438.864V433.104C1100.78 433.68 1110.67 433.968 1121.42 433.968Z" fill="#B80202"/>
</svg>
