<svg width="54" height="54" viewBox="0 0 54 54" fill="none" xmlns="http://www.w3.org/2000/svg">
<path d="M9.1395 37.4085C8.76825 36.2835 9.225 35.3362 10.6155 34.8322L17.9258 32.2335L17.6243 34.5465C17.451 35.8718 17.3925 37.0373 17.424 38.0858C16.8615 38.2613 14.9603 38.8485 13.0478 39.3278C11.088 39.8183 9.58725 38.7652 9.1395 37.4085V37.4085ZM13.0658 41.7195C12.0285 42.0952 11.6888 42.7995 11.9655 43.641C12.2963 44.6512 13.4168 45.4365 14.877 45.0698C16.2405 44.73 18.045 44.1788 18.7043 43.974C18.2475 42.8378 17.8538 41.6453 17.6265 40.2413L13.0658 41.7195V41.7195ZM13.5 18H19.4468L19.7348 15.75H13.5V18V18ZM49.5 4.5V24.75C49.5 27.234 47.484 29.25 45 29.25H40.5248L40.5585 29.295C40.4888 30.2625 40.3223 31.3335 40.059 32.5733C39.0443 37.3973 36.3758 44.0978 38.1915 51.5138C32.9895 52.3148 29.9768 52.6905 24.7095 54C24.0953 44.8605 19.611 42.8782 20.6505 34.9425C21.87 25.6342 22.5495 20.4053 23.3415 14.1188C23.589 12.141 24.9863 11.178 26.3498 11.178C27.7695 11.178 29.1533 12.222 29.1668 14.2515C29.214 21.6833 29.4098 29.0858 29.8958 30.8858C30.2243 32.1008 32.3415 32.3213 32.3415 29.7338L32.337 24.7477H43.875C44.496 24.7477 45 24.2437 45 23.6227V13.5H32.472C32.1188 10.2128 29.6145 7.80525 26.3498 7.80525H26.3475C23.1075 7.80525 20.547 10.1407 20.034 13.5H9V23.625C9 24.246 9.504 24.75 10.125 24.75H18.5783L17.991 29.25H9C6.516 29.25 4.5 27.234 4.5 24.75V4.5C4.5 2.016 6.516 0 9 0H45C47.484 0 49.5 2.016 49.5 4.5V4.5ZM45 5.625C45 5.004 44.496 4.5 43.875 4.5H10.125C9.504 4.5 9 5.004 9 5.625V6.75H45V5.625ZM13.5 22.5H18.8685L19.1588 20.25H13.5V22.5V22.5ZM40.5 15.75H33.75V18H40.5V15.75Z" fill="#E7E7E7"/>
</svg>
