<svg width="26" height="26" viewBox="0 0 26 26" fill="none" xmlns="http://www.w3.org/2000/svg">
<path fill-rule="evenodd" clip-rule="evenodd" d="M0 13C0 5.82075 5.82075 0 13 0C20.1793 0 26 5.82075 26 13C26 20.1793 20.1793 26 13 26C5.82075 26 0 20.1793 0 13ZM13 15.875C14.3094 15.875 15.375 14.8094 15.375 13.5C15.375 12.1906 14.3094 11.125 13 11.125C11.6906 11.125 10.625 12.1906 10.625 13.5C10.625 14.8094 11.6906 15.875 13 15.875ZM13.0119 19.0417C19.1338 19.0417 22.5 13.1445 22.5 13.1445C22.5 13.1445 19.103 7.95833 13.0119 7.95833C7.01975 7.95833 3.5 13.1445 3.5 13.1445C3.5 13.1445 7.32771 19.0417 13.0119 19.0417ZM13 9.54167C15.1866 9.54167 16.9583 11.3142 16.9583 13.5C16.9583 15.6866 15.1866 17.4583 13 17.4583C10.8142 17.4583 9.04167 15.6866 9.04167 13.5C9.04167 11.3142 10.8142 9.54167 13 9.54167Z" fill="#E7E7E7"/>
</svg>
