<svg width="26" height="26" viewBox="0 0 26 26" fill="none" xmlns="http://www.w3.org/2000/svg">
<path d="M13.0163 7.58329C18.1632 7.58329 21.7512 10.8463 23.3123 12.6056C21.7945 14.5957 18.2065 18.4166 13.0163 18.4166C8.22792 18.4166 4.42542 14.586 2.74842 12.559C4.36583 10.7748 7.96683 7.58329 13.0163 7.58329ZM13.0163 5.41663C4.8165 5.41663 0 12.5135 0 12.5135C0 12.5135 5.23792 20.5833 13.0163 20.5833C21.3937 20.5833 26 12.5135 26 12.5135C26 12.5135 21.3514 5.41663 13.0163 5.41663ZM13 13L9.36 10.648C8.92125 11.3251 8.66667 12.1333 8.66667 13C8.66667 15.393 10.6069 17.3333 13 17.3333C15.3931 17.3333 17.3333 15.393 17.3333 13C17.3333 10.6069 15.3931 8.66663 13 8.66663C12.1962 8.66663 11.4422 8.88546 10.7976 9.26679L13 13Z" fill="#F9F9F9"/>
</svg>
