<svg width="18" height="18" viewBox="0 0 18 18" fill="none" xmlns="http://www.w3.org/2000/svg">
<g clip-path="url(#clip0)">
<path d="M9.31969 15.216C9.17344 15.4582 8.82319 15.4582 8.67694 15.216L1.64944 3.55725C1.49944 3.3075 1.67869 2.9895 1.97119 2.9895L15.9722 2.994C16.2609 2.994 16.4439 3.3105 16.2932 3.5625L9.31969 15.216V15.216ZM8.99794 17.0782C9.56794 17.0782 10.1387 16.8007 10.4724 16.245L17.7527 4.11C18.4389 2.96775 17.6162 1.506 16.2789 1.506L1.71694 1.506C0.379687 1.506 -0.442313 2.96775 0.243187 4.11L7.52344 16.245C7.85794 16.8007 8.42719 17.0782 8.99794 17.0782V17.0782Z" fill="white"/>
</g>
<defs>
<clipPath id="clip0">
<rect width="18" height="18" fill="white" transform="translate(18 18) rotate(-180)"/>
</clipPath>
</defs>
</svg>
