<svg width="54" height="54" viewBox="0 0 54 54" fill="none" xmlns="http://www.w3.org/2000/svg">
<path d="M54 6.75L46.8113 33.111L37.071 24.4373L46.4175 14.571L33.8895 23.2312L25.2427 21.1297L54 6.75ZM36.027 26.721V36L39.9307 30.1995L36.027 26.721V26.721ZM26.721 39.51C25.2675 40.4212 23.769 41.2312 22.2525 41.9152L23.3595 44.5792C24.8782 43.8975 26.3812 43.0987 27.8415 42.2032L26.721 39.51V39.51ZM33.75 34.092C32.4225 35.3993 30.6833 36.7268 29.1555 37.8495L30.2918 40.581C31.3853 39.8025 32.7375 38.8755 33.75 38.0025V34.092V34.092ZM20.682 45.6502C17.7705 46.6785 15.012 47.25 12.4852 47.25C5.58 47.25 0 43.2293 0 36.3825C0 33.3495 1.02825 30.7327 2.9835 28.7505C5.2335 26.5005 8.19225 25.4002 11.9858 25.4002C17.685 25.4002 21.7462 29.07 21.7462 34.182C21.7462 36.4815 20.916 38.5853 19.422 40.077C18.153 41.3483 16.4857 42.084 14.85 42.084C13.8937 42.084 13.113 41.7173 12.744 41.13C12.6225 40.9343 12.5977 40.8105 12.5235 40.3718C11.5942 41.4473 10.6155 41.913 9.24525 41.913C6.82425 41.913 5.283 40.104 5.283 37.314C5.283 33.1807 7.9965 29.7563 11.25 29.7563C12.6203 29.7563 13.3042 30.0982 13.9657 31.1265L14.2088 30.2715H17.1C16.9537 30.7598 16.5127 32.2515 16.3912 32.7915C14.8027 38.6685 14.8275 38.4255 14.8275 38.9565C14.8275 39.9622 16.2135 39.564 17.0033 38.9317C18.2025 38.0025 18.9855 36.1913 18.9855 34.308C18.9855 32.058 17.9325 30.1005 16.173 29.0002C15.0728 28.341 13.5293 27.972 11.7945 27.972C6.633 27.972 3.01275 31.3965 3.01275 36.2408C3.01275 43.9943 11.1712 45.8303 19.575 42.9818L20.682 45.6502V45.6502ZM13.0388 33.7657C13.0388 32.7622 12.4763 32.0782 11.619 32.0782C10.6898 32.0782 9.8325 32.688 9.22275 33.84C8.6355 34.9402 8.244 36.3825 8.244 37.5097C8.244 38.8057 8.73225 39.4898 9.66375 39.4898C10.566 39.4898 11.4233 38.781 12.0578 37.5322C12.6473 36.3825 13.0388 34.8907 13.0388 33.7657V33.7657Z" fill="#E7E7E7"/>
</svg>
