<svg width="54" height="54" viewBox="0 0 54 54" fill="none" xmlns="http://www.w3.org/2000/svg">
<path d="M39.7733 37.9777L39.0015 38.4165V34.5532L39.7733 34.1145V37.9777ZM46.125 30.4987L45.3555 30.9375V34.8007L46.125 34.3597V30.4987V30.4987ZM54 13.3942V39.285L32.0625 51.75L9 40.5247V14.634L30.9758 2.25L54 13.3942V13.3942ZM27.3465 9.441L43.146 16.641L46.971 14.5777L30.9667 7.3935L27.3465 9.441V9.441ZM29.25 26.7727L13.5 19.4827V37.9102L29.25 44.9932V26.7727V26.7727ZM36.0472 20.4525L20.7068 13.1625L16.1055 15.7905L31.5383 22.9027L36.0472 20.4525ZM49.5 18.3307L45 20.7562V27.0247L38.25 30.8227V24.3967L33.75 26.8222V45.6367L49.5 36.6705V18.3307V18.3307ZM38.4593 34.8637L37.674 35.3115V39.1657L38.4593 38.727V34.8637V34.8637ZM41.6205 33.0637L40.8465 33.5047V37.368L41.6205 36.927V33.0637V33.0637ZM42.912 32.328L42.1403 32.7667V36.63L42.912 36.1912V32.328ZM44.226 31.581L43.4385 32.0287V35.892L44.226 35.4442V31.581ZM6.75 22.5H2.25V24.75H6.75V22.5ZM6.75 27H0V29.25H6.75V27ZM6.75 31.5H2.25V33.75H6.75V31.5Z" fill="#E7E7E7"/>
</svg>
