<svg width="580" height="894" viewBox="0 0 580 894" fill="none" xmlns="http://www.w3.org/2000/svg">
<path d="M301.324 60.4552L256.342 191.515L165.332 87.0298L301.324 60.4552Z" fill="#B80202"/>
<path d="M409.261 123.594L479.674 306.385L286.166 275.969L409.261 123.594Z" fill="#B80202"/>
<path d="M150.426 231.711L238.538 253.691L175.447 319.008L150.426 231.711Z" fill="#B80202"/>
<path d="M472.423 385.972L317.529 526.357L273.399 322.023L472.423 385.972Z" fill="#B80202"/>
<path d="M207.994 356.659L251.839 500.699L105.174 466.649L207.994 356.659Z" fill="#B80202"/>
<path d="M482.257 557.919L379.338 736.179L276.42 557.919L482.257 557.919Z" fill="#B80202"/>
<path d="M250.163 639.951L103.679 671.975L149.187 529.104L250.163 639.951Z" fill="#B80202"/>
<path d="M261.609 117.103L213.065 258.543L114.846 145.782L261.609 117.103Z" fill="#282828"/>
<path d="M378.096 185.242L454.086 382.512L245.25 349.686L378.096 185.242Z" fill="#282828"/>
<path d="M98.7584 301.923L193.85 325.644L125.761 396.135L98.7584 301.923Z" fill="#282828"/>
<path d="M446.26 468.403L279.098 619.908L231.473 399.389L446.26 468.403Z" fill="#282828"/>
<path d="M160.887 436.768L208.204 592.217L49.9225 555.47L160.887 436.768Z" fill="#282828"/>
<path d="M456.874 653.969L345.803 846.349L234.733 653.969L456.874 653.969Z" fill="#282828"/>
<path d="M206.396 742.499L48.3087 777.06L97.4217 622.872L206.396 742.499Z" fill="#282828"/>
<path d="M320.609 99.1027L272.065 240.543L173.846 127.782L320.609 99.1027Z" fill="#2D2D2D"/>
<path d="M437.096 167.242L513.086 364.512L304.25 331.686L437.096 167.242Z" fill="#2D2D2D"/>
<path d="M157.758 283.923L252.85 307.644L184.761 378.135L157.758 283.923Z" fill="#2D2D2D"/>
<path d="M505.26 450.403L338.098 601.908L290.473 381.389L505.26 450.403Z" fill="#2D2D2D"/>
<path d="M219.887 418.768L267.204 574.217L108.923 537.47L219.887 418.768Z" fill="#2D2D2D"/>
<path d="M515.874 635.969L404.803 828.349L293.733 635.969L515.874 635.969Z" fill="#2D2D2D"/>
<path d="M265.396 724.499L107.309 759.06L156.422 604.872L265.396 724.499Z" fill="#2D2D2D"/>
</svg>
