<svg width="34" height="34" viewBox="0 0 34 34" fill="none" xmlns="http://www.w3.org/2000/svg">
<path d="M30.8613 7.46837C27.2924 7.46837 24.389 4.56491 24.389 0.996094C24.389 0.445908 23.9428 0 23.3929 0H18.0581C17.5079 0 17.062 0.445908 17.062 0.996094V22.8681C17.062 24.9662 15.3551 26.673 13.2569 26.673C11.1588 26.673 9.452 24.9662 9.452 22.8681C9.452 20.7699 11.1588 19.063 13.2569 19.063C13.8071 19.063 14.253 18.6171 14.253 18.0669V12.7321C14.253 12.1822 13.8071 11.736 13.2569 11.736C7.1187 11.736 2.125 16.73 2.125 22.8681C2.125 29.0063 7.1187 34 13.2569 34C19.395 34 24.389 29.0063 24.389 22.8681V13.1866C26.3716 14.2436 28.5775 14.7954 30.8613 14.7954C31.4115 14.7954 31.8574 14.3495 31.8574 13.7993V8.46446C31.8574 7.91454 31.4115 7.46837 30.8613 7.46837ZM29.8652 12.7619C27.7386 12.585 25.7192 11.8421 23.9745 10.5871C23.6712 10.3687 23.2712 10.3386 22.9384 10.5093C22.6059 10.6795 22.3968 11.0219 22.3968 11.3957V22.8681C22.3968 27.9077 18.2965 32.0078 13.2569 32.0078C8.21725 32.0078 4.11719 27.9077 4.11719 22.8681C4.11719 18.165 7.68808 14.2799 12.2608 13.7822V17.1564C9.53708 17.6301 7.45981 20.0108 7.45981 22.8681C7.45981 26.0647 10.0603 28.6655 13.2569 28.6655C16.4537 28.6655 19.0542 26.0647 19.0542 22.8681V1.99219H22.4549C22.9112 5.86502 25.9923 8.94617 29.8652 9.40245V12.7619Z" fill="#E7E7E7"/>
</svg>
