<svg width="16" height="16" viewBox="0 0 16 16" fill="none" xmlns="http://www.w3.org/2000/svg">
<g clip-path="url(#clip0)">
<path d="M0.074707 15.0065L1.12954 11.153C0.478633 10.025 0.136609 8.7463 0.137234 7.43511C0.13911 3.33583 3.47494 0 7.57359 0C9.56258 0.000625272 11.4296 0.775337 12.834 2.18095C14.2377 3.58656 15.0106 5.45487 15.01 7.44199C15.0081 11.5419 11.6723 14.8777 7.57359 14.8777C6.3293 14.8771 5.10314 14.5651 4.01705 13.9723L0.074707 15.0065ZM4.19963 12.6261C5.24758 13.2483 6.24802 13.6209 7.57109 13.6215C10.9776 13.6215 13.7525 10.8491 13.7544 7.44074C13.7557 4.0255 10.9938 1.2568 7.5761 1.25555C4.16711 1.25555 1.39403 4.028 1.39278 7.43573C1.39216 8.82696 1.79983 9.86867 2.48451 10.9585L1.85986 13.2395L4.19963 12.6261ZM11.3196 9.20963C11.2733 9.1321 11.1495 9.08583 10.9632 8.99266C10.7775 8.8995 9.86397 8.44993 9.69327 8.38802C9.52319 8.32612 9.39939 8.29486 9.27496 8.48119C9.15116 8.66689 8.79475 9.08583 8.68658 9.20963C8.57841 9.33344 8.46961 9.34907 8.2839 9.2559C8.0982 9.16274 7.49919 8.96703 6.7895 8.33362C6.23739 7.84091 5.8641 7.23252 5.75593 7.04619C5.64776 6.86048 5.74467 6.75982 5.83721 6.66727C5.921 6.58411 6.02292 6.45031 6.11609 6.34151C6.2105 6.23396 6.24114 6.15643 6.30367 6.032C6.36557 5.9082 6.33493 5.7994 6.28804 5.70623C6.24114 5.61369 5.86973 4.69892 5.71529 4.32688C5.56397 3.96485 5.41078 4.01362 5.29698 4.00799L4.94057 4.00174C4.81677 4.00174 4.61543 4.04801 4.44536 4.23434C4.27528 4.42067 3.79508 4.86962 3.79508 5.78439C3.79508 6.69916 4.46099 7.58267 4.55353 7.70648C4.6467 7.83028 5.86348 9.70735 7.72741 10.5121C8.17073 10.7034 8.51713 10.8178 8.78662 10.9035C9.23182 11.0448 9.63699 11.0248 9.95713 10.9773C10.3142 10.9241 11.0564 10.5277 11.2114 10.0938C11.3665 9.6592 11.3665 9.28716 11.3196 9.20963Z" fill="#2D2D2D"/>
</g>
<defs>
<clipPath id="clip0">
<rect width="15.0065" height="15.0065" fill="white" transform="translate(0.0390625)"/>
</clipPath>
</defs>
</svg>
