<svg width="16" height="16" viewBox="0 0 16 16" fill="none" xmlns="http://www.w3.org/2000/svg">
<g clip-path="url(#clip0)">
<path d="M0.0551758 15.0065L1.11001 11.153C0.459101 10.025 0.117078 8.7463 0.117703 7.43511C0.119579 3.33583 3.45541 0 7.55406 0C9.54305 0.000625272 11.4101 0.775337 12.8145 2.18095C14.2182 3.58656 14.991 5.45487 14.9904 7.44199C14.9885 11.5419 11.6527 14.8777 7.55406 14.8777C6.30977 14.8771 5.08361 14.5651 3.99752 13.9723L0.0551758 15.0065V15.0065ZM4.1801 12.6261C5.22805 13.2483 6.22849 13.6209 7.55156 13.6215C10.958 13.6215 13.733 10.8491 13.7349 7.44074C13.7361 4.0255 10.9743 1.2568 7.55656 1.25555C4.14758 1.25555 1.3745 4.028 1.37325 7.43573C1.37262 8.82696 1.7803 9.86867 2.46497 10.9585L1.84033 13.2395L4.1801 12.6261V12.6261ZM11.3001 9.20963C11.2538 9.1321 11.13 9.08583 10.9437 8.99266C10.758 8.8995 9.84443 8.44993 9.67374 8.38802C9.50366 8.32612 9.37986 8.29486 9.25543 8.48119C9.13162 8.66689 8.77522 9.08583 8.66705 9.20963C8.55888 9.33343 8.45008 9.34907 8.26437 9.2559C8.07867 9.16274 7.47966 8.96703 6.76997 8.33362C6.21786 7.84091 5.84457 7.23252 5.7364 7.04619C5.62823 6.86048 5.72514 6.75982 5.81768 6.66728C5.90147 6.58411 6.00339 6.45031 6.09655 6.34151C6.19097 6.23396 6.22161 6.15643 6.28414 6.032C6.34604 5.9082 6.3154 5.7994 6.2685 5.70623C6.22161 5.61369 5.8502 4.69892 5.69575 4.32688C5.54444 3.96485 5.39125 4.01362 5.27745 4.00799L4.92104 4.00174C4.79724 4.00174 4.5959 4.04801 4.42583 4.23434C4.25575 4.42067 3.77554 4.86962 3.77554 5.78439C3.77554 6.69916 4.44146 7.58267 4.534 7.70648C4.62716 7.83028 5.84394 9.70735 7.70788 10.5121C8.1512 10.7034 8.4976 10.8178 8.76709 10.9035C9.21228 11.0448 9.61746 11.0248 9.9376 10.9773C10.2946 10.9241 11.0368 10.5277 11.1919 10.0938C11.347 9.6592 11.347 9.28716 11.3001 9.20963V9.20963Z" fill="#F9F9F9"/>
</g>
<defs>
<clipPath id="clip0">
<rect width="15.0065" height="15.0065" fill="white" transform="translate(0.0195312)"/>
</clipPath>
</defs>
</svg>
