<svg width="1187" height="374" viewBox="0 0 1187 374" fill="none" xmlns="http://www.w3.org/2000/svg">
<path d="M95.784 22.096C133.224 22.096 161.256 30.64 179.88 47.728C198.504 64.624 207.816 89.296 207.816 121.744C207.816 142.672 203.208 161.008 193.992 176.752C184.968 192.304 171.816 204.4 154.536 213.04C137.448 221.68 117 226 93.192 226L75.336 225.712C64.2 225.328 56.136 225.136 51.144 225.136C31.368 225.136 16.584 225.424 6.792 226V220.24C13.128 219.856 17.736 219.088 20.616 217.936C23.688 216.784 25.704 214.576 26.664 211.312C27.816 208.048 28.392 202.768 28.392 195.472V52.624C28.392 45.328 27.816 40.048 26.664 36.784C25.704 33.52 23.688 31.312 20.616 30.16C17.736 29.008 13.128 28.24 6.792 27.856V22.096C14.856 22.672 26.472 22.96 41.64 22.96H50.568L62.088 22.672C77.832 22.288 89.064 22.096 95.784 22.096ZM95.496 27.28C89.544 27.28 85.032 27.952 81.96 29.296C79.08 30.64 77.064 33.04 75.912 36.496C74.76 39.952 74.184 45.136 74.184 52.048V196.048C74.184 202.96 74.76 208.144 75.912 211.6C77.064 215.056 79.08 217.456 81.96 218.8C85.032 220.144 89.64 220.816 95.784 220.816C119.016 220.816 135.528 212.752 145.32 196.624C155.112 180.304 160.008 155.728 160.008 122.896C160.008 90.064 154.92 65.968 144.744 50.608C134.76 35.056 118.344 27.28 95.496 27.28ZM282.883 199.216C282.883 207.088 284.227 212.56 286.915 215.632C289.603 218.512 294.403 219.952 301.315 219.952V226C281.347 225.232 268.483 224.848 262.723 224.848C256.195 224.848 242.947 225.232 222.979 226V219.952C229.699 219.952 234.403 218.512 237.091 215.632C239.971 212.56 241.411 207.088 241.411 199.216V35.056C241.411 26.224 239.971 19.792 237.091 15.76C234.403 11.728 229.699 9.71199 222.979 9.71199V3.664C229.123 4.23999 235.075 4.52798 240.835 4.52798C257.539 4.52798 271.555 3.18398 282.883 0.495985V199.216ZM351.584 228.016C339.296 228.016 330.08 224.848 323.936 218.512C317.984 212.176 315.008 203.824 315.008 193.456C315.008 184.816 317.216 177.712 321.632 172.144C326.24 166.384 331.712 161.968 338.048 158.896C344.576 155.824 352.832 152.56 362.816 149.104C373.376 145.456 381.056 142.192 385.856 139.312C390.848 136.24 393.344 132.112 393.344 126.928V104.464C393.344 96.4 391.424 90.16 387.584 85.744C383.936 81.136 378.176 78.832 370.304 78.832C361.088 78.832 354.08 81.136 349.28 85.744C354.656 87.664 358.784 90.544 361.664 94.384C364.736 98.224 366.272 102.736 366.272 107.92C366.272 114.448 364.064 119.632 359.648 123.472C355.232 127.312 349.856 129.232 343.52 129.232C336.8 129.232 331.616 127.12 327.968 122.896C324.32 118.672 322.496 113.392 322.496 107.056C322.496 101.68 323.744 97.168 326.24 93.52C328.928 89.68 332.96 86.128 338.336 82.864C343.52 79.792 349.856 77.392 357.344 75.664C365.024 73.936 373.376 73.072 382.4 73.072C391.808 73.072 399.968 74.032 406.88 75.952C413.792 77.872 419.552 81.136 424.16 85.744C428.384 89.968 431.168 95.152 432.512 101.296C434.048 107.44 434.816 115.792 434.816 126.352V204.688C434.816 209.296 435.2 212.56 435.968 214.48C436.928 216.4 438.656 217.36 441.152 217.36C444.032 217.36 447.488 215.728 451.52 212.464L454.4 217.36C445.76 224.464 435.2 228.016 422.72 228.016C412.16 228.016 404.768 225.904 400.544 221.68C396.32 217.456 394.112 211.792 393.92 204.688C384.32 220.24 370.208 228.016 351.584 228.016ZM373.76 209.584C381.248 209.584 387.776 205.648 393.344 197.776V138.736C391.04 142.576 386.144 146.8 378.656 151.408C371.168 156.208 365.504 161.008 361.664 165.808C357.824 170.608 355.904 177.52 355.904 186.544C355.904 194.416 357.536 200.272 360.8 204.112C364.064 207.76 368.384 209.584 373.76 209.584ZM537.511 73.072C544.615 73.072 551.335 73.84 557.671 75.376C564.007 76.912 569.287 79.024 573.511 81.712C578.503 84.784 582.343 88.72 585.031 93.52C587.911 98.128 589.351 103.216 589.351 108.784C589.351 115.504 587.239 121.072 583.015 125.488C578.791 129.712 573.319 131.824 566.599 131.824C559.879 131.824 554.503 129.904 550.471 126.064C546.439 122.224 544.423 117.04 544.423 110.512C544.423 104.752 546.247 99.76 549.895 95.536C553.543 91.312 558.055 88.432 563.431 86.896C561.895 84.784 559.495 83.152 556.231 82C553.159 80.656 549.799 79.984 546.151 79.984C534.631 79.984 525.607 86.32 519.079 98.992C512.743 111.472 509.575 127.888 509.575 148.24C509.575 168.784 513.223 183.568 520.519 192.592C527.815 201.616 536.935 206.128 547.879 206.128C554.407 206.128 560.935 204.4 567.463 200.944C574.183 197.488 580.231 191.44 585.607 182.8L590.503 184.528C586.663 197.008 579.943 207.76 570.343 216.784C560.743 225.616 548.359 230.032 533.191 230.032C513.415 230.032 497.287 223.504 484.807 210.448C472.327 197.392 466.087 178 466.087 152.272C466.087 135.376 469.159 120.976 475.303 109.072C481.447 97.168 489.895 88.24 500.647 82.288C511.399 76.144 523.687 73.072 537.511 73.072ZM654.466 221.68H669.442C681.73 221.68 692.098 217.648 700.546 209.584C708.994 201.328 713.986 188.176 715.522 170.128H721.57C721.57 197.392 721.954 216.4 722.722 227.152C707.17 226.384 688.738 226 667.426 226C648.61 226 628.642 226.48 607.522 227.44L679.522 81.424H663.394C635.938 81.424 620.962 98.608 618.466 132.976H612.418C612.418 105.712 612.034 86.704 611.266 75.952C626.818 76.72 645.25 77.104 666.562 77.104C685.378 77.104 705.346 76.624 726.466 75.664L654.466 221.68ZM826.584 206.416C842.328 206.416 855 198.736 864.6 183.376L869.784 185.104C865.944 197.584 859.032 208.24 849.048 217.072C839.256 225.712 826.968 230.032 812.184 230.032C791.832 230.032 775.608 223.6 763.512 210.736C751.608 197.68 745.656 178.48 745.656 153.136C745.656 127.216 752.088 107.44 764.952 93.808C777.816 79.984 794.904 73.072 816.216 73.072C852.312 73.072 870.36 94.384 870.36 137.008H789.432C789.24 139.888 789.144 144.4 789.144 150.544C789.144 163.216 790.872 173.776 794.328 182.224C797.976 190.672 802.584 196.816 808.152 200.656C813.912 204.496 820.056 206.416 826.584 206.416ZM814.488 79.12C807.576 79.12 801.816 83.44 797.208 92.08C792.792 100.528 790.008 113.68 788.856 131.536H834.072C834.456 116.368 832.92 103.888 829.464 94.096C826.2 84.112 821.208 79.12 814.488 79.12ZM1023.55 104.752C1019.71 104.752 1016.45 103.504 1013.76 101.008C1011.07 98.32 1009.73 94.576 1009.73 89.776C1009.73 85.168 1010.88 80.464 1013.18 75.664C1008.57 77.584 1004.73 79.792 1001.66 82.288C998.781 84.592 996.285 87.568 994.173 91.216C1000.13 98.32 1003.1 107.536 1003.1 118.864C1003.1 134.032 997.821 145.456 987.261 153.136C976.893 160.816 963.069 164.656 945.789 164.656H940.605C932.733 169.264 928.797 174.352 928.797 179.92C928.797 186.064 932.637 189.136 940.317 189.136H971.709C988.605 189.136 1002.05 192.304 1012.03 198.64C1022.21 204.784 1027.29 214.288 1027.29 227.152C1027.29 236.944 1024.13 245.776 1017.79 253.648C1011.65 261.712 1002.24 268.144 989.565 272.944C976.893 277.744 961.341 280.144 942.909 280.144C924.285 280.144 909.309 277.744 897.981 272.944C886.845 268.336 881.277 261.616 881.277 252.784C881.277 246.832 883.965 241.456 889.341 236.656C894.717 232.048 902.685 228.4 913.245 225.712L915.837 230.32C908.925 236.08 905.469 242.704 905.469 250.192C905.469 258.256 909.117 264.4 916.413 268.624C923.709 273.04 933.789 275.248 946.653 275.248C960.093 275.248 970.941 272.56 979.197 267.184C987.645 261.808 991.869 254.224 991.869 244.432C991.869 238.096 989.469 233.104 984.669 229.456C980.061 225.808 971.901 223.984 960.189 223.984H942.333C930.045 223.984 920.445 221.968 913.533 217.936C906.621 213.712 903.165 207.376 903.165 198.928C903.165 191.824 905.661 185.488 910.653 179.92C915.645 174.352 923.229 168.976 933.405 163.792C919.581 162.064 908.637 157.456 900.573 149.968C892.509 142.48 888.477 132.112 888.477 118.864C888.477 103.696 893.661 92.272 904.029 84.592C914.589 76.912 928.509 73.072 945.789 73.072C964.989 73.072 979.677 77.584 989.853 86.608C993.501 81.424 998.013 77.296 1003.39 74.224C1008.77 71.152 1014.24 69.616 1019.81 69.616C1025.57 69.616 1030.08 71.344 1033.34 74.8C1036.8 78.064 1038.53 82.384 1038.53 87.76C1038.53 93.136 1036.99 97.36 1033.92 100.432C1031.04 103.312 1027.58 104.752 1023.55 104.752ZM945.789 159.472C951.165 159.472 955.197 156.4 957.885 150.256C960.765 144.112 962.205 133.648 962.205 118.864C962.205 104.08 960.765 93.616 957.885 87.472C955.197 81.328 951.165 78.256 945.789 78.256C940.413 78.256 936.285 81.328 933.405 87.472C930.717 93.616 929.373 104.08 929.373 118.864C929.373 133.648 930.717 144.112 933.405 150.256C936.285 156.4 940.413 159.472 945.789 159.472ZM1116.03 73.072C1138.11 73.072 1155.39 79.408 1167.87 92.08C1180.35 104.56 1186.59 124.432 1186.59 151.696C1186.59 178.96 1180.35 198.832 1167.87 211.312C1155.39 223.792 1138.11 230.032 1116.03 230.032C1094.14 230.032 1076.86 223.792 1064.19 211.312C1051.71 198.832 1045.47 178.96 1045.47 151.696C1045.47 124.432 1051.71 104.56 1064.19 92.08C1076.86 79.408 1094.14 73.072 1116.03 73.072ZM1116.03 78.832C1107.77 78.832 1101.15 84.88 1096.16 96.976C1091.36 108.88 1088.96 127.12 1088.96 151.696C1088.96 176.272 1091.36 194.512 1096.16 206.416C1101.15 218.32 1107.77 224.272 1116.03 224.272C1124.48 224.272 1131.1 218.416 1135.9 206.704C1140.7 194.8 1143.1 176.464 1143.1 151.696C1143.1 126.928 1140.6 108.592 1135.61 96.688C1130.81 84.784 1124.28 78.832 1116.03 78.832Z" fill="#E7E7E7"/>
<path d="M147.336 337.608C147.336 346.44 148.68 352.872 151.368 356.904C154.248 360.936 159.048 362.952 165.768 362.952V369C159.816 368.424 153.864 368.136 147.912 368.136C131.208 368.136 117.192 369.48 105.864 372.168V346.248C97.032 364.104 81.576 373.032 59.496 373.032C45.096 373.032 34.632 369.288 28.104 361.8C25.032 358.152 22.728 353.448 21.192 347.688C19.848 341.736 19.176 333.96 19.176 324.36V251.496C19.176 242.664 17.736 236.232 14.856 232.2C12.168 228.168 7.464 226.152 0.744 226.152V220.104C6.696 220.68 12.648 220.968 18.6 220.968C35.304 220.968 49.32 219.624 60.648 216.936V336.168C60.648 344.232 61.8 350.28 64.104 354.312C66.6 358.344 71.208 360.36 77.928 360.36C85.608 360.36 92.136 357.192 97.512 350.856C103.08 344.328 105.864 336.36 105.864 326.952V251.496C105.864 242.664 104.424 236.232 101.544 232.2C98.856 228.168 94.152 226.152 87.432 226.152V220.104C93.576 220.68 99.528 220.968 105.288 220.968C121.992 220.968 136.008 219.624 147.336 216.936V337.608ZM477.339 342.216C477.339 350.088 478.683 355.56 481.371 358.632C484.251 361.512 489.051 362.952 495.771 362.952V369C476.571 368.232 463.899 367.848 457.755 367.848C452.379 367.848 440.475 368.232 422.043 369V362.952C427.227 362.952 430.779 361.512 432.699 358.632C434.811 355.752 435.867 350.28 435.867 342.216V252.648C435.867 244.584 434.619 238.632 432.123 234.792C429.819 230.76 425.307 228.744 418.587 228.744C411.483 228.744 405.243 231.72 399.867 237.672C394.683 243.624 391.611 250.92 390.651 259.56V264.744V342.216C390.651 350.088 391.803 355.56 394.107 358.632C396.603 361.512 401.019 362.952 407.355 362.952V369C388.923 368.232 376.827 367.848 371.067 367.848C365.691 367.848 353.787 368.232 335.355 369V362.952C340.539 362.952 344.091 361.512 346.011 358.632C348.123 355.56 349.179 350.088 349.179 342.216V252.648C349.179 244.584 348.123 238.632 346.011 234.792C343.899 230.76 339.771 228.744 333.627 228.744C325.947 228.744 319.323 232.008 313.755 238.536C308.379 244.872 305.691 252.744 305.691 262.152V342.216C305.691 350.088 306.651 355.56 308.571 358.632C310.683 361.512 314.331 362.952 319.515 362.952V369C302.619 368.232 291.291 367.848 285.531 367.848C279.771 367.848 266.523 368.232 245.787 369V362.952C252.699 362.952 257.499 361.512 260.187 358.632C262.875 355.56 264.219 350.088 264.219 342.216V251.496C264.219 242.664 262.875 236.232 260.187 232.2C257.499 228.168 252.699 226.152 245.787 226.152V220.104C251.931 220.68 257.883 220.968 263.643 220.968C280.731 220.968 294.747 219.624 305.691 216.936V242.856C314.139 225 329.019 216.072 350.331 216.072C364.923 216.072 375.483 219.816 382.011 227.304C385.659 231.144 388.059 236.904 389.211 244.584C394.203 234.216 400.731 226.92 408.795 222.696C416.859 218.28 426.267 216.072 437.019 216.072C451.611 216.072 462.171 219.816 468.699 227.304C471.771 230.76 473.979 235.464 475.323 241.416C476.667 247.368 477.339 255.144 477.339 264.744V342.216ZM613.642 216.072C628.234 216.072 638.794 219.816 645.322 227.304C648.586 230.952 650.89 235.656 652.234 241.416C653.578 247.176 654.25 254.952 654.25 264.744V342.216C654.25 350.088 655.594 355.56 658.282 358.632C661.162 361.512 665.962 362.952 672.682 362.952V369C653.482 368.232 640.81 367.848 634.666 367.848C628.906 367.848 616.426 368.232 597.226 369V362.952C602.986 362.952 607.018 361.512 609.322 358.632C611.626 355.56 612.778 350.088 612.778 342.216V252.648C612.778 244.776 611.434 238.824 608.746 234.792C606.25 230.76 601.642 228.744 594.922 228.744C587.05 228.744 580.33 232.008 574.762 238.536C569.194 244.872 566.41 252.744 566.41 262.152V342.216C566.41 350.088 567.562 355.56 569.866 358.632C572.17 361.512 576.202 362.952 581.962 362.952V369C564.298 368.232 552.394 367.848 546.25 367.848C540.49 367.848 527.242 368.232 506.506 369V362.952C513.418 362.952 518.218 361.512 520.906 358.632C523.594 355.56 524.938 350.088 524.938 342.216V251.496C524.938 242.664 523.594 236.232 520.906 232.2C518.218 228.168 513.418 226.152 506.506 226.152V220.104C512.65 220.68 518.602 220.968 524.362 220.968C541.45 220.968 555.466 219.624 566.41 216.936V242.856C575.05 225 590.794 216.072 613.642 216.072ZM720.852 145.8C728.916 145.8 735.252 147.816 739.86 151.848C744.66 155.688 747.06 161.064 747.06 167.976C747.06 174.888 744.66 180.36 739.86 184.392C735.252 188.232 728.916 190.152 720.852 190.152C712.788 190.152 706.356 188.232 701.556 184.392C696.948 180.36 694.644 174.888 694.644 167.976C694.644 161.064 696.948 155.688 701.556 151.848C706.356 147.816 712.788 145.8 720.852 145.8ZM743.316 342.216C743.316 350.088 744.66 355.56 747.348 358.632C750.228 361.512 755.028 362.952 761.748 362.952V369C742.548 368.232 729.78 367.848 723.444 367.848C717.492 367.848 704.148 368.232 683.412 369V362.952C690.324 362.952 695.124 361.512 697.812 358.632C700.5 355.56 701.844 350.088 701.844 342.216V251.496C701.844 242.664 700.5 236.232 697.812 232.2C695.124 228.168 690.324 226.152 683.412 226.152V220.104C689.556 220.68 695.508 220.968 701.268 220.968C718.356 220.968 732.372 219.624 743.316 216.936V342.216ZM858.928 349.416C874.672 349.416 887.344 341.736 896.944 326.376L902.128 328.104C898.288 340.584 891.376 351.24 881.392 360.072C871.6 368.712 859.312 373.032 844.528 373.032C824.176 373.032 807.952 366.6 795.856 353.736C783.952 340.68 778 321.48 778 296.136C778 270.216 784.432 250.44 797.296 236.808C810.16 222.984 827.248 216.072 848.56 216.072C884.656 216.072 902.704 237.384 902.704 280.008H821.776C821.584 282.888 821.488 287.4 821.488 293.544C821.488 306.216 823.216 316.776 826.672 325.224C830.32 333.672 834.928 339.816 840.496 343.656C846.256 347.496 852.4 349.416 858.928 349.416ZM846.832 222.12C839.92 222.12 834.16 226.44 829.552 235.08C825.136 243.528 822.352 256.68 821.2 274.536H866.416C866.8 259.368 865.264 246.888 861.808 237.096C858.544 227.112 853.552 222.12 846.832 222.12ZM975.944 143.784C996.68 143.784 1013.38 148.488 1026.06 157.896C1038.73 167.112 1045.06 179.688 1045.06 195.624C1045.06 211.368 1038.44 224.712 1025.19 235.656C1012.14 246.6 994.28 254.568 971.624 259.56V301.608H965.864V256.968C980.84 250.44 990.92 242.76 996.104 233.928C1001.29 224.904 1003.88 213.96 1003.88 201.096C1003.88 183.624 1000.71 170.664 994.376 162.216C988.04 153.768 979.4 149.544 968.456 149.544C963.08 149.544 958.088 150.216 953.48 151.56C949.064 152.712 945.704 154.536 943.4 157.032C954.152 160.296 959.528 167.304 959.528 178.056C959.528 184.008 957.416 189 953.192 193.032C948.968 196.872 943.496 198.792 936.776 198.792C930.824 198.792 925.928 196.872 922.088 193.032C918.248 189.192 916.328 184.488 916.328 178.92C916.328 173.352 917.768 168.648 920.648 164.808C923.528 160.776 927.56 157.128 932.744 153.864C944.072 147.144 958.472 143.784 975.944 143.784ZM969.032 328.68C976.52 328.68 982.472 330.696 986.888 334.728C991.304 338.568 993.512 343.944 993.512 350.856C993.512 357.768 991.304 363.24 986.888 367.272C982.472 371.112 976.52 373.032 969.032 373.032C961.544 373.032 955.592 371.112 951.176 367.272C946.76 363.24 944.552 357.768 944.552 350.856C944.552 343.944 946.76 338.568 951.176 334.728C955.592 330.696 961.544 328.68 969.032 328.68Z" fill="#B80202"/>
</svg>
